%TF.GenerationSoftware,KiCad,Pcbnew,9.0.6*%
%TF.CreationDate,2026-07-27T12:56:26+05:30*%
%TF.ProjectId,custom-keeboard,63757374-6f6d-42d6-9b65-65626f617264,rev?*%
%TF.SameCoordinates,Original*%
%TF.FileFunction,Soldermask,Top*%
%TF.FilePolarity,Negative*%
%FSLAX46Y46*%
G04 Gerber Fmt 4.6, Leading zero omitted, Abs format (unit mm)*
G04 Created by KiCad (PCBNEW 9.0.6) date 2026-07-27 12:56:26*
%MOMM*%
%LPD*%
G01*
G04 APERTURE LIST*
G04 Aperture macros list*
%AMRoundRect*
0 Rectangle with rounded corners*
0 $1 Rounding radius*
0 $2 $3 $4 $5 $6 $7 $8 $9 X,Y pos of 4 corners*
0 Add a 4 corners polygon primitive as box body*
4,1,4,$2,$3,$4,$5,$6,$7,$8,$9,$2,$3,0*
0 Add four circle primitives for the rounded corners*
1,1,$1+$1,$2,$3*
1,1,$1+$1,$4,$5*
1,1,$1+$1,$6,$7*
1,1,$1+$1,$8,$9*
0 Add four rect primitives between the rounded corners*
20,1,$1+$1,$2,$3,$4,$5,0*
20,1,$1+$1,$4,$5,$6,$7,0*
20,1,$1+$1,$6,$7,$8,$9,0*
20,1,$1+$1,$8,$9,$2,$3,0*%
%AMFreePoly0*
4,1,37,0.603843,0.796157,0.639018,0.796157,0.711114,0.766294,0.766294,0.711114,0.796157,0.639018,0.796157,0.603843,0.800000,0.600000,0.800000,-0.600000,0.796157,-0.603843,0.796157,-0.639018,0.766294,-0.711114,0.711114,-0.766294,0.639018,-0.796157,0.603843,-0.796157,0.600000,-0.800000,0.000000,-0.800000,0.000000,-0.796148,-0.078414,-0.796148,-0.232228,-0.765552,-0.377117,-0.705537,
-0.507515,-0.618408,-0.618408,-0.507515,-0.705537,-0.377117,-0.765552,-0.232228,-0.796148,-0.078414,-0.796148,0.078414,-0.765552,0.232228,-0.705537,0.377117,-0.618408,0.507515,-0.507515,0.618408,-0.377117,0.705537,-0.232228,0.765552,-0.078414,0.796148,0.000000,0.796148,0.000000,0.800000,0.600000,0.800000,0.603843,0.796157,0.603843,0.796157,$1*%
%AMFreePoly1*
4,1,37,0.000000,0.796148,0.078414,0.796148,0.232228,0.765552,0.377117,0.705537,0.507515,0.618408,0.618408,0.507515,0.705537,0.377117,0.765552,0.232228,0.796148,0.078414,0.796148,-0.078414,0.765552,-0.232228,0.705537,-0.377117,0.618408,-0.507515,0.507515,-0.618408,0.377117,-0.705537,0.232228,-0.765552,0.078414,-0.796148,0.000000,-0.796148,0.000000,-0.800000,-0.600000,-0.800000,
-0.603843,-0.796157,-0.639018,-0.796157,-0.711114,-0.766294,-0.766294,-0.711114,-0.796157,-0.639018,-0.796157,-0.603843,-0.800000,-0.600000,-0.800000,0.600000,-0.796157,0.603843,-0.796157,0.639018,-0.766294,0.711114,-0.711114,0.766294,-0.639018,0.796157,-0.603843,0.796157,-0.600000,0.800000,0.000000,0.800000,0.000000,0.796148,0.000000,0.796148,$1*%
G04 Aperture macros list end*
%ADD10C,1.750000*%
%ADD11C,3.987800*%
%ADD12RoundRect,0.200000X-0.600000X-0.600000X0.600000X-0.600000X0.600000X0.600000X-0.600000X0.600000X0*%
%ADD13C,1.600000*%
%ADD14FreePoly0,0.000000*%
%ADD15FreePoly1,0.000000*%
%ADD16RoundRect,0.250000X0.550000X-0.550000X0.550000X0.550000X-0.550000X0.550000X-0.550000X-0.550000X0*%
G04 APERTURE END LIST*
D10*
%TO.C,SW5*%
X109220000Y-38100000D03*
D11*
X114300000Y-38100000D03*
D10*
X119380000Y-38100000D03*
%TD*%
%TO.C,SW65*%
X328500000Y-114500000D03*
D11*
X333580000Y-114500000D03*
D10*
X338660000Y-114500000D03*
%TD*%
%TO.C,SW63*%
X290420000Y-114500000D03*
D11*
X295500000Y-114500000D03*
D10*
X300580000Y-114500000D03*
%TD*%
%TO.C,SW8*%
X166370000Y-38100000D03*
D11*
X171450000Y-38100000D03*
D10*
X176530000Y-38100000D03*
%TD*%
%TO.C,SW19*%
X99695000Y-57150000D03*
D11*
X104775000Y-57150000D03*
D10*
X109855000Y-57150000D03*
%TD*%
%TO.C,SW40*%
X218757500Y-76200000D03*
D11*
X223837500Y-76200000D03*
D10*
X228917500Y-76200000D03*
%TD*%
D11*
%TO.C,S4*%
X104993750Y-122755000D03*
X205006250Y-122755000D03*
%TD*%
D10*
%TO.C,SW38*%
X180657500Y-76200000D03*
D11*
X185737500Y-76200000D03*
D10*
X190817500Y-76200000D03*
%TD*%
%TO.C,SW32*%
X66357500Y-76200000D03*
D11*
X71437500Y-76200000D03*
D10*
X76517500Y-76200000D03*
%TD*%
%TO.C,SW13*%
X261620000Y-38100000D03*
D11*
X266700000Y-38100000D03*
D10*
X271780000Y-38100000D03*
%TD*%
%TO.C,SW3*%
X71120000Y-38100000D03*
D11*
X76200000Y-38100000D03*
D10*
X81280000Y-38100000D03*
%TD*%
%TO.C,SW55*%
X309245000Y-95250000D03*
D11*
X314325000Y-95250000D03*
D10*
X319405000Y-95250000D03*
%TD*%
%TO.C,SW64*%
X309420000Y-114500000D03*
D11*
X314500000Y-114500000D03*
D10*
X319580000Y-114500000D03*
%TD*%
%TO.C,SW23*%
X175895000Y-57150000D03*
D11*
X180975000Y-57150000D03*
D10*
X186055000Y-57150000D03*
%TD*%
%TO.C,SW9*%
X185420000Y-38100000D03*
D11*
X190500000Y-38100000D03*
D10*
X195580000Y-38100000D03*
%TD*%
%TO.C,SW10*%
X204470000Y-38100000D03*
D11*
X209550000Y-38100000D03*
D10*
X214630000Y-38100000D03*
%TD*%
%TO.C,SW33*%
X85407500Y-76200000D03*
D11*
X90487500Y-76200000D03*
D10*
X95567500Y-76200000D03*
%TD*%
%TO.C,SW26*%
X233045000Y-57150000D03*
D11*
X238125000Y-57150000D03*
D10*
X243205000Y-57150000D03*
%TD*%
%TO.C,SW29*%
X294957500Y-57150000D03*
D11*
X300037500Y-57150000D03*
D10*
X305117500Y-57150000D03*
%TD*%
%TO.C,SW14*%
X290195000Y-38100000D03*
D11*
X295275000Y-38100000D03*
D10*
X300355000Y-38100000D03*
%TD*%
%TO.C,SW18*%
X80645000Y-57150000D03*
D11*
X85725000Y-57150000D03*
D10*
X90805000Y-57150000D03*
%TD*%
%TO.C,SW16*%
X37782500Y-57150000D03*
D11*
X42862500Y-57150000D03*
D10*
X47942500Y-57150000D03*
%TD*%
%TO.C,SW52*%
X209215000Y-95250000D03*
D11*
X214295000Y-95250000D03*
D10*
X219375000Y-95250000D03*
%TD*%
D11*
%TO.C,S2*%
X259645000Y-103815000D03*
X283457500Y-103815000D03*
%TD*%
D10*
%TO.C,SW24*%
X194945000Y-57150000D03*
D11*
X200025000Y-57150000D03*
D10*
X205105000Y-57150000D03*
%TD*%
%TO.C,SW47*%
X113965000Y-95250000D03*
D11*
X119045000Y-95250000D03*
D10*
X124125000Y-95250000D03*
%TD*%
%TO.C,SW2*%
X52070000Y-38100000D03*
D11*
X57150000Y-38100000D03*
D10*
X62230000Y-38100000D03*
%TD*%
%TO.C,SW35*%
X123507500Y-76200000D03*
D11*
X128587500Y-76200000D03*
D10*
X133667500Y-76200000D03*
%TD*%
D12*
%TO.C,A1*%
X315220000Y-19960000D03*
D13*
X315220000Y-22500000D03*
D14*
X315220000Y-25040000D03*
D13*
X315220000Y-27580000D03*
X315220000Y-30120000D03*
X315220000Y-32660000D03*
X315220000Y-35200000D03*
D14*
X315220000Y-37740000D03*
D13*
X315220000Y-40280000D03*
X315220000Y-42820000D03*
X315220000Y-45360000D03*
X315220000Y-47900000D03*
D14*
X315220000Y-50440000D03*
D13*
X315220000Y-52980000D03*
X315220000Y-55520000D03*
X315220000Y-58060000D03*
X315220000Y-60600000D03*
D14*
X315220000Y-63140000D03*
D13*
X315220000Y-65680000D03*
X315220000Y-68220000D03*
X333000000Y-68220000D03*
X333000000Y-65680000D03*
D15*
X333000000Y-63140000D03*
D13*
X333000000Y-60600000D03*
X333000000Y-58060000D03*
X333000000Y-55520000D03*
X333000000Y-52980000D03*
D15*
X333000000Y-50440000D03*
D13*
X333000000Y-47900000D03*
X333000000Y-45360000D03*
X333000000Y-42820000D03*
X333000000Y-40280000D03*
D15*
X333000000Y-37740000D03*
D13*
X333000000Y-35200000D03*
X333000000Y-32660000D03*
X333000000Y-30120000D03*
X333000000Y-27580000D03*
D15*
X333000000Y-25040000D03*
D13*
X333000000Y-22500000D03*
X333000000Y-19960000D03*
%TD*%
D10*
%TO.C,SW60*%
X220840000Y-114500000D03*
D11*
X225920000Y-114500000D03*
D10*
X231000000Y-114500000D03*
%TD*%
%TO.C,SW51*%
X190165000Y-95250000D03*
D11*
X195245000Y-95250000D03*
D10*
X200325000Y-95250000D03*
%TD*%
%TO.C,SW6*%
X128270000Y-38100000D03*
D11*
X133350000Y-38100000D03*
D10*
X138430000Y-38100000D03*
%TD*%
%TO.C,SW36*%
X142557500Y-76200000D03*
D11*
X147637500Y-76200000D03*
D10*
X152717500Y-76200000D03*
%TD*%
%TO.C,SW21*%
X137795000Y-57150000D03*
D11*
X142875000Y-57150000D03*
D10*
X147955000Y-57150000D03*
%TD*%
D11*
%TO.C,S3*%
X38093750Y-103500000D03*
X61906250Y-103500000D03*
%TD*%
D10*
%TO.C,SW1*%
X33020000Y-38100000D03*
D11*
X38100000Y-38100000D03*
D10*
X43180000Y-38100000D03*
%TD*%
%TO.C,SW12*%
X242570000Y-38100000D03*
D11*
X247650000Y-38100000D03*
D10*
X252730000Y-38100000D03*
%TD*%
%TO.C,SW49*%
X152065000Y-95250000D03*
D11*
X157145000Y-95250000D03*
D10*
X162225000Y-95250000D03*
%TD*%
%TO.C,SW15*%
X343340000Y-31760000D03*
D11*
X348420000Y-31760000D03*
D10*
X353500000Y-31760000D03*
%TD*%
%TO.C,SW41*%
X237807500Y-76200000D03*
D11*
X242887500Y-76200000D03*
D10*
X247967500Y-76200000D03*
%TD*%
%TO.C,SW57*%
X56000000Y-114500000D03*
D11*
X61080000Y-114500000D03*
D10*
X66160000Y-114500000D03*
%TD*%
%TO.C,SW53*%
X228265000Y-95250000D03*
D11*
X233345000Y-95250000D03*
D10*
X238425000Y-95250000D03*
%TD*%
%TO.C,SW37*%
X161607500Y-76200000D03*
D11*
X166687500Y-76200000D03*
D10*
X171767500Y-76200000D03*
%TD*%
%TO.C,SW42*%
X256857500Y-76200000D03*
D11*
X261937500Y-76200000D03*
D10*
X267017500Y-76200000D03*
%TD*%
%TO.C,SW58*%
X78420000Y-114500000D03*
D11*
X83500000Y-114500000D03*
D10*
X88580000Y-114500000D03*
%TD*%
%TO.C,SW27*%
X252095000Y-57150000D03*
D11*
X257175000Y-57150000D03*
D10*
X262255000Y-57150000D03*
%TD*%
%TO.C,SW43*%
X287813750Y-76200000D03*
D11*
X292893750Y-76200000D03*
D10*
X297973750Y-76200000D03*
%TD*%
%TO.C,SW46*%
X94915000Y-95250000D03*
D11*
X99995000Y-95250000D03*
D10*
X105075000Y-95250000D03*
%TD*%
%TO.C,SW56*%
X35420000Y-114500000D03*
D11*
X40500000Y-114500000D03*
D10*
X45580000Y-114500000D03*
%TD*%
%TO.C,SW11*%
X223520000Y-38100000D03*
D11*
X228600000Y-38100000D03*
D10*
X233680000Y-38100000D03*
%TD*%
%TO.C,SW45*%
X75865000Y-95250000D03*
D11*
X80945000Y-95250000D03*
D10*
X86025000Y-95250000D03*
%TD*%
%TO.C,SW44*%
X44920000Y-95250000D03*
D11*
X50000000Y-95250000D03*
D10*
X55080000Y-95250000D03*
%TD*%
%TO.C,SW22*%
X156845000Y-57150000D03*
D11*
X161925000Y-57150000D03*
D10*
X167005000Y-57150000D03*
%TD*%
%TO.C,SW7*%
X147320000Y-38100000D03*
D11*
X152400000Y-38100000D03*
D10*
X157480000Y-38100000D03*
%TD*%
%TO.C,SW31*%
X40163750Y-76200000D03*
D11*
X45243750Y-76200000D03*
D10*
X50323750Y-76200000D03*
%TD*%
%TO.C,SW59*%
X150000000Y-114300000D03*
D11*
X155080000Y-114300000D03*
D10*
X160160000Y-114300000D03*
%TD*%
%TO.C,SW54*%
X266340000Y-95310000D03*
D11*
X271420000Y-95310000D03*
D10*
X276500000Y-95310000D03*
%TD*%
%TO.C,SW20*%
X118745000Y-57150000D03*
D11*
X123825000Y-57150000D03*
D10*
X128905000Y-57150000D03*
%TD*%
%TO.C,SW34*%
X104457500Y-76200000D03*
D11*
X109537500Y-76200000D03*
D10*
X114617500Y-76200000D03*
%TD*%
%TO.C,SW61*%
X244865000Y-114300000D03*
D11*
X249945000Y-114300000D03*
D10*
X255025000Y-114300000D03*
%TD*%
%TO.C,SW25*%
X213995000Y-57150000D03*
D11*
X219075000Y-57150000D03*
D10*
X224155000Y-57150000D03*
%TD*%
%TO.C,SW17*%
X61595000Y-57150000D03*
D11*
X66675000Y-57150000D03*
D10*
X71755000Y-57150000D03*
%TD*%
%TO.C,SW62*%
X268500000Y-114500000D03*
D11*
X273580000Y-114500000D03*
D10*
X278660000Y-114500000D03*
%TD*%
%TO.C,SW48*%
X133015000Y-95250000D03*
D11*
X138095000Y-95250000D03*
D10*
X143175000Y-95250000D03*
%TD*%
%TO.C,SW50*%
X171115000Y-95250000D03*
D11*
X176195000Y-95250000D03*
D10*
X181275000Y-95250000D03*
%TD*%
%TO.C,SW4*%
X90170000Y-38100000D03*
D11*
X95250000Y-38100000D03*
D10*
X100330000Y-38100000D03*
%TD*%
%TO.C,SW39*%
X199707500Y-76200000D03*
D11*
X204787500Y-76200000D03*
D10*
X209867500Y-76200000D03*
%TD*%
%TO.C,SW28*%
X271145000Y-57150000D03*
D11*
X276225000Y-57150000D03*
D10*
X281305000Y-57150000D03*
%TD*%
D11*
%TO.C,S1*%
X281187500Y-84500000D03*
X305000000Y-84500000D03*
%TD*%
D10*
%TO.C,SW30*%
X343340000Y-50810000D03*
D11*
X348420000Y-50810000D03*
D10*
X353500000Y-50810000D03*
%TD*%
D16*
%TO.C,D13*%
X275000000Y-42310000D03*
D13*
X275000000Y-34690000D03*
%TD*%
D16*
%TO.C,D5*%
X122700000Y-42100000D03*
D13*
X122700000Y-34480000D03*
%TD*%
D16*
%TO.C,D6*%
X141750000Y-42100000D03*
D13*
X141750000Y-34480000D03*
%TD*%
D16*
%TO.C,D38*%
X193750000Y-80310000D03*
D13*
X193750000Y-72690000D03*
%TD*%
D16*
%TO.C,D20*%
X132100000Y-61810000D03*
D13*
X132100000Y-54190000D03*
%TD*%
D16*
%TO.C,D45*%
X89250000Y-99310000D03*
D13*
X89250000Y-91690000D03*
%TD*%
D16*
%TO.C,D60*%
X234000000Y-117810000D03*
D13*
X234000000Y-110190000D03*
%TD*%
D16*
%TO.C,D51*%
X203550000Y-99310000D03*
D13*
X203550000Y-91690000D03*
%TD*%
D16*
%TO.C,D21*%
X151150000Y-61810000D03*
D13*
X151150000Y-54190000D03*
%TD*%
D16*
%TO.C,D3*%
X84600000Y-42100000D03*
D13*
X84600000Y-34480000D03*
%TD*%
D16*
%TO.C,D34*%
X117550000Y-80310000D03*
D13*
X117550000Y-72690000D03*
%TD*%
D16*
%TO.C,D33*%
X98500000Y-80310000D03*
D13*
X98500000Y-72690000D03*
%TD*%
D16*
%TO.C,D52*%
X222600000Y-99310000D03*
D13*
X222600000Y-91690000D03*
%TD*%
D16*
%TO.C,D46*%
X108300000Y-99310000D03*
D13*
X108300000Y-91690000D03*
%TD*%
D16*
%TO.C,D37*%
X174700000Y-80310000D03*
D13*
X174700000Y-72690000D03*
%TD*%
D16*
%TO.C,D11*%
X237000000Y-42100000D03*
D13*
X237000000Y-34480000D03*
%TD*%
D16*
%TO.C,D8*%
X179850000Y-42100000D03*
D13*
X179850000Y-34480000D03*
%TD*%
D16*
%TO.C,D30*%
X356500000Y-54810000D03*
D13*
X356500000Y-47190000D03*
%TD*%
D16*
%TO.C,D55*%
X322500000Y-98810000D03*
D13*
X322500000Y-91190000D03*
%TD*%
D16*
%TO.C,D35*%
X136600000Y-80310000D03*
D13*
X136600000Y-72690000D03*
%TD*%
D16*
%TO.C,D22*%
X170200000Y-61810000D03*
D13*
X170200000Y-54190000D03*
%TD*%
D16*
%TO.C,D17*%
X74950000Y-61810000D03*
D13*
X74950000Y-54190000D03*
%TD*%
D16*
%TO.C,D19*%
X113050000Y-61810000D03*
D13*
X113050000Y-54190000D03*
%TD*%
D16*
%TO.C,D2*%
X65550000Y-42100000D03*
D13*
X65550000Y-34480000D03*
%TD*%
D16*
%TO.C,D12*%
X256050000Y-42100000D03*
D13*
X256050000Y-34480000D03*
%TD*%
D16*
%TO.C,D59*%
X163500000Y-117810000D03*
D13*
X163500000Y-110190000D03*
%TD*%
D16*
%TO.C,D42*%
X269950000Y-80310000D03*
D13*
X269950000Y-72690000D03*
%TD*%
D16*
%TO.C,D48*%
X146400000Y-99310000D03*
D13*
X146400000Y-91690000D03*
%TD*%
D16*
%TO.C,D16*%
X51137500Y-61810000D03*
D13*
X51137500Y-54190000D03*
%TD*%
D16*
%TO.C,D43*%
X301500000Y-79810000D03*
D13*
X301500000Y-72190000D03*
%TD*%
D16*
%TO.C,D57*%
X69000000Y-117310000D03*
D13*
X69000000Y-109690000D03*
%TD*%
D16*
%TO.C,D53*%
X241650000Y-99310000D03*
D13*
X241650000Y-91690000D03*
%TD*%
D16*
%TO.C,D24*%
X208300000Y-61810000D03*
D13*
X208300000Y-54190000D03*
%TD*%
D16*
%TO.C,D50*%
X184500000Y-99310000D03*
D13*
X184500000Y-91690000D03*
%TD*%
D16*
%TO.C,D63*%
X303500000Y-118810000D03*
D13*
X303500000Y-111190000D03*
%TD*%
D16*
%TO.C,D49*%
X165450000Y-99310000D03*
D13*
X165450000Y-91690000D03*
%TD*%
D16*
%TO.C,D28*%
X284500000Y-61810000D03*
D13*
X284500000Y-54190000D03*
%TD*%
D16*
%TO.C,D61*%
X255025000Y-118300000D03*
D13*
X255025000Y-110680000D03*
%TD*%
D16*
%TO.C,D64*%
X323000000Y-117000000D03*
D13*
X323000000Y-109380000D03*
%TD*%
D16*
%TO.C,D18*%
X94000000Y-61810000D03*
D13*
X94000000Y-54190000D03*
%TD*%
D16*
%TO.C,D47*%
X127350000Y-99310000D03*
D13*
X127350000Y-91690000D03*
%TD*%
D16*
%TO.C,D58*%
X91500000Y-118310000D03*
D13*
X91500000Y-110690000D03*
%TD*%
D16*
%TO.C,D26*%
X246400000Y-61810000D03*
D13*
X246400000Y-54190000D03*
%TD*%
D16*
%TO.C,D41*%
X250900000Y-80310000D03*
D13*
X250900000Y-72690000D03*
%TD*%
D16*
%TO.C,D54*%
X279500000Y-98310000D03*
D13*
X279500000Y-90690000D03*
%TD*%
D16*
%TO.C,D1*%
X46000000Y-41810000D03*
D13*
X46000000Y-34190000D03*
%TD*%
D16*
%TO.C,D29*%
X308312500Y-61810000D03*
D13*
X308312500Y-54190000D03*
%TD*%
D16*
%TO.C,D9*%
X198900000Y-42100000D03*
D13*
X198900000Y-34480000D03*
%TD*%
D16*
%TO.C,D56*%
X49000000Y-118500000D03*
D13*
X49000000Y-110880000D03*
%TD*%
D16*
%TO.C,D39*%
X212800000Y-80310000D03*
D13*
X212800000Y-72690000D03*
%TD*%
D16*
%TO.C,D36*%
X155650000Y-80310000D03*
D13*
X155650000Y-72690000D03*
%TD*%
D16*
%TO.C,D15*%
X356500000Y-36310000D03*
D13*
X356500000Y-28690000D03*
%TD*%
D16*
%TO.C,D27*%
X265450000Y-61810000D03*
D13*
X265450000Y-54190000D03*
%TD*%
D16*
%TO.C,D23*%
X189250000Y-61810000D03*
D13*
X189250000Y-54190000D03*
%TD*%
D16*
%TO.C,D32*%
X79500000Y-79810000D03*
D13*
X79500000Y-72190000D03*
%TD*%
D16*
%TO.C,D44*%
X58500000Y-99250000D03*
D13*
X58500000Y-91630000D03*
%TD*%
D16*
%TO.C,D40*%
X231850000Y-80310000D03*
D13*
X231850000Y-72690000D03*
%TD*%
D16*
%TO.C,D7*%
X160800000Y-42100000D03*
D13*
X160800000Y-34480000D03*
%TD*%
D16*
%TO.C,D31*%
X53500000Y-80200000D03*
D13*
X53500000Y-72580000D03*
%TD*%
D16*
%TO.C,D25*%
X227350000Y-61810000D03*
D13*
X227350000Y-54190000D03*
%TD*%
D16*
%TO.C,D62*%
X282000000Y-117310000D03*
D13*
X282000000Y-109690000D03*
%TD*%
D16*
%TO.C,D4*%
X103650000Y-42100000D03*
D13*
X103650000Y-34480000D03*
%TD*%
D16*
%TO.C,D10*%
X217950000Y-42100000D03*
D13*
X217950000Y-34480000D03*
%TD*%
D16*
%TO.C,D65*%
X341500000Y-118310000D03*
D13*
X341500000Y-110690000D03*
%TD*%
D16*
%TO.C,D14*%
X306000000Y-41810000D03*
D13*
X306000000Y-34190000D03*
%TD*%
M02*
