%TF.GenerationSoftware,KiCad,Pcbnew,9.0.6*%
%TF.CreationDate,2026-07-27T12:56:26+05:30*%
%TF.ProjectId,custom-keeboard,63757374-6f6d-42d6-9b65-65626f617264,rev?*%
%TF.SameCoordinates,Original*%
%TF.FileFunction,Copper,L1,Top*%
%TF.FilePolarity,Positive*%
%FSLAX46Y46*%
G04 Gerber Fmt 4.6, Leading zero omitted, Abs format (unit mm)*
G04 Created by KiCad (PCBNEW 9.0.6) date 2026-07-27 12:56:26*
%MOMM*%
%LPD*%
G01*
G04 APERTURE LIST*
G04 Aperture macros list*
%AMRoundRect*
0 Rectangle with rounded corners*
0 $1 Rounding radius*
0 $2 $3 $4 $5 $6 $7 $8 $9 X,Y pos of 4 corners*
0 Add a 4 corners polygon primitive as box body*
4,1,4,$2,$3,$4,$5,$6,$7,$8,$9,$2,$3,0*
0 Add four circle primitives for the rounded corners*
1,1,$1+$1,$2,$3*
1,1,$1+$1,$4,$5*
1,1,$1+$1,$6,$7*
1,1,$1+$1,$8,$9*
0 Add four rect primitives between the rounded corners*
20,1,$1+$1,$2,$3,$4,$5,0*
20,1,$1+$1,$4,$5,$6,$7,0*
20,1,$1+$1,$6,$7,$8,$9,0*
20,1,$1+$1,$8,$9,$2,$3,0*%
%AMFreePoly0*
4,1,37,0.603843,0.796157,0.639018,0.796157,0.711114,0.766294,0.766294,0.711114,0.796157,0.639018,0.796157,0.603843,0.800000,0.600000,0.800000,-0.600000,0.796157,-0.603843,0.796157,-0.639018,0.766294,-0.711114,0.711114,-0.766294,0.639018,-0.796157,0.603843,-0.796157,0.600000,-0.800000,0.000000,-0.800000,0.000000,-0.796148,-0.078414,-0.796148,-0.232228,-0.765552,-0.377117,-0.705537,
-0.507515,-0.618408,-0.618408,-0.507515,-0.705537,-0.377117,-0.765552,-0.232228,-0.796148,-0.078414,-0.796148,0.078414,-0.765552,0.232228,-0.705537,0.377117,-0.618408,0.507515,-0.507515,0.618408,-0.377117,0.705537,-0.232228,0.765552,-0.078414,0.796148,0.000000,0.796148,0.000000,0.800000,0.600000,0.800000,0.603843,0.796157,0.603843,0.796157,$1*%
%AMFreePoly1*
4,1,37,0.000000,0.796148,0.078414,0.796148,0.232228,0.765552,0.377117,0.705537,0.507515,0.618408,0.618408,0.507515,0.705537,0.377117,0.765552,0.232228,0.796148,0.078414,0.796148,-0.078414,0.765552,-0.232228,0.705537,-0.377117,0.618408,-0.507515,0.507515,-0.618408,0.377117,-0.705537,0.232228,-0.765552,0.078414,-0.796148,0.000000,-0.796148,0.000000,-0.800000,-0.600000,-0.800000,
-0.603843,-0.796157,-0.639018,-0.796157,-0.711114,-0.766294,-0.766294,-0.711114,-0.796157,-0.639018,-0.796157,-0.603843,-0.800000,-0.600000,-0.800000,0.600000,-0.796157,0.603843,-0.796157,0.639018,-0.766294,0.711114,-0.711114,0.766294,-0.639018,0.796157,-0.603843,0.796157,-0.600000,0.800000,0.000000,0.800000,0.000000,0.796148,0.000000,0.796148,$1*%
G04 Aperture macros list end*
%TA.AperFunction,ComponentPad*%
%ADD10C,2.300000*%
%TD*%
%TA.AperFunction,ComponentPad*%
%ADD11C,4.000000*%
%TD*%
%TA.AperFunction,ComponentPad*%
%ADD12RoundRect,0.200000X-0.600000X-0.600000X0.600000X-0.600000X0.600000X0.600000X-0.600000X0.600000X0*%
%TD*%
%TA.AperFunction,ComponentPad*%
%ADD13C,1.600000*%
%TD*%
%TA.AperFunction,ComponentPad*%
%ADD14FreePoly0,0.000000*%
%TD*%
%TA.AperFunction,ComponentPad*%
%ADD15FreePoly1,0.000000*%
%TD*%
%TA.AperFunction,ComponentPad*%
%ADD16RoundRect,0.250000X0.550000X-0.550000X0.550000X0.550000X-0.550000X0.550000X-0.550000X-0.550000X0*%
%TD*%
%TA.AperFunction,Conductor*%
%ADD17C,0.200000*%
%TD*%
G04 APERTURE END LIST*
D10*
%TO.P,SW5,1,1*%
%TO.N,/COL4*%
X110490000Y-35560000D03*
%TO.P,SW5,2,2*%
%TO.N,Net-(D5-A)*%
X116840000Y-33020000D03*
%TD*%
%TO.P,SW65,1,1*%
%TO.N,/COL16*%
X329770000Y-111960000D03*
%TO.P,SW65,2,2*%
%TO.N,Net-(D65-A)*%
X336120000Y-109420000D03*
%TD*%
%TO.P,SW63,1,1*%
%TO.N,/COL14*%
X291690000Y-111960000D03*
%TO.P,SW63,2,2*%
%TO.N,Net-(D63-A)*%
X298040000Y-109420000D03*
%TD*%
%TO.P,SW8,1,1*%
%TO.N,/COL7*%
X167640000Y-35560000D03*
%TO.P,SW8,2,2*%
%TO.N,Net-(D8-A)*%
X173990000Y-33020000D03*
%TD*%
%TO.P,SW19,1,1*%
%TO.N,/COL3*%
X100965000Y-54610000D03*
%TO.P,SW19,2,2*%
%TO.N,Net-(D19-A)*%
X107315000Y-52070000D03*
%TD*%
%TO.P,SW40,1,1*%
%TO.N,/COL9*%
X220027500Y-73660000D03*
%TO.P,SW40,2,2*%
%TO.N,Net-(D40-A)*%
X226377500Y-71120000D03*
%TD*%
D11*
%TO.P,S4,*%
%TO.N,*%
X104993750Y-107515000D03*
X205006250Y-107515000D03*
%TD*%
D10*
%TO.P,SW38,1,1*%
%TO.N,/COL7*%
X181927500Y-73660000D03*
%TO.P,SW38,2,2*%
%TO.N,Net-(D38-A)*%
X188277500Y-71120000D03*
%TD*%
%TO.P,SW32,1,1*%
%TO.N,/COL1*%
X67627500Y-73660000D03*
%TO.P,SW32,2,2*%
%TO.N,Net-(D32-A)*%
X73977500Y-71120000D03*
%TD*%
%TO.P,SW13,1,1*%
%TO.N,/COL12*%
X262890000Y-35560000D03*
%TO.P,SW13,2,2*%
%TO.N,Net-(D13-A)*%
X269240000Y-33020000D03*
%TD*%
%TO.P,SW3,1,1*%
%TO.N,/COL2*%
X72390000Y-35560000D03*
%TO.P,SW3,2,2*%
%TO.N,Net-(D3-A)*%
X78740000Y-33020000D03*
%TD*%
%TO.P,SW55,1,1*%
%TO.N,/COL15*%
X310515000Y-92710000D03*
%TO.P,SW55,2,2*%
%TO.N,Net-(D55-A)*%
X316865000Y-90170000D03*
%TD*%
%TO.P,SW64,1,1*%
%TO.N,/COL15*%
X310690000Y-111960000D03*
%TO.P,SW64,2,2*%
%TO.N,Net-(D64-A)*%
X317040000Y-109420000D03*
%TD*%
%TO.P,SW23,1,1*%
%TO.N,/COL7*%
X177165000Y-54610000D03*
%TO.P,SW23,2,2*%
%TO.N,Net-(D23-A)*%
X183515000Y-52070000D03*
%TD*%
%TO.P,SW9,1,1*%
%TO.N,/COL8*%
X186690000Y-35560000D03*
%TO.P,SW9,2,2*%
%TO.N,Net-(D9-A)*%
X193040000Y-33020000D03*
%TD*%
%TO.P,SW10,1,1*%
%TO.N,/COL9*%
X205740000Y-35560000D03*
%TO.P,SW10,2,2*%
%TO.N,Net-(D10-A)*%
X212090000Y-33020000D03*
%TD*%
%TO.P,SW33,1,1*%
%TO.N,/COL2*%
X86677500Y-73660000D03*
%TO.P,SW33,2,2*%
%TO.N,Net-(D33-A)*%
X93027500Y-71120000D03*
%TD*%
%TO.P,SW26,1,1*%
%TO.N,/COL10*%
X234315000Y-54610000D03*
%TO.P,SW26,2,2*%
%TO.N,Net-(D26-A)*%
X240665000Y-52070000D03*
%TD*%
%TO.P,SW29,1,1*%
%TO.N,/COL13*%
X296227500Y-54610000D03*
%TO.P,SW29,2,2*%
%TO.N,Net-(D29-A)*%
X302577500Y-52070000D03*
%TD*%
%TO.P,SW14,1,1*%
%TO.N,/COL13*%
X291465000Y-35560000D03*
%TO.P,SW14,2,2*%
%TO.N,Net-(D14-A)*%
X297815000Y-33020000D03*
%TD*%
%TO.P,SW18,1,1*%
%TO.N,/COL2*%
X81915000Y-54610000D03*
%TO.P,SW18,2,2*%
%TO.N,Net-(D18-A)*%
X88265000Y-52070000D03*
%TD*%
%TO.P,SW16,1,1*%
%TO.N,/COL0*%
X39052500Y-54610000D03*
%TO.P,SW16,2,2*%
%TO.N,Net-(D16-A)*%
X45402500Y-52070000D03*
%TD*%
%TO.P,SW52,1,1*%
%TO.N,/COL8*%
X210485000Y-92710000D03*
%TO.P,SW52,2,2*%
%TO.N,Net-(D52-A)*%
X216835000Y-90170000D03*
%TD*%
D11*
%TO.P,S2,*%
%TO.N,*%
X259645000Y-88575000D03*
X283457500Y-88575000D03*
%TD*%
D10*
%TO.P,SW24,1,1*%
%TO.N,/COL8*%
X196215000Y-54610000D03*
%TO.P,SW24,2,2*%
%TO.N,Net-(D24-A)*%
X202565000Y-52070000D03*
%TD*%
%TO.P,SW47,1,1*%
%TO.N,/COL3*%
X115235000Y-92710000D03*
%TO.P,SW47,2,2*%
%TO.N,Net-(D47-A)*%
X121585000Y-90170000D03*
%TD*%
%TO.P,SW2,1,1*%
%TO.N,/COL1*%
X53340000Y-35560000D03*
%TO.P,SW2,2,2*%
%TO.N,Net-(D2-A)*%
X59690000Y-33020000D03*
%TD*%
%TO.P,SW35,1,1*%
%TO.N,/COL4*%
X124777500Y-73660000D03*
%TO.P,SW35,2,2*%
%TO.N,Net-(D35-A)*%
X131127500Y-71120000D03*
%TD*%
D12*
%TO.P,A1,1,GPIO0*%
%TO.N,unconnected-(A1-GPIO0-Pad1)*%
X315220000Y-19960000D03*
D13*
%TO.P,A1,2,GPIO1*%
%TO.N,/ROW1*%
X315220000Y-22500000D03*
D14*
%TO.P,A1,3,GND*%
%TO.N,Net-(A1-GND-Pad13)*%
X315220000Y-25040000D03*
D13*
%TO.P,A1,4,GPIO2*%
%TO.N,/ROW2*%
X315220000Y-27580000D03*
%TO.P,A1,5,GPIO3*%
%TO.N,/ROW3*%
X315220000Y-30120000D03*
%TO.P,A1,6,GPIO4*%
%TO.N,/COL13*%
X315220000Y-32660000D03*
%TO.P,A1,7,GPIO5*%
%TO.N,/ROW5*%
X315220000Y-35200000D03*
D14*
%TO.P,A1,8,GND*%
%TO.N,Net-(A1-GND-Pad13)*%
X315220000Y-37740000D03*
D13*
%TO.P,A1,9,GPIO6*%
%TO.N,/COL0*%
X315220000Y-40280000D03*
%TO.P,A1,10,GPIO7*%
%TO.N,/COL1*%
X315220000Y-42820000D03*
%TO.P,A1,11,GPIO8*%
%TO.N,/COL2*%
X315220000Y-45360000D03*
%TO.P,A1,12,GPIO9*%
%TO.N,/COL3*%
X315220000Y-47900000D03*
D14*
%TO.P,A1,13,GND*%
%TO.N,Net-(A1-GND-Pad13)*%
X315220000Y-50440000D03*
D13*
%TO.P,A1,14,GPIO10*%
%TO.N,/COL4*%
X315220000Y-52980000D03*
%TO.P,A1,15,GPIO11*%
%TO.N,/COL5*%
X315220000Y-55520000D03*
%TO.P,A1,16,GPIO12*%
%TO.N,/COL6*%
X315220000Y-58060000D03*
%TO.P,A1,17,GPIO13*%
%TO.N,/COL7*%
X315220000Y-60600000D03*
D14*
%TO.P,A1,18,GND*%
%TO.N,Net-(A1-GND-Pad13)*%
X315220000Y-63140000D03*
D13*
%TO.P,A1,19,GPIO14*%
%TO.N,/COL8*%
X315220000Y-65680000D03*
%TO.P,A1,20,GPIO15*%
%TO.N,/COL9*%
X315220000Y-68220000D03*
%TO.P,A1,21,GPIO16*%
%TO.N,/COL10*%
X333000000Y-68220000D03*
%TO.P,A1,22,GPIO17*%
%TO.N,/COL11*%
X333000000Y-65680000D03*
D15*
%TO.P,A1,23,GND*%
%TO.N,Net-(A1-GND-Pad13)*%
X333000000Y-63140000D03*
D13*
%TO.P,A1,24,GPIO18*%
%TO.N,/COL12*%
X333000000Y-60600000D03*
%TO.P,A1,25,GPIO19*%
%TO.N,/COL13*%
X333000000Y-58060000D03*
%TO.P,A1,26,GPIO20*%
%TO.N,/COL14*%
X333000000Y-55520000D03*
%TO.P,A1,27,GPIO21*%
%TO.N,/COL15*%
X333000000Y-52980000D03*
D15*
%TO.P,A1,28,GND*%
%TO.N,Net-(A1-GND-Pad13)*%
X333000000Y-50440000D03*
D13*
%TO.P,A1,29,GPIO22*%
%TO.N,/COL16*%
X333000000Y-47900000D03*
%TO.P,A1,30,RUN*%
%TO.N,unconnected-(A1-RUN-Pad30)*%
X333000000Y-45360000D03*
%TO.P,A1,31,GPIO26_ADC0*%
%TO.N,unconnected-(A1-GPIO26_ADC0-Pad31)*%
X333000000Y-42820000D03*
%TO.P,A1,32,GPIO27_ADC1*%
%TO.N,unconnected-(A1-GPIO27_ADC1-Pad32)*%
X333000000Y-40280000D03*
D15*
%TO.P,A1,33,AGND*%
%TO.N,unconnected-(A1-AGND-Pad33)*%
X333000000Y-37740000D03*
D13*
%TO.P,A1,34,GPIO28_ADC2*%
%TO.N,unconnected-(A1-GPIO28_ADC2-Pad34)*%
X333000000Y-35200000D03*
%TO.P,A1,35,ADC_VREF*%
%TO.N,unconnected-(A1-ADC_VREF-Pad35)*%
X333000000Y-32660000D03*
%TO.P,A1,36,3V3*%
%TO.N,unconnected-(A1-3V3-Pad36)*%
X333000000Y-30120000D03*
%TO.P,A1,37,3V3_EN*%
%TO.N,unconnected-(A1-3V3_EN-Pad37)*%
X333000000Y-27580000D03*
D15*
%TO.P,A1,38,GND*%
%TO.N,Net-(A1-GND-Pad13)*%
X333000000Y-25040000D03*
D13*
%TO.P,A1,39,VSYS*%
%TO.N,unconnected-(A1-VSYS-Pad39)*%
X333000000Y-22500000D03*
%TO.P,A1,40,VBUS*%
%TO.N,unconnected-(A1-VBUS-Pad40)*%
X333000000Y-19960000D03*
%TD*%
D10*
%TO.P,SW60,1,1*%
%TO.N,/COL11*%
X222110000Y-111960000D03*
%TO.P,SW60,2,2*%
%TO.N,Net-(D60-A)*%
X228460000Y-109420000D03*
%TD*%
%TO.P,SW51,1,1*%
%TO.N,/COL7*%
X191435000Y-92710000D03*
%TO.P,SW51,2,2*%
%TO.N,Net-(D51-A)*%
X197785000Y-90170000D03*
%TD*%
%TO.P,SW6,1,1*%
%TO.N,/COL5*%
X129540000Y-35560000D03*
%TO.P,SW6,2,2*%
%TO.N,Net-(D6-A)*%
X135890000Y-33020000D03*
%TD*%
%TO.P,SW36,1,1*%
%TO.N,/COL5*%
X143827500Y-73660000D03*
%TO.P,SW36,2,2*%
%TO.N,Net-(D36-A)*%
X150177500Y-71120000D03*
%TD*%
%TO.P,SW21,1,1*%
%TO.N,/COL5*%
X139065000Y-54610000D03*
%TO.P,SW21,2,2*%
%TO.N,Net-(D21-A)*%
X145415000Y-52070000D03*
%TD*%
D11*
%TO.P,S3,*%
%TO.N,*%
X38093750Y-88260000D03*
X61906250Y-88260000D03*
%TD*%
D10*
%TO.P,SW1,1,1*%
%TO.N,/COL0*%
X34290000Y-35560000D03*
%TO.P,SW1,2,2*%
%TO.N,Net-(D1-A)*%
X40640000Y-33020000D03*
%TD*%
%TO.P,SW12,1,1*%
%TO.N,/COL11*%
X243840000Y-35560000D03*
%TO.P,SW12,2,2*%
%TO.N,Net-(D12-A)*%
X250190000Y-33020000D03*
%TD*%
%TO.P,SW49,1,1*%
%TO.N,/COL5*%
X153335000Y-92710000D03*
%TO.P,SW49,2,2*%
%TO.N,Net-(D49-A)*%
X159685000Y-90170000D03*
%TD*%
%TO.P,SW15,1,1*%
%TO.N,/COL15*%
X344610000Y-29220000D03*
%TO.P,SW15,2,2*%
%TO.N,Net-(D15-A)*%
X350960000Y-26680000D03*
%TD*%
%TO.P,SW41,1,1*%
%TO.N,/COL10*%
X239077500Y-73660000D03*
%TO.P,SW41,2,2*%
%TO.N,Net-(D41-A)*%
X245427500Y-71120000D03*
%TD*%
%TO.P,SW57,1,1*%
%TO.N,/COL1*%
X57270000Y-111960000D03*
%TO.P,SW57,2,2*%
%TO.N,Net-(D57-A)*%
X63620000Y-109420000D03*
%TD*%
%TO.P,SW53,1,1*%
%TO.N,/COL9*%
X229535000Y-92710000D03*
%TO.P,SW53,2,2*%
%TO.N,Net-(D53-A)*%
X235885000Y-90170000D03*
%TD*%
%TO.P,SW37,1,1*%
%TO.N,/COL6*%
X162877500Y-73660000D03*
%TO.P,SW37,2,2*%
%TO.N,Net-(D37-A)*%
X169227500Y-71120000D03*
%TD*%
%TO.P,SW42,1,1*%
%TO.N,/COL11*%
X258127500Y-73660000D03*
%TO.P,SW42,2,2*%
%TO.N,Net-(D42-A)*%
X264477500Y-71120000D03*
%TD*%
%TO.P,SW58,1,1*%
%TO.N,/COL2*%
X79690000Y-111960000D03*
%TO.P,SW58,2,2*%
%TO.N,Net-(D58-A)*%
X86040000Y-109420000D03*
%TD*%
%TO.P,SW27,1,1*%
%TO.N,/COL11*%
X253365000Y-54610000D03*
%TO.P,SW27,2,2*%
%TO.N,Net-(D27-A)*%
X259715000Y-52070000D03*
%TD*%
%TO.P,SW43,1,1*%
%TO.N,/COL12*%
X289083750Y-73660000D03*
%TO.P,SW43,2,2*%
%TO.N,Net-(D43-A)*%
X295433750Y-71120000D03*
%TD*%
%TO.P,SW46,1,1*%
%TO.N,/COL2*%
X96185000Y-92710000D03*
%TO.P,SW46,2,2*%
%TO.N,Net-(D46-A)*%
X102535000Y-90170000D03*
%TD*%
%TO.P,SW56,1,1*%
%TO.N,/COL0*%
X36690000Y-111960000D03*
%TO.P,SW56,2,2*%
%TO.N,Net-(D56-A)*%
X43040000Y-109420000D03*
%TD*%
%TO.P,SW11,1,1*%
%TO.N,/COL10*%
X224790000Y-35560000D03*
%TO.P,SW11,2,2*%
%TO.N,Net-(D11-A)*%
X231140000Y-33020000D03*
%TD*%
%TO.P,SW45,1,1*%
%TO.N,/COL1*%
X77135000Y-92710000D03*
%TO.P,SW45,2,2*%
%TO.N,Net-(D45-A)*%
X83485000Y-90170000D03*
%TD*%
%TO.P,SW44,1,1*%
%TO.N,/COL0*%
X46190000Y-92710000D03*
%TO.P,SW44,2,2*%
%TO.N,Net-(D44-A)*%
X52540000Y-90170000D03*
%TD*%
%TO.P,SW22,1,1*%
%TO.N,/COL6*%
X158115000Y-54610000D03*
%TO.P,SW22,2,2*%
%TO.N,Net-(D22-A)*%
X164465000Y-52070000D03*
%TD*%
%TO.P,SW7,1,1*%
%TO.N,/COL6*%
X148590000Y-35560000D03*
%TO.P,SW7,2,2*%
%TO.N,Net-(D7-A)*%
X154940000Y-33020000D03*
%TD*%
%TO.P,SW31,1,1*%
%TO.N,/COL0*%
X41433750Y-73660000D03*
%TO.P,SW31,2,2*%
%TO.N,Net-(D31-A)*%
X47783750Y-71120000D03*
%TD*%
%TO.P,SW59,1,1*%
%TO.N,/COL5*%
X151270000Y-111760000D03*
%TO.P,SW59,2,2*%
%TO.N,Net-(D59-A)*%
X157620000Y-109220000D03*
%TD*%
%TO.P,SW54,1,1*%
%TO.N,/COL10*%
X267610000Y-92770000D03*
%TO.P,SW54,2,2*%
%TO.N,Net-(D54-A)*%
X273960000Y-90230000D03*
%TD*%
%TO.P,SW20,1,1*%
%TO.N,/COL4*%
X120015000Y-54610000D03*
%TO.P,SW20,2,2*%
%TO.N,Net-(D20-A)*%
X126365000Y-52070000D03*
%TD*%
%TO.P,SW34,1,1*%
%TO.N,/COL3*%
X105727500Y-73660000D03*
%TO.P,SW34,2,2*%
%TO.N,Net-(D34-A)*%
X112077500Y-71120000D03*
%TD*%
%TO.P,SW61,1,1*%
%TO.N,/COL12*%
X246135000Y-111760000D03*
%TO.P,SW61,2,2*%
%TO.N,Net-(D61-A)*%
X252485000Y-109220000D03*
%TD*%
%TO.P,SW25,1,1*%
%TO.N,/COL9*%
X215265000Y-54610000D03*
%TO.P,SW25,2,2*%
%TO.N,Net-(D25-A)*%
X221615000Y-52070000D03*
%TD*%
%TO.P,SW17,1,1*%
%TO.N,/COL1*%
X62865000Y-54610000D03*
%TO.P,SW17,2,2*%
%TO.N,Net-(D17-A)*%
X69215000Y-52070000D03*
%TD*%
%TO.P,SW62,1,1*%
%TO.N,/COL13*%
X269770000Y-111960000D03*
%TO.P,SW62,2,2*%
%TO.N,Net-(D62-A)*%
X276120000Y-109420000D03*
%TD*%
%TO.P,SW48,1,1*%
%TO.N,/COL4*%
X134285000Y-92710000D03*
%TO.P,SW48,2,2*%
%TO.N,Net-(D48-A)*%
X140635000Y-90170000D03*
%TD*%
%TO.P,SW50,1,1*%
%TO.N,/COL6*%
X172385000Y-92710000D03*
%TO.P,SW50,2,2*%
%TO.N,Net-(D50-A)*%
X178735000Y-90170000D03*
%TD*%
%TO.P,SW4,1,1*%
%TO.N,/COL3*%
X91440000Y-35560000D03*
%TO.P,SW4,2,2*%
%TO.N,Net-(D4-A)*%
X97790000Y-33020000D03*
%TD*%
%TO.P,SW39,1,1*%
%TO.N,/COL8*%
X200977500Y-73660000D03*
%TO.P,SW39,2,2*%
%TO.N,Net-(D39-A)*%
X207327500Y-71120000D03*
%TD*%
%TO.P,SW28,1,1*%
%TO.N,/COL12*%
X272415000Y-54610000D03*
%TO.P,SW28,2,2*%
%TO.N,Net-(D28-A)*%
X278765000Y-52070000D03*
%TD*%
D11*
%TO.P,S1,*%
%TO.N,*%
X281187500Y-69260000D03*
X305000000Y-69260000D03*
%TD*%
D10*
%TO.P,SW30,1,1*%
%TO.N,/COL15*%
X344610000Y-48270000D03*
%TO.P,SW30,2,2*%
%TO.N,Net-(D30-A)*%
X350960000Y-45730000D03*
%TD*%
D16*
%TO.P,D13,1,K*%
%TO.N,/ROW1*%
X275000000Y-42310000D03*
D13*
%TO.P,D13,2,A*%
%TO.N,Net-(D13-A)*%
X275000000Y-34690000D03*
%TD*%
D16*
%TO.P,D5,1,K*%
%TO.N,/ROW1*%
X122700000Y-42100000D03*
D13*
%TO.P,D5,2,A*%
%TO.N,Net-(D5-A)*%
X122700000Y-34480000D03*
%TD*%
D16*
%TO.P,D6,1,K*%
%TO.N,/ROW1*%
X141750000Y-42100000D03*
D13*
%TO.P,D6,2,A*%
%TO.N,Net-(D6-A)*%
X141750000Y-34480000D03*
%TD*%
D16*
%TO.P,D38,1,K*%
%TO.N,/ROW3*%
X193750000Y-80310000D03*
D13*
%TO.P,D38,2,A*%
%TO.N,Net-(D38-A)*%
X193750000Y-72690000D03*
%TD*%
D16*
%TO.P,D20,1,K*%
%TO.N,/ROW2*%
X132100000Y-61810000D03*
D13*
%TO.P,D20,2,A*%
%TO.N,Net-(D20-A)*%
X132100000Y-54190000D03*
%TD*%
D16*
%TO.P,D45,1,K*%
%TO.N,/COL13*%
X89250000Y-99310000D03*
D13*
%TO.P,D45,2,A*%
%TO.N,Net-(D45-A)*%
X89250000Y-91690000D03*
%TD*%
D16*
%TO.P,D60,1,K*%
%TO.N,/ROW5*%
X234000000Y-117810000D03*
D13*
%TO.P,D60,2,A*%
%TO.N,Net-(D60-A)*%
X234000000Y-110190000D03*
%TD*%
D16*
%TO.P,D51,1,K*%
%TO.N,/COL13*%
X203550000Y-99310000D03*
D13*
%TO.P,D51,2,A*%
%TO.N,Net-(D51-A)*%
X203550000Y-91690000D03*
%TD*%
D16*
%TO.P,D21,1,K*%
%TO.N,/ROW2*%
X151150000Y-61810000D03*
D13*
%TO.P,D21,2,A*%
%TO.N,Net-(D21-A)*%
X151150000Y-54190000D03*
%TD*%
D16*
%TO.P,D3,1,K*%
%TO.N,/ROW1*%
X84600000Y-42100000D03*
D13*
%TO.P,D3,2,A*%
%TO.N,Net-(D3-A)*%
X84600000Y-34480000D03*
%TD*%
D16*
%TO.P,D34,1,K*%
%TO.N,/ROW3*%
X117550000Y-80310000D03*
D13*
%TO.P,D34,2,A*%
%TO.N,Net-(D34-A)*%
X117550000Y-72690000D03*
%TD*%
D16*
%TO.P,D33,1,K*%
%TO.N,/ROW3*%
X98500000Y-80310000D03*
D13*
%TO.P,D33,2,A*%
%TO.N,Net-(D33-A)*%
X98500000Y-72690000D03*
%TD*%
D16*
%TO.P,D52,1,K*%
%TO.N,/COL13*%
X222600000Y-99310000D03*
D13*
%TO.P,D52,2,A*%
%TO.N,Net-(D52-A)*%
X222600000Y-91690000D03*
%TD*%
D16*
%TO.P,D46,1,K*%
%TO.N,/COL13*%
X108300000Y-99310000D03*
D13*
%TO.P,D46,2,A*%
%TO.N,Net-(D46-A)*%
X108300000Y-91690000D03*
%TD*%
D16*
%TO.P,D37,1,K*%
%TO.N,/ROW3*%
X174700000Y-80310000D03*
D13*
%TO.P,D37,2,A*%
%TO.N,Net-(D37-A)*%
X174700000Y-72690000D03*
%TD*%
D16*
%TO.P,D11,1,K*%
%TO.N,/ROW1*%
X237000000Y-42100000D03*
D13*
%TO.P,D11,2,A*%
%TO.N,Net-(D11-A)*%
X237000000Y-34480000D03*
%TD*%
D16*
%TO.P,D8,1,K*%
%TO.N,/ROW1*%
X179850000Y-42100000D03*
D13*
%TO.P,D8,2,A*%
%TO.N,Net-(D8-A)*%
X179850000Y-34480000D03*
%TD*%
D16*
%TO.P,D30,1,K*%
%TO.N,/ROW2*%
X356500000Y-54810000D03*
D13*
%TO.P,D30,2,A*%
%TO.N,Net-(D30-A)*%
X356500000Y-47190000D03*
%TD*%
D16*
%TO.P,D55,1,K*%
%TO.N,/COL13*%
X322500000Y-98810000D03*
D13*
%TO.P,D55,2,A*%
%TO.N,Net-(D55-A)*%
X322500000Y-91190000D03*
%TD*%
D16*
%TO.P,D35,1,K*%
%TO.N,/ROW3*%
X136600000Y-80310000D03*
D13*
%TO.P,D35,2,A*%
%TO.N,Net-(D35-A)*%
X136600000Y-72690000D03*
%TD*%
D16*
%TO.P,D22,1,K*%
%TO.N,/ROW2*%
X170200000Y-61810000D03*
D13*
%TO.P,D22,2,A*%
%TO.N,Net-(D22-A)*%
X170200000Y-54190000D03*
%TD*%
D16*
%TO.P,D17,1,K*%
%TO.N,/ROW2*%
X74950000Y-61810000D03*
D13*
%TO.P,D17,2,A*%
%TO.N,Net-(D17-A)*%
X74950000Y-54190000D03*
%TD*%
D16*
%TO.P,D19,1,K*%
%TO.N,/ROW2*%
X113050000Y-61810000D03*
D13*
%TO.P,D19,2,A*%
%TO.N,Net-(D19-A)*%
X113050000Y-54190000D03*
%TD*%
D16*
%TO.P,D2,1,K*%
%TO.N,/ROW1*%
X65550000Y-42100000D03*
D13*
%TO.P,D2,2,A*%
%TO.N,Net-(D2-A)*%
X65550000Y-34480000D03*
%TD*%
D16*
%TO.P,D12,1,K*%
%TO.N,/ROW1*%
X256050000Y-42100000D03*
D13*
%TO.P,D12,2,A*%
%TO.N,Net-(D12-A)*%
X256050000Y-34480000D03*
%TD*%
D16*
%TO.P,D59,1,K*%
%TO.N,/ROW5*%
X163500000Y-117810000D03*
D13*
%TO.P,D59,2,A*%
%TO.N,Net-(D59-A)*%
X163500000Y-110190000D03*
%TD*%
D16*
%TO.P,D42,1,K*%
%TO.N,/ROW3*%
X269950000Y-80310000D03*
D13*
%TO.P,D42,2,A*%
%TO.N,Net-(D42-A)*%
X269950000Y-72690000D03*
%TD*%
D16*
%TO.P,D48,1,K*%
%TO.N,/COL13*%
X146400000Y-99310000D03*
D13*
%TO.P,D48,2,A*%
%TO.N,Net-(D48-A)*%
X146400000Y-91690000D03*
%TD*%
D16*
%TO.P,D16,1,K*%
%TO.N,/ROW2*%
X51137500Y-61810000D03*
D13*
%TO.P,D16,2,A*%
%TO.N,Net-(D16-A)*%
X51137500Y-54190000D03*
%TD*%
D16*
%TO.P,D43,1,K*%
%TO.N,/ROW3*%
X301500000Y-79810000D03*
D13*
%TO.P,D43,2,A*%
%TO.N,Net-(D43-A)*%
X301500000Y-72190000D03*
%TD*%
D16*
%TO.P,D57,1,K*%
%TO.N,/ROW5*%
X69000000Y-117310000D03*
D13*
%TO.P,D57,2,A*%
%TO.N,Net-(D57-A)*%
X69000000Y-109690000D03*
%TD*%
D16*
%TO.P,D53,1,K*%
%TO.N,/COL13*%
X241650000Y-99310000D03*
D13*
%TO.P,D53,2,A*%
%TO.N,Net-(D53-A)*%
X241650000Y-91690000D03*
%TD*%
D16*
%TO.P,D24,1,K*%
%TO.N,/ROW2*%
X208300000Y-61810000D03*
D13*
%TO.P,D24,2,A*%
%TO.N,Net-(D24-A)*%
X208300000Y-54190000D03*
%TD*%
D16*
%TO.P,D50,1,K*%
%TO.N,/COL13*%
X184500000Y-99310000D03*
D13*
%TO.P,D50,2,A*%
%TO.N,Net-(D50-A)*%
X184500000Y-91690000D03*
%TD*%
D16*
%TO.P,D63,1,K*%
%TO.N,/ROW5*%
X303500000Y-118810000D03*
D13*
%TO.P,D63,2,A*%
%TO.N,Net-(D63-A)*%
X303500000Y-111190000D03*
%TD*%
D16*
%TO.P,D49,1,K*%
%TO.N,/COL13*%
X165450000Y-99310000D03*
D13*
%TO.P,D49,2,A*%
%TO.N,Net-(D49-A)*%
X165450000Y-91690000D03*
%TD*%
D16*
%TO.P,D28,1,K*%
%TO.N,/ROW2*%
X284500000Y-61810000D03*
D13*
%TO.P,D28,2,A*%
%TO.N,Net-(D28-A)*%
X284500000Y-54190000D03*
%TD*%
D16*
%TO.P,D61,1,K*%
%TO.N,/ROW5*%
X255025000Y-118300000D03*
D13*
%TO.P,D61,2,A*%
%TO.N,Net-(D61-A)*%
X255025000Y-110680000D03*
%TD*%
D16*
%TO.P,D64,1,K*%
%TO.N,/ROW5*%
X323000000Y-117000000D03*
D13*
%TO.P,D64,2,A*%
%TO.N,Net-(D64-A)*%
X323000000Y-109380000D03*
%TD*%
D16*
%TO.P,D18,1,K*%
%TO.N,/ROW2*%
X94000000Y-61810000D03*
D13*
%TO.P,D18,2,A*%
%TO.N,Net-(D18-A)*%
X94000000Y-54190000D03*
%TD*%
D16*
%TO.P,D47,1,K*%
%TO.N,/COL13*%
X127350000Y-99310000D03*
D13*
%TO.P,D47,2,A*%
%TO.N,Net-(D47-A)*%
X127350000Y-91690000D03*
%TD*%
D16*
%TO.P,D58,1,K*%
%TO.N,/ROW5*%
X91500000Y-118310000D03*
D13*
%TO.P,D58,2,A*%
%TO.N,Net-(D58-A)*%
X91500000Y-110690000D03*
%TD*%
D16*
%TO.P,D26,1,K*%
%TO.N,/ROW2*%
X246400000Y-61810000D03*
D13*
%TO.P,D26,2,A*%
%TO.N,Net-(D26-A)*%
X246400000Y-54190000D03*
%TD*%
D16*
%TO.P,D41,1,K*%
%TO.N,/ROW3*%
X250900000Y-80310000D03*
D13*
%TO.P,D41,2,A*%
%TO.N,Net-(D41-A)*%
X250900000Y-72690000D03*
%TD*%
D16*
%TO.P,D54,1,K*%
%TO.N,/COL13*%
X279500000Y-98310000D03*
D13*
%TO.P,D54,2,A*%
%TO.N,Net-(D54-A)*%
X279500000Y-90690000D03*
%TD*%
D16*
%TO.P,D1,1,K*%
%TO.N,/ROW1*%
X46000000Y-41810000D03*
D13*
%TO.P,D1,2,A*%
%TO.N,Net-(D1-A)*%
X46000000Y-34190000D03*
%TD*%
D16*
%TO.P,D29,1,K*%
%TO.N,/ROW2*%
X308312500Y-61810000D03*
D13*
%TO.P,D29,2,A*%
%TO.N,Net-(D29-A)*%
X308312500Y-54190000D03*
%TD*%
D16*
%TO.P,D9,1,K*%
%TO.N,/ROW1*%
X198900000Y-42100000D03*
D13*
%TO.P,D9,2,A*%
%TO.N,Net-(D9-A)*%
X198900000Y-34480000D03*
%TD*%
D16*
%TO.P,D56,1,K*%
%TO.N,/ROW5*%
X49000000Y-118500000D03*
D13*
%TO.P,D56,2,A*%
%TO.N,Net-(D56-A)*%
X49000000Y-110880000D03*
%TD*%
D16*
%TO.P,D39,1,K*%
%TO.N,/ROW3*%
X212800000Y-80310000D03*
D13*
%TO.P,D39,2,A*%
%TO.N,Net-(D39-A)*%
X212800000Y-72690000D03*
%TD*%
D16*
%TO.P,D36,1,K*%
%TO.N,/ROW3*%
X155650000Y-80310000D03*
D13*
%TO.P,D36,2,A*%
%TO.N,Net-(D36-A)*%
X155650000Y-72690000D03*
%TD*%
D16*
%TO.P,D15,1,K*%
%TO.N,/ROW1*%
X356500000Y-36310000D03*
D13*
%TO.P,D15,2,A*%
%TO.N,Net-(D15-A)*%
X356500000Y-28690000D03*
%TD*%
D16*
%TO.P,D27,1,K*%
%TO.N,/ROW2*%
X265450000Y-61810000D03*
D13*
%TO.P,D27,2,A*%
%TO.N,Net-(D27-A)*%
X265450000Y-54190000D03*
%TD*%
D16*
%TO.P,D23,1,K*%
%TO.N,/ROW2*%
X189250000Y-61810000D03*
D13*
%TO.P,D23,2,A*%
%TO.N,Net-(D23-A)*%
X189250000Y-54190000D03*
%TD*%
D16*
%TO.P,D32,1,K*%
%TO.N,/ROW3*%
X79500000Y-79810000D03*
D13*
%TO.P,D32,2,A*%
%TO.N,Net-(D32-A)*%
X79500000Y-72190000D03*
%TD*%
D16*
%TO.P,D44,1,K*%
%TO.N,/COL13*%
X58500000Y-99250000D03*
D13*
%TO.P,D44,2,A*%
%TO.N,Net-(D44-A)*%
X58500000Y-91630000D03*
%TD*%
D16*
%TO.P,D40,1,K*%
%TO.N,/ROW3*%
X231850000Y-80310000D03*
D13*
%TO.P,D40,2,A*%
%TO.N,Net-(D40-A)*%
X231850000Y-72690000D03*
%TD*%
D16*
%TO.P,D7,1,K*%
%TO.N,/ROW1*%
X160800000Y-42100000D03*
D13*
%TO.P,D7,2,A*%
%TO.N,Net-(D7-A)*%
X160800000Y-34480000D03*
%TD*%
D16*
%TO.P,D31,1,K*%
%TO.N,/ROW3*%
X53500000Y-80200000D03*
D13*
%TO.P,D31,2,A*%
%TO.N,Net-(D31-A)*%
X53500000Y-72580000D03*
%TD*%
D16*
%TO.P,D25,1,K*%
%TO.N,/ROW2*%
X227350000Y-61810000D03*
D13*
%TO.P,D25,2,A*%
%TO.N,Net-(D25-A)*%
X227350000Y-54190000D03*
%TD*%
D16*
%TO.P,D62,1,K*%
%TO.N,/ROW5*%
X282000000Y-117310000D03*
D13*
%TO.P,D62,2,A*%
%TO.N,Net-(D62-A)*%
X282000000Y-109690000D03*
%TD*%
D16*
%TO.P,D4,1,K*%
%TO.N,/ROW1*%
X103650000Y-42100000D03*
D13*
%TO.P,D4,2,A*%
%TO.N,Net-(D4-A)*%
X103650000Y-34480000D03*
%TD*%
D16*
%TO.P,D10,1,K*%
%TO.N,/ROW1*%
X217950000Y-42100000D03*
D13*
%TO.P,D10,2,A*%
%TO.N,Net-(D10-A)*%
X217950000Y-34480000D03*
%TD*%
D16*
%TO.P,D65,1,K*%
%TO.N,/ROW5*%
X341500000Y-118310000D03*
D13*
%TO.P,D65,2,A*%
%TO.N,Net-(D65-A)*%
X341500000Y-110690000D03*
%TD*%
D16*
%TO.P,D14,1,K*%
%TO.N,/ROW1*%
X306000000Y-41810000D03*
D13*
%TO.P,D14,2,A*%
%TO.N,Net-(D14-A)*%
X306000000Y-34190000D03*
%TD*%
D17*
%TO.N,/COL13*%
X293787000Y-23713000D02*
X300213000Y-23713000D01*
X300213000Y-23713000D02*
X300243300Y-23743300D01*
X291465000Y-26035000D02*
X293787000Y-23713000D01*
X302500000Y-61201300D02*
X308001700Y-66703000D01*
X308089000Y-25961300D02*
X308089000Y-43959700D01*
X299923500Y-53719811D02*
X302500000Y-56296311D01*
X311297000Y-71998300D02*
X313001700Y-73703000D01*
X313001700Y-73703000D02*
X336998300Y-73703000D01*
X300243300Y-23743300D02*
X305871000Y-23743300D01*
X302632700Y-49416000D02*
X301478176Y-49416000D01*
X291465000Y-35560000D02*
X291465000Y-26035000D01*
X310667800Y-66703000D02*
X311297000Y-67332200D01*
X305871000Y-23743300D02*
X308089000Y-25961300D01*
X308089000Y-43959700D02*
X302632700Y-49416000D01*
X308001700Y-66703000D02*
X310667800Y-66703000D01*
X299923500Y-50970676D02*
X299923500Y-53719811D01*
X311297000Y-67332200D02*
X311297000Y-71998300D01*
X301478176Y-49416000D02*
X299923500Y-50970676D01*
X302500000Y-56296311D02*
X302500000Y-61201300D01*
X336998300Y-73703000D02*
X338901000Y-71800300D01*
X338901000Y-71800300D02*
X338901000Y-61901000D01*
X338901000Y-61901000D02*
X335060000Y-58060000D01*
X335060000Y-58060000D02*
X333000000Y-58060000D01*
%TO.N,/COL12*%
X303099000Y-61233200D02*
X308167800Y-66302000D01*
X306006800Y-23312000D02*
X308490000Y-25795200D01*
X262890000Y-35560000D02*
X262890000Y-25610000D01*
X262890000Y-25610000D02*
X265188000Y-23312000D01*
X308490000Y-25795200D02*
X308490000Y-44125800D01*
X302798800Y-49817000D02*
X301644276Y-49817000D01*
X300324500Y-53458700D02*
X302266800Y-55401000D01*
X265188000Y-23312000D02*
X306006800Y-23312000D01*
X311698000Y-71832200D02*
X313167800Y-73302000D01*
X301644276Y-49817000D02*
X300324500Y-51136776D01*
X336832200Y-73302000D02*
X338500000Y-71634200D01*
X300324500Y-51136776D02*
X300324500Y-53458700D01*
X303099000Y-55666100D02*
X303099000Y-61233200D01*
X302266800Y-55401000D02*
X302833900Y-55401000D01*
X302833900Y-55401000D02*
X303099000Y-55666100D01*
X310833900Y-66302000D02*
X311698000Y-67166100D01*
X308167800Y-66302000D02*
X310833900Y-66302000D01*
X308490000Y-44125800D02*
X302798800Y-49817000D01*
X311698000Y-67166100D02*
X311698000Y-71832200D01*
X313167800Y-73302000D02*
X336832200Y-73302000D01*
X338500000Y-71634200D02*
X338500000Y-62500000D01*
X336500000Y-60500000D02*
X333100000Y-60500000D01*
X338500000Y-62500000D02*
X336500000Y-60500000D01*
X333100000Y-60500000D02*
X333000000Y-60600000D01*
%TO.N,/COL11*%
X243840000Y-35560000D02*
X243840000Y-24071000D01*
X302432900Y-55000000D02*
X303000000Y-55000000D01*
X303500000Y-55500000D02*
X303500000Y-61067100D01*
X303500000Y-61067100D02*
X308333900Y-65901000D01*
X308333900Y-65901000D02*
X311000000Y-65901000D01*
X336666100Y-72901000D02*
X337901000Y-71666100D01*
X308891000Y-25629100D02*
X308891000Y-44291900D01*
X243840000Y-24071000D02*
X245000000Y-22911000D01*
X308891000Y-44291900D02*
X302964900Y-50218000D01*
X245000000Y-22911000D02*
X306172900Y-22911000D01*
X306172900Y-22911000D02*
X308891000Y-25629100D01*
X313333900Y-72901000D02*
X336666100Y-72901000D01*
X302964900Y-50218000D02*
X301810376Y-50218000D01*
X311000000Y-65901000D02*
X312099000Y-67000000D01*
X300725500Y-51302876D02*
X300725500Y-53292600D01*
X300725500Y-53292600D02*
X302432900Y-55000000D01*
X337901000Y-71666100D02*
X337901000Y-67401000D01*
X337901000Y-67401000D02*
X336180000Y-65680000D01*
X301810376Y-50218000D02*
X300725500Y-51302876D01*
X303000000Y-55000000D02*
X303500000Y-55500000D01*
X312099000Y-67000000D02*
X312099000Y-71666100D01*
X312099000Y-71666100D02*
X313333900Y-72901000D01*
X336180000Y-65680000D02*
X333000000Y-65680000D01*
%TO.N,/COL3*%
X93297000Y-19703000D02*
X307501700Y-19703000D01*
X115235000Y-87735000D02*
X115235000Y-92710000D01*
X307501700Y-19703000D02*
X312099000Y-24300300D01*
X101000000Y-48000000D02*
X100965000Y-48035000D01*
X108000000Y-85000000D02*
X112500000Y-85000000D01*
X312099000Y-44779000D02*
X315220000Y-47900000D01*
X100965000Y-54610000D02*
X100965000Y-68897500D01*
X91440000Y-35560000D02*
X91440000Y-21560000D01*
X91440000Y-35560000D02*
X91440000Y-43940000D01*
X112500000Y-85000000D02*
X115235000Y-87735000D01*
X105727500Y-73660000D02*
X105727500Y-82727500D01*
X100965000Y-48035000D02*
X100965000Y-54610000D01*
X91440000Y-21560000D02*
X93297000Y-19703000D01*
X93500000Y-46000000D02*
X99000000Y-46000000D01*
X312099000Y-24300300D02*
X312099000Y-44779000D01*
X100965000Y-68897500D02*
X105727500Y-73660000D01*
X99000000Y-46000000D02*
X101000000Y-48000000D01*
X91440000Y-43940000D02*
X93500000Y-46000000D01*
X105727500Y-82727500D02*
X108000000Y-85000000D01*
%TO.N,/COL13*%
X290534750Y-91195250D02*
X269770000Y-111960000D01*
X291465000Y-35560000D02*
X291465000Y-49847500D01*
X296227500Y-68274226D02*
X290534750Y-73966976D01*
X291465000Y-49847500D02*
X296227500Y-54610000D01*
X290534750Y-73966976D02*
X290534750Y-91195250D01*
X296227500Y-54610000D02*
X296227500Y-68274226D01*
%TO.N,/COL16*%
X344000000Y-56000000D02*
X335900000Y-47900000D01*
X307500000Y-122500000D02*
X307500000Y-92000000D01*
X340000000Y-85500000D02*
X344000000Y-81500000D01*
X329770000Y-120730000D02*
X325000000Y-125500000D01*
X335900000Y-47900000D02*
X333000000Y-47900000D01*
X344000000Y-81500000D02*
X344000000Y-56000000D01*
X314000000Y-85500000D02*
X340000000Y-85500000D01*
X310500000Y-125500000D02*
X307500000Y-122500000D01*
X307500000Y-92000000D02*
X314000000Y-85500000D01*
X325000000Y-125500000D02*
X310500000Y-125500000D01*
X329770000Y-111960000D02*
X329770000Y-120730000D01*
%TO.N,/COL8*%
X210485000Y-86985000D02*
X210485000Y-92710000D01*
X188500000Y-46500000D02*
X195000000Y-46500000D01*
X195000000Y-46500000D02*
X196000000Y-47500000D01*
X200977500Y-73660000D02*
X200977500Y-83977500D01*
X186690000Y-23810000D02*
X188792000Y-21708000D01*
X196000000Y-47500000D02*
X196000000Y-54395000D01*
X186690000Y-35560000D02*
X186690000Y-44690000D01*
X188792000Y-21708000D02*
X306671200Y-21708000D01*
X186690000Y-44690000D02*
X188500000Y-46500000D01*
X203000000Y-86000000D02*
X209500000Y-86000000D01*
X200977500Y-83977500D02*
X203000000Y-86000000D01*
X310094000Y-60554000D02*
X315220000Y-65680000D01*
X196215000Y-54610000D02*
X196215000Y-68897500D01*
X209500000Y-86000000D02*
X210485000Y-86985000D01*
X306671200Y-21708000D02*
X310094000Y-25130800D01*
X196000000Y-54395000D02*
X196215000Y-54610000D01*
X310094000Y-25130800D02*
X310094000Y-60554000D01*
X186690000Y-35560000D02*
X186690000Y-23810000D01*
X196215000Y-68897500D02*
X200977500Y-73660000D01*
%TO.N,/COL14*%
X291690000Y-122690000D02*
X295500000Y-126500000D01*
X341000000Y-80000000D02*
X341000000Y-56544950D01*
X311000000Y-84000000D02*
X337000000Y-84000000D01*
X341000000Y-56544950D02*
X339975050Y-55520000D01*
X339975050Y-55520000D02*
X333000000Y-55520000D01*
X295500000Y-126500000D02*
X303500000Y-126500000D01*
X291690000Y-111960000D02*
X291690000Y-122690000D01*
X337000000Y-84000000D02*
X341000000Y-80000000D01*
X303500000Y-126500000D02*
X305500000Y-124500000D01*
X305500000Y-89500000D02*
X311000000Y-84000000D01*
X305500000Y-124500000D02*
X305500000Y-89500000D01*
%TO.N,/COL11*%
X269061000Y-86639689D02*
X269061000Y-93371024D01*
X222110000Y-108890000D02*
X222110000Y-111960000D01*
X257229976Y-104000000D02*
X227000000Y-104000000D01*
X258127500Y-73660000D02*
X258127500Y-75706189D01*
X253365000Y-54610000D02*
X253365000Y-49365000D01*
X265114000Y-95817826D02*
X265263075Y-95966901D01*
X265832174Y-94084000D02*
X265114000Y-94802174D01*
X259759876Y-101470100D02*
X258673711Y-101470100D01*
X269061000Y-93371024D02*
X268198949Y-94233075D01*
X227000000Y-104000000D02*
X222110000Y-108890000D01*
X253365000Y-68897500D02*
X258127500Y-73660000D01*
X266847826Y-94084000D02*
X265832174Y-94084000D01*
X251000000Y-47000000D02*
X246000000Y-47000000D01*
X258673711Y-101470100D02*
X257300100Y-102843711D01*
X257300100Y-103929876D02*
X257229976Y-104000000D01*
X243840000Y-44840000D02*
X243840000Y-35560000D01*
X257300100Y-102843711D02*
X257300100Y-103929876D01*
X265114000Y-94802174D02*
X265114000Y-95817826D01*
X258127500Y-75706189D02*
X269061000Y-86639689D01*
X246000000Y-47000000D02*
X243840000Y-44840000D01*
X266996901Y-94233075D02*
X266847826Y-94084000D01*
X253365000Y-49365000D02*
X251000000Y-47000000D01*
X268198949Y-94233075D02*
X266996901Y-94233075D01*
X265263075Y-95966901D02*
X259759876Y-101470100D01*
X253365000Y-54610000D02*
X253365000Y-68897500D01*
%TO.N,/ROW1*%
X356690000Y-36310000D02*
X356500000Y-36310000D01*
%TO.N,/COL2*%
X96185000Y-86185000D02*
X95000000Y-85000000D01*
X81915000Y-54610000D02*
X81915000Y-63915000D01*
X96185000Y-92710000D02*
X96185000Y-101315000D01*
X81915000Y-54610000D02*
X81915000Y-48415000D01*
X79690000Y-105690000D02*
X79690000Y-111960000D01*
X95000000Y-85000000D02*
X91500000Y-85000000D01*
X91500000Y-85000000D02*
X86677500Y-80177500D01*
X72390000Y-44890000D02*
X72390000Y-35560000D01*
X81915000Y-48415000D02*
X80500000Y-47000000D01*
X94000000Y-103500000D02*
X81880000Y-103500000D01*
X81915000Y-63915000D02*
X85000000Y-67000000D01*
X74500000Y-47000000D02*
X72390000Y-44890000D01*
X85000000Y-67000000D02*
X85000000Y-71982500D01*
X307667800Y-19302000D02*
X312500000Y-24134200D01*
X96185000Y-101315000D02*
X94000000Y-103500000D01*
X312500000Y-42640000D02*
X315220000Y-45360000D01*
X86677500Y-80177500D02*
X86677500Y-73660000D01*
X79690000Y-105690000D02*
X81880000Y-103500000D01*
X72390000Y-21110000D02*
X74198000Y-19302000D01*
X74198000Y-19302000D02*
X307667800Y-19302000D01*
X72390000Y-35560000D02*
X72390000Y-21110000D01*
X312500000Y-24134200D02*
X312500000Y-42640000D01*
X85000000Y-71982500D02*
X86677500Y-73660000D01*
X96185000Y-92710000D02*
X96185000Y-86185000D01*
X80500000Y-47000000D02*
X74500000Y-47000000D01*
%TO.N,/COL6*%
X165500000Y-85000000D02*
X168270000Y-85000000D01*
X150500000Y-47000000D02*
X157000000Y-47000000D01*
X151274000Y-20906000D02*
X307003400Y-20906000D01*
X310896000Y-53736000D02*
X315220000Y-58060000D01*
X148590000Y-35560000D02*
X148500000Y-35470000D01*
X148590000Y-45090000D02*
X150500000Y-47000000D01*
X168270000Y-85000000D02*
X172385000Y-89115000D01*
X158115000Y-68897500D02*
X162877500Y-73660000D01*
X158115000Y-48115000D02*
X158115000Y-54610000D01*
X148590000Y-35560000D02*
X148590000Y-23590000D01*
X162877500Y-82377500D02*
X165500000Y-85000000D01*
X148590000Y-23590000D02*
X151274000Y-20906000D01*
X172385000Y-89115000D02*
X172385000Y-92710000D01*
X148590000Y-35560000D02*
X148590000Y-45090000D01*
X158115000Y-54610000D02*
X158115000Y-68897500D01*
X310896000Y-24798600D02*
X310896000Y-53736000D01*
X162877500Y-73660000D02*
X162877500Y-82377500D01*
X307003400Y-20906000D02*
X310896000Y-24798600D01*
X157000000Y-47000000D02*
X158115000Y-48115000D01*
%TO.N,/COL12*%
X284000000Y-91494160D02*
X284000000Y-91500000D01*
X284000000Y-91500000D02*
X277291000Y-98209000D01*
X272415000Y-54610000D02*
X272415000Y-56991250D01*
X264500000Y-46500000D02*
X262890000Y-44890000D01*
X250126000Y-107769000D02*
X246135000Y-111760000D01*
X259007189Y-107769000D02*
X250126000Y-107769000D01*
X272415000Y-56991250D02*
X289083750Y-73660000D01*
X270500000Y-46500000D02*
X264500000Y-46500000D01*
X289083750Y-86410410D02*
X284000000Y-91494160D01*
X268567189Y-98209000D02*
X259007189Y-107769000D01*
X272415000Y-54610000D02*
X272415000Y-48415000D01*
X277291000Y-98209000D02*
X268567189Y-98209000D01*
X272415000Y-48415000D02*
X270500000Y-46500000D01*
X289083750Y-73660000D02*
X289083750Y-86410410D01*
X262890000Y-44890000D02*
X262890000Y-35560000D01*
%TO.N,/COL9*%
X207500000Y-46000000D02*
X213000000Y-46000000D01*
X215265000Y-48265000D02*
X215265000Y-54610000D01*
X223500000Y-86500000D02*
X228500000Y-86500000D01*
X309693000Y-25296900D02*
X309693000Y-62693000D01*
X309693000Y-62693000D02*
X315220000Y-68220000D01*
X220027500Y-73660000D02*
X220027500Y-83027500D01*
X229535000Y-87535000D02*
X229535000Y-92710000D01*
X228500000Y-86500000D02*
X229535000Y-87535000D01*
X215265000Y-68897500D02*
X220027500Y-73660000D01*
X220027500Y-83027500D02*
X223500000Y-86500000D01*
X215265000Y-54610000D02*
X215265000Y-68897500D01*
X213000000Y-46000000D02*
X215265000Y-48265000D01*
X207391000Y-22109000D02*
X306505100Y-22109000D01*
X205740000Y-23760000D02*
X207391000Y-22109000D01*
X205740000Y-35560000D02*
X205740000Y-44240000D01*
X306505100Y-22109000D02*
X309693000Y-25296900D01*
X205740000Y-44240000D02*
X207500000Y-46000000D01*
X205740000Y-35560000D02*
X205740000Y-23760000D01*
%TO.N,/COL5*%
X139065000Y-47565000D02*
X139065000Y-54610000D01*
X152000000Y-85500000D02*
X153000000Y-86500000D01*
X307169500Y-20505000D02*
X311297000Y-24632500D01*
X311297000Y-24632500D02*
X311297000Y-51597000D01*
X153000000Y-92375000D02*
X153335000Y-92710000D01*
X129540000Y-35560000D02*
X129540000Y-44540000D01*
X139065000Y-68897500D02*
X143827500Y-73660000D01*
X129540000Y-22960000D02*
X131995000Y-20505000D01*
X145500000Y-85500000D02*
X152000000Y-85500000D01*
X129540000Y-44540000D02*
X131500000Y-46500000D01*
X153335000Y-92710000D02*
X153335000Y-102705000D01*
X151270000Y-104770000D02*
X151270000Y-111760000D01*
X153000000Y-86500000D02*
X153000000Y-92375000D01*
X153335000Y-102705000D02*
X151270000Y-104770000D01*
X138000000Y-46500000D02*
X139065000Y-47565000D01*
X131995000Y-20505000D02*
X307169500Y-20505000D01*
X139065000Y-54610000D02*
X139065000Y-68897500D01*
X143827500Y-73660000D02*
X143827500Y-83827500D01*
X143827500Y-83827500D02*
X145500000Y-85500000D01*
X129540000Y-35560000D02*
X129540000Y-22960000D01*
X311297000Y-51597000D02*
X315220000Y-55520000D01*
X131500000Y-46500000D02*
X138000000Y-46500000D01*
%TO.N,/COL10*%
X301126500Y-53126500D02*
X302500000Y-54500000D01*
X234315000Y-68897500D02*
X239077500Y-73660000D01*
X311500000Y-65500000D02*
X312500000Y-66500000D01*
X226490000Y-22510000D02*
X306339000Y-22510000D01*
X301126500Y-51468976D02*
X301126500Y-53126500D01*
X267610000Y-89110000D02*
X267610000Y-92770000D01*
X239077500Y-82077500D02*
X242000000Y-85000000D01*
X303131000Y-50619000D02*
X301976476Y-50619000D01*
X234315000Y-54610000D02*
X234315000Y-68897500D01*
X337220000Y-68220000D02*
X333000000Y-68220000D01*
X242000000Y-85000000D02*
X263500000Y-85000000D01*
X239077500Y-73660000D02*
X239077500Y-82077500D01*
X308500000Y-65500000D02*
X311500000Y-65500000D01*
X227500000Y-47500000D02*
X231500000Y-47500000D01*
X224790000Y-35560000D02*
X224790000Y-24210000D01*
X337500000Y-71500000D02*
X337500000Y-68500000D01*
X234315000Y-50315000D02*
X234315000Y-54610000D01*
X306339000Y-22510000D02*
X309292000Y-25463000D01*
X301976476Y-50619000D02*
X301126500Y-51468976D01*
X307000000Y-57298674D02*
X307000000Y-64000000D01*
X224790000Y-24210000D02*
X226490000Y-22510000D01*
X231500000Y-47500000D02*
X234315000Y-50315000D01*
X336500000Y-72500000D02*
X337500000Y-71500000D01*
X313500000Y-72500000D02*
X336500000Y-72500000D01*
X302500000Y-54500000D02*
X304201326Y-54500000D01*
X337500000Y-68500000D02*
X337220000Y-68220000D01*
X312500000Y-66500000D02*
X312500000Y-71500000D01*
X224790000Y-35560000D02*
X224790000Y-44790000D01*
X263500000Y-85000000D02*
X267610000Y-89110000D01*
X307000000Y-64000000D02*
X308500000Y-65500000D01*
X224790000Y-44790000D02*
X227500000Y-47500000D01*
X312500000Y-71500000D02*
X313500000Y-72500000D01*
X304201326Y-54500000D02*
X307000000Y-57298674D01*
X309292000Y-44458000D02*
X303131000Y-50619000D01*
X309292000Y-25463000D02*
X309292000Y-44458000D01*
%TO.N,/COL0*%
X46196250Y-92710000D02*
X46196250Y-102453750D01*
X34290000Y-35560000D02*
X34290000Y-24210000D01*
X39052500Y-54610000D02*
X39052500Y-71278750D01*
X308000000Y-18500000D02*
X313500000Y-24000000D01*
X41500000Y-73726250D02*
X41500000Y-88020000D01*
X34500000Y-24000000D02*
X34500000Y-21500000D01*
X34500000Y-21500000D02*
X37500000Y-18500000D01*
X46196250Y-102453750D02*
X36690000Y-111960000D01*
X37500000Y-18500000D02*
X308000000Y-18500000D01*
X41433750Y-73660000D02*
X41500000Y-73726250D01*
X34290000Y-35560000D02*
X34290000Y-49847500D01*
X41500000Y-88020000D02*
X46190000Y-92710000D01*
X39052500Y-71278750D02*
X41433750Y-73660000D01*
X34290000Y-49847500D02*
X39052500Y-54610000D01*
X34290000Y-24210000D02*
X34500000Y-24000000D01*
X313500000Y-38560000D02*
X315220000Y-40280000D01*
X313500000Y-24000000D02*
X313500000Y-38560000D01*
%TO.N,/COL15*%
X329168976Y-110509000D02*
X330371024Y-110509000D01*
X310690000Y-111960000D02*
X327717976Y-111960000D01*
X331221000Y-119846100D02*
X325166100Y-125901000D01*
X343500000Y-58477850D02*
X338002150Y-52980000D01*
X331221000Y-111358976D02*
X331221000Y-119846100D01*
X340500000Y-86000000D02*
X317225000Y-86000000D01*
X343500000Y-80000000D02*
X343500000Y-58477850D01*
X339000000Y-84500000D02*
X343500000Y-80000000D01*
X306000000Y-92000000D02*
X313500000Y-84500000D01*
X310333900Y-125901000D02*
X306000000Y-121567100D01*
X338002150Y-52980000D02*
X333000000Y-52980000D01*
X344610000Y-81890000D02*
X340500000Y-86000000D01*
X344610000Y-29220000D02*
X344610000Y-48270000D01*
X317225000Y-86000000D02*
X310515000Y-92710000D01*
X325166100Y-125901000D02*
X310333900Y-125901000D01*
X306000000Y-121567100D02*
X306000000Y-92000000D01*
X327717976Y-111960000D02*
X329168976Y-110509000D01*
X310515000Y-111785000D02*
X310690000Y-111960000D01*
X310515000Y-92710000D02*
X310650000Y-92710000D01*
X310515000Y-92710000D02*
X310515000Y-111785000D01*
X313500000Y-84500000D02*
X339000000Y-84500000D01*
X330371024Y-110509000D02*
X331221000Y-111358976D01*
X344610000Y-48270000D02*
X344610000Y-81890000D01*
%TO.N,/COL4*%
X311698000Y-24466400D02*
X311698000Y-49458000D01*
X132500000Y-86000000D02*
X127000000Y-86000000D01*
X113000000Y-47000000D02*
X119500000Y-47000000D01*
X127000000Y-86000000D02*
X124777500Y-83777500D01*
X120015000Y-47515000D02*
X120015000Y-54610000D01*
X311698000Y-49458000D02*
X315220000Y-52980000D01*
X134285000Y-87785000D02*
X132500000Y-86000000D01*
X134285000Y-92710000D02*
X134285000Y-87785000D01*
X110490000Y-44490000D02*
X113000000Y-47000000D01*
X124777500Y-83777500D02*
X124777500Y-73660000D01*
X112896000Y-20104000D02*
X307335600Y-20104000D01*
X110490000Y-22510000D02*
X112896000Y-20104000D01*
X110490000Y-35560000D02*
X110490000Y-44490000D01*
X119500000Y-47000000D02*
X120015000Y-47515000D01*
X120015000Y-54610000D02*
X120015000Y-68897500D01*
X307335600Y-20104000D02*
X311698000Y-24466400D01*
X120015000Y-68897500D02*
X124777500Y-73660000D01*
X110490000Y-35560000D02*
X110490000Y-22510000D01*
%TO.N,/COL1*%
X57270000Y-108230000D02*
X57730000Y-107770000D01*
X53340000Y-45340000D02*
X55000000Y-47000000D01*
X53340000Y-35560000D02*
X53340000Y-20660000D01*
X53340000Y-20660000D02*
X55099000Y-18901000D01*
X312966450Y-24033550D02*
X312966450Y-40566450D01*
X77135000Y-89135000D02*
X77135000Y-92710000D01*
X62865000Y-50865000D02*
X62865000Y-54610000D01*
X62865000Y-68897500D02*
X67627500Y-73660000D01*
X59000000Y-47000000D02*
X62865000Y-50865000D01*
X312966450Y-40566450D02*
X315220000Y-42820000D01*
X66730000Y-107770000D02*
X77135000Y-97365000D01*
X53340000Y-35560000D02*
X53340000Y-45340000D01*
X57730000Y-107770000D02*
X66730000Y-107770000D01*
X67627500Y-84127500D02*
X71500000Y-88000000D01*
X55099000Y-18901000D02*
X307833900Y-18901000D01*
X307833900Y-18901000D02*
X312966450Y-24033550D01*
X77135000Y-97365000D02*
X77135000Y-92710000D01*
X55000000Y-47000000D02*
X59000000Y-47000000D01*
X62865000Y-54610000D02*
X62865000Y-68897500D01*
X67627500Y-73660000D02*
X67627500Y-84127500D01*
X71500000Y-88000000D02*
X76000000Y-88000000D01*
X57270000Y-111960000D02*
X57270000Y-108230000D01*
X76000000Y-88000000D02*
X77135000Y-89135000D01*
%TO.N,/COL7*%
X310495000Y-55875000D02*
X315220000Y-60600000D01*
X167640000Y-35560000D02*
X167640000Y-44640000D01*
X167640000Y-24140000D02*
X170473000Y-21307000D01*
X184500000Y-85500000D02*
X181927500Y-82927500D01*
X177165000Y-48165000D02*
X177165000Y-54610000D01*
X170000000Y-47000000D02*
X176000000Y-47000000D01*
X177165000Y-54610000D02*
X177165000Y-68897500D01*
X310495000Y-24964700D02*
X310495000Y-55875000D01*
X177165000Y-68897500D02*
X181927500Y-73660000D01*
X167640000Y-35560000D02*
X167640000Y-24140000D01*
X306837300Y-21307000D02*
X310495000Y-24964700D01*
X191435000Y-92710000D02*
X191435000Y-86435000D01*
X176000000Y-47000000D02*
X177165000Y-48165000D01*
X170473000Y-21307000D02*
X306837300Y-21307000D01*
X190500000Y-85500000D02*
X184500000Y-85500000D01*
X181927500Y-82927500D02*
X181927500Y-73660000D01*
X191435000Y-86435000D02*
X190500000Y-85500000D01*
X167640000Y-44640000D02*
X170000000Y-47000000D01*
%TO.N,Net-(D1-A)*%
X40640000Y-33020000D02*
X41720000Y-33020000D01*
X41810000Y-34190000D02*
X46000000Y-34190000D01*
X40640000Y-33020000D02*
X41810000Y-34190000D01*
%TO.N,Net-(D2-A)*%
X59690000Y-33020000D02*
X60770000Y-33020000D01*
X59690000Y-33020000D02*
X61150000Y-34480000D01*
X61150000Y-34480000D02*
X65550000Y-34480000D01*
%TO.N,Net-(D3-A)*%
X80200000Y-34480000D02*
X84600000Y-34480000D01*
X78740000Y-33020000D02*
X80200000Y-34480000D01*
X78740000Y-33020000D02*
X79820000Y-33020000D01*
%TO.N,Net-(D4-A)*%
X97790000Y-33020000D02*
X98870000Y-33020000D01*
X99250000Y-34480000D02*
X103650000Y-34480000D01*
X97790000Y-33020000D02*
X99250000Y-34480000D01*
%TO.N,Net-(D5-A)*%
X116840000Y-33020000D02*
X118300000Y-34480000D01*
X116840000Y-33020000D02*
X117920000Y-33020000D01*
X118300000Y-34480000D02*
X122700000Y-34480000D01*
%TO.N,Net-(D6-A)*%
X135890000Y-33020000D02*
X136970000Y-33020000D01*
X135890000Y-33020000D02*
X137350000Y-34480000D01*
X137350000Y-34480000D02*
X141750000Y-34480000D01*
%TO.N,Net-(D7-A)*%
X154940000Y-33020000D02*
X156400000Y-34480000D01*
X156400000Y-34480000D02*
X160800000Y-34480000D01*
X154940000Y-33020000D02*
X156020000Y-33020000D01*
%TO.N,Net-(D8-A)*%
X173990000Y-33020000D02*
X175070000Y-33020000D01*
X175450000Y-34480000D02*
X179850000Y-34480000D01*
X173990000Y-33020000D02*
X175450000Y-34480000D01*
%TO.N,Net-(D9-A)*%
X194500000Y-34480000D02*
X198900000Y-34480000D01*
X193040000Y-33020000D02*
X194120000Y-33020000D01*
X193040000Y-33020000D02*
X194500000Y-34480000D01*
%TO.N,Net-(D10-A)*%
X213550000Y-34480000D02*
X217950000Y-34480000D01*
X212090000Y-33020000D02*
X213550000Y-34480000D01*
X212090000Y-33020000D02*
X213170000Y-33020000D01*
%TO.N,Net-(D11-A)*%
X232600000Y-34480000D02*
X237000000Y-34480000D01*
X231140000Y-33020000D02*
X232600000Y-34480000D01*
X231140000Y-33020000D02*
X232220000Y-33020000D01*
%TO.N,Net-(D12-A)*%
X251650000Y-34480000D02*
X256050000Y-34480000D01*
X250190000Y-33020000D02*
X251650000Y-34480000D01*
X250190000Y-33020000D02*
X251270000Y-33020000D01*
%TO.N,Net-(D13-A)*%
X269240000Y-33020000D02*
X270320000Y-33020000D01*
X270910000Y-34690000D02*
X275000000Y-34690000D01*
X269240000Y-33020000D02*
X270910000Y-34690000D01*
%TO.N,Net-(D14-A)*%
X297815000Y-33020000D02*
X298985000Y-34190000D01*
X297815000Y-33020000D02*
X298895000Y-33020000D01*
X298985000Y-34190000D02*
X306000000Y-34190000D01*
%TO.N,Net-(D15-A)*%
X352040000Y-26680000D02*
X354050000Y-28690000D01*
X350960000Y-26680000D02*
X352040000Y-26680000D01*
X354050000Y-28690000D02*
X356500000Y-28690000D01*
%TO.N,Net-(D16-A)*%
X45500000Y-52070000D02*
X47620000Y-54190000D01*
X47620000Y-54190000D02*
X51137500Y-54190000D01*
X45402500Y-52070000D02*
X45500000Y-52070000D01*
X45402500Y-52070000D02*
X46482500Y-52070000D01*
%TO.N,Net-(D17-A)*%
X69215000Y-52070000D02*
X70295000Y-52070000D01*
X69215000Y-52070000D02*
X71335000Y-54190000D01*
X71335000Y-54190000D02*
X74950000Y-54190000D01*
%TO.N,Net-(D18-A)*%
X88265000Y-52070000D02*
X89345000Y-52070000D01*
X88265000Y-52070000D02*
X90385000Y-54190000D01*
X90385000Y-54190000D02*
X94000000Y-54190000D01*
%TO.N,Net-(D19-A)*%
X109435000Y-54190000D02*
X113050000Y-54190000D01*
X107315000Y-52070000D02*
X109435000Y-54190000D01*
X107315000Y-52070000D02*
X108395000Y-52070000D01*
%TO.N,Net-(D20-A)*%
X126365000Y-52070000D02*
X127445000Y-52070000D01*
X128485000Y-54190000D02*
X132100000Y-54190000D01*
X126365000Y-52070000D02*
X128485000Y-54190000D01*
%TO.N,Net-(D21-A)*%
X147535000Y-54190000D02*
X151150000Y-54190000D01*
X145415000Y-52070000D02*
X147535000Y-54190000D01*
X145415000Y-52070000D02*
X146495000Y-52070000D01*
%TO.N,Net-(D22-A)*%
X164465000Y-52070000D02*
X166585000Y-54190000D01*
X166585000Y-54190000D02*
X170200000Y-54190000D01*
X164465000Y-52070000D02*
X165545000Y-52070000D01*
%TO.N,Net-(D23-A)*%
X183515000Y-52070000D02*
X185635000Y-54190000D01*
X185635000Y-54190000D02*
X189250000Y-54190000D01*
X183515000Y-52070000D02*
X184595000Y-52070000D01*
%TO.N,Net-(D24-A)*%
X202565000Y-52070000D02*
X203645000Y-52070000D01*
X202565000Y-52070000D02*
X204685000Y-54190000D01*
X204685000Y-54190000D02*
X208300000Y-54190000D01*
%TO.N,Net-(D25-A)*%
X221615000Y-52070000D02*
X222695000Y-52070000D01*
X221615000Y-52070000D02*
X223735000Y-54190000D01*
X223735000Y-54190000D02*
X227350000Y-54190000D01*
%TO.N,Net-(D26-A)*%
X242785000Y-54190000D02*
X246400000Y-54190000D01*
X240665000Y-52070000D02*
X242785000Y-54190000D01*
X240665000Y-52070000D02*
X241745000Y-52070000D01*
%TO.N,Net-(D27-A)*%
X259715000Y-52070000D02*
X261835000Y-54190000D01*
X261835000Y-54190000D02*
X265450000Y-54190000D01*
X259715000Y-52070000D02*
X260795000Y-52070000D01*
%TO.N,Net-(D28-A)*%
X278765000Y-52070000D02*
X280885000Y-54190000D01*
X280885000Y-54190000D02*
X284500000Y-54190000D01*
%TO.N,Net-(D29-A)*%
X302577500Y-52070000D02*
X304697500Y-54190000D01*
X302577500Y-52070000D02*
X303657500Y-52070000D01*
X304697500Y-54190000D02*
X308312500Y-54190000D01*
%TO.N,Net-(D30-A)*%
X352420000Y-47190000D02*
X356500000Y-47190000D01*
X350960000Y-45730000D02*
X352040000Y-45730000D01*
X350960000Y-45730000D02*
X352420000Y-47190000D01*
%TO.N,Net-(D31-A)*%
X47783750Y-71120000D02*
X49243750Y-72580000D01*
X49243750Y-72580000D02*
X53500000Y-72580000D01*
X47783750Y-71120000D02*
X48863750Y-71120000D01*
%TO.N,Net-(D32-A)*%
X73977500Y-71120000D02*
X78430000Y-71120000D01*
X78430000Y-71120000D02*
X79500000Y-72190000D01*
%TO.N,Net-(D33-A)*%
X98316250Y-72506250D02*
X98500000Y-72690000D01*
X94107500Y-71120000D02*
X95493750Y-72506250D01*
X93027500Y-71120000D02*
X94107500Y-71120000D01*
X95493750Y-72506250D02*
X98316250Y-72506250D01*
%TO.N,Net-(D34-A)*%
X113647500Y-72690000D02*
X117550000Y-72690000D01*
X112077500Y-71120000D02*
X113157500Y-71120000D01*
X117341250Y-72481250D02*
X117550000Y-72690000D01*
X112077500Y-71120000D02*
X113647500Y-72690000D01*
%TO.N,Net-(D35-A)*%
X132207500Y-71120000D02*
X133777500Y-72690000D01*
X133777500Y-72690000D02*
X136600000Y-72690000D01*
X131127500Y-71120000D02*
X132207500Y-71120000D01*
%TO.N,Net-(D36-A)*%
X150177500Y-71120000D02*
X151257500Y-71120000D01*
X152827500Y-72690000D02*
X155650000Y-72690000D01*
X151257500Y-71120000D02*
X152827500Y-72690000D01*
%TO.N,Net-(D37-A)*%
X169227500Y-71120000D02*
X170307500Y-71120000D01*
X170307500Y-71120000D02*
X171877500Y-72690000D01*
X171877500Y-72690000D02*
X174700000Y-72690000D01*
%TO.N,Net-(D38-A)*%
X189847500Y-72690000D02*
X193750000Y-72690000D01*
X188277500Y-71120000D02*
X189847500Y-72690000D01*
X188277500Y-71120000D02*
X189357500Y-71120000D01*
%TO.N,Net-(D39-A)*%
X208407500Y-71120000D02*
X209977500Y-72690000D01*
X207327500Y-71120000D02*
X208407500Y-71120000D01*
X209977500Y-72690000D02*
X212800000Y-72690000D01*
%TO.N,Net-(D40-A)*%
X229027500Y-72690000D02*
X231850000Y-72690000D01*
X227457500Y-71120000D02*
X229027500Y-72690000D01*
X226377500Y-71120000D02*
X227457500Y-71120000D01*
%TO.N,Net-(D41-A)*%
X250766250Y-72556250D02*
X250900000Y-72690000D01*
X247943750Y-72556250D02*
X250766250Y-72556250D01*
X246507500Y-71120000D02*
X247943750Y-72556250D01*
X245427500Y-71120000D02*
X246507500Y-71120000D01*
%TO.N,Net-(D42-A)*%
X264477500Y-71120000D02*
X265557500Y-71120000D01*
X264477500Y-71120000D02*
X266047500Y-72690000D01*
X266047500Y-72690000D02*
X269950000Y-72690000D01*
%TO.N,Net-(D43-A)*%
X295433750Y-71120000D02*
X300430000Y-71120000D01*
X300430000Y-71120000D02*
X301500000Y-72190000D01*
%TO.N,Net-(D44-A)*%
X55086250Y-91630000D02*
X58500000Y-91630000D01*
X53626250Y-90170000D02*
X55086250Y-91630000D01*
X52546250Y-90170000D02*
X53626250Y-90170000D01*
%TO.N,Net-(D45-A)*%
X86085000Y-91690000D02*
X89250000Y-91690000D01*
X84565000Y-90170000D02*
X86085000Y-91690000D01*
X83485000Y-90170000D02*
X84565000Y-90170000D01*
%TO.N,Net-(D46-A)*%
X105135000Y-91690000D02*
X108300000Y-91690000D01*
X102535000Y-90170000D02*
X103615000Y-90170000D01*
X103615000Y-90170000D02*
X105135000Y-91690000D01*
%TO.N,Net-(D47-A)*%
X124185000Y-91690000D02*
X127350000Y-91690000D01*
X122665000Y-90170000D02*
X124185000Y-91690000D01*
X121585000Y-90170000D02*
X122665000Y-90170000D01*
%TO.N,Net-(D48-A)*%
X143235000Y-91690000D02*
X146400000Y-91690000D01*
X141715000Y-90170000D02*
X143235000Y-91690000D01*
X140635000Y-90170000D02*
X141715000Y-90170000D01*
%TO.N,Net-(D49-A)*%
X160765000Y-90170000D02*
X162285000Y-91690000D01*
X159685000Y-90170000D02*
X160765000Y-90170000D01*
X162285000Y-91690000D02*
X165450000Y-91690000D01*
%TO.N,Net-(D50-A)*%
X178735000Y-90170000D02*
X179815000Y-90170000D01*
X179815000Y-90170000D02*
X181335000Y-91690000D01*
X181335000Y-91690000D02*
X184500000Y-91690000D01*
%TO.N,Net-(D51-A)*%
X197785000Y-90170000D02*
X198865000Y-90170000D01*
X198865000Y-90170000D02*
X200385000Y-91690000D01*
X200385000Y-91690000D02*
X203550000Y-91690000D01*
%TO.N,Net-(D52-A)*%
X217915000Y-90170000D02*
X219435000Y-91690000D01*
X219435000Y-91690000D02*
X222600000Y-91690000D01*
X216835000Y-90170000D02*
X217915000Y-90170000D01*
%TO.N,Net-(D53-A)*%
X235885000Y-90170000D02*
X237405000Y-91690000D01*
X237405000Y-91690000D02*
X241650000Y-91690000D01*
%TO.N,Net-(D54-A)*%
X273960000Y-90230000D02*
X279040000Y-90230000D01*
X279040000Y-90230000D02*
X279500000Y-90690000D01*
%TO.N,Net-(D55-A)*%
X321480000Y-90170000D02*
X322500000Y-91190000D01*
X316865000Y-90170000D02*
X321480000Y-90170000D01*
%TO.N,Net-(D56-A)*%
X44500000Y-110880000D02*
X49000000Y-110880000D01*
X43040000Y-109420000D02*
X44500000Y-110880000D01*
X43021250Y-109220000D02*
X44101250Y-109220000D01*
%TO.N,Net-(D57-A)*%
X63620000Y-109420000D02*
X68730000Y-109420000D01*
X68730000Y-109420000D02*
X69000000Y-109690000D01*
%TO.N,Net-(D58-A)*%
X87310000Y-110690000D02*
X91500000Y-110690000D01*
X86040000Y-109420000D02*
X87310000Y-110690000D01*
X85883750Y-109220000D02*
X86963750Y-109220000D01*
%TO.N,Net-(D59-A)*%
X157620000Y-109220000D02*
X162530000Y-109220000D01*
X162530000Y-109220000D02*
X163500000Y-110190000D01*
X157321250Y-109220000D02*
X158401250Y-109220000D01*
%TO.N,Net-(D60-A)*%
X228460000Y-109420000D02*
X233230000Y-109420000D01*
X233230000Y-109420000D02*
X234000000Y-110190000D01*
%TO.N,Net-(D61-A)*%
X253651250Y-109220000D02*
X255111250Y-110680000D01*
X253565000Y-109220000D02*
X255025000Y-110680000D01*
X252571250Y-109220000D02*
X253651250Y-109220000D01*
X252485000Y-109220000D02*
X253565000Y-109220000D01*
%TO.N,Net-(D62-A)*%
X277463750Y-109220000D02*
X277933750Y-109690000D01*
X276383750Y-109220000D02*
X277463750Y-109220000D01*
X277933750Y-109690000D02*
X282000000Y-109690000D01*
%TO.N,Net-(D63-A)*%
X300865000Y-111190000D02*
X303500000Y-111190000D01*
X298895000Y-109220000D02*
X300865000Y-111190000D01*
X297815000Y-109220000D02*
X298895000Y-109220000D01*
%TO.N,Net-(D64-A)*%
X322960000Y-109420000D02*
X323000000Y-109380000D01*
X317040000Y-109420000D02*
X322960000Y-109420000D01*
%TO.N,Net-(D65-A)*%
X335915000Y-109220000D02*
X336995000Y-109220000D01*
X337390000Y-110690000D02*
X341500000Y-110690000D01*
X336120000Y-109420000D02*
X337390000Y-110690000D01*
%TD*%
M02*
