%TF.GenerationSoftware,KiCad,Pcbnew,9.0.6*%
%TF.CreationDate,2026-07-27T12:56:26+05:30*%
%TF.ProjectId,custom-keeboard,63757374-6f6d-42d6-9b65-65626f617264,rev?*%
%TF.SameCoordinates,Original*%
%TF.FileFunction,Legend,Bot*%
%TF.FilePolarity,Positive*%
%FSLAX46Y46*%
G04 Gerber Fmt 4.6, Leading zero omitted, Abs format (unit mm)*
G04 Created by KiCad (PCBNEW 9.0.6) date 2026-07-27 12:56:26*
%MOMM*%
%LPD*%
G01*
G04 APERTURE LIST*
%ADD10C,0.150000*%
%ADD11C,0.120000*%
G04 APERTURE END LIST*
D10*
X277574819Y-37285714D02*
X276574819Y-37285714D01*
X276574819Y-37285714D02*
X276574819Y-37523809D01*
X276574819Y-37523809D02*
X276622438Y-37666666D01*
X276622438Y-37666666D02*
X276717676Y-37761904D01*
X276717676Y-37761904D02*
X276812914Y-37809523D01*
X276812914Y-37809523D02*
X277003390Y-37857142D01*
X277003390Y-37857142D02*
X277146247Y-37857142D01*
X277146247Y-37857142D02*
X277336723Y-37809523D01*
X277336723Y-37809523D02*
X277431961Y-37761904D01*
X277431961Y-37761904D02*
X277527200Y-37666666D01*
X277527200Y-37666666D02*
X277574819Y-37523809D01*
X277574819Y-37523809D02*
X277574819Y-37285714D01*
X277574819Y-38809523D02*
X277574819Y-38238095D01*
X277574819Y-38523809D02*
X276574819Y-38523809D01*
X276574819Y-38523809D02*
X276717676Y-38428571D01*
X276717676Y-38428571D02*
X276812914Y-38333333D01*
X276812914Y-38333333D02*
X276860533Y-38238095D01*
X276574819Y-39142857D02*
X276574819Y-39761904D01*
X276574819Y-39761904D02*
X276955771Y-39428571D01*
X276955771Y-39428571D02*
X276955771Y-39571428D01*
X276955771Y-39571428D02*
X277003390Y-39666666D01*
X277003390Y-39666666D02*
X277051009Y-39714285D01*
X277051009Y-39714285D02*
X277146247Y-39761904D01*
X277146247Y-39761904D02*
X277384342Y-39761904D01*
X277384342Y-39761904D02*
X277479580Y-39714285D01*
X277479580Y-39714285D02*
X277527200Y-39666666D01*
X277527200Y-39666666D02*
X277574819Y-39571428D01*
X277574819Y-39571428D02*
X277574819Y-39285714D01*
X277574819Y-39285714D02*
X277527200Y-39190476D01*
X277527200Y-39190476D02*
X277479580Y-39142857D01*
X277254819Y-42048095D02*
X276254819Y-42048095D01*
X277254819Y-42619523D02*
X276683390Y-42190952D01*
X276254819Y-42619523D02*
X276826247Y-42048095D01*
X125274819Y-37551905D02*
X124274819Y-37551905D01*
X124274819Y-37551905D02*
X124274819Y-37790000D01*
X124274819Y-37790000D02*
X124322438Y-37932857D01*
X124322438Y-37932857D02*
X124417676Y-38028095D01*
X124417676Y-38028095D02*
X124512914Y-38075714D01*
X124512914Y-38075714D02*
X124703390Y-38123333D01*
X124703390Y-38123333D02*
X124846247Y-38123333D01*
X124846247Y-38123333D02*
X125036723Y-38075714D01*
X125036723Y-38075714D02*
X125131961Y-38028095D01*
X125131961Y-38028095D02*
X125227200Y-37932857D01*
X125227200Y-37932857D02*
X125274819Y-37790000D01*
X125274819Y-37790000D02*
X125274819Y-37551905D01*
X124274819Y-39028095D02*
X124274819Y-38551905D01*
X124274819Y-38551905D02*
X124751009Y-38504286D01*
X124751009Y-38504286D02*
X124703390Y-38551905D01*
X124703390Y-38551905D02*
X124655771Y-38647143D01*
X124655771Y-38647143D02*
X124655771Y-38885238D01*
X124655771Y-38885238D02*
X124703390Y-38980476D01*
X124703390Y-38980476D02*
X124751009Y-39028095D01*
X124751009Y-39028095D02*
X124846247Y-39075714D01*
X124846247Y-39075714D02*
X125084342Y-39075714D01*
X125084342Y-39075714D02*
X125179580Y-39028095D01*
X125179580Y-39028095D02*
X125227200Y-38980476D01*
X125227200Y-38980476D02*
X125274819Y-38885238D01*
X125274819Y-38885238D02*
X125274819Y-38647143D01*
X125274819Y-38647143D02*
X125227200Y-38551905D01*
X125227200Y-38551905D02*
X125179580Y-38504286D01*
X124954819Y-41838095D02*
X123954819Y-41838095D01*
X124954819Y-42409523D02*
X124383390Y-41980952D01*
X123954819Y-42409523D02*
X124526247Y-41838095D01*
X144324819Y-37551905D02*
X143324819Y-37551905D01*
X143324819Y-37551905D02*
X143324819Y-37790000D01*
X143324819Y-37790000D02*
X143372438Y-37932857D01*
X143372438Y-37932857D02*
X143467676Y-38028095D01*
X143467676Y-38028095D02*
X143562914Y-38075714D01*
X143562914Y-38075714D02*
X143753390Y-38123333D01*
X143753390Y-38123333D02*
X143896247Y-38123333D01*
X143896247Y-38123333D02*
X144086723Y-38075714D01*
X144086723Y-38075714D02*
X144181961Y-38028095D01*
X144181961Y-38028095D02*
X144277200Y-37932857D01*
X144277200Y-37932857D02*
X144324819Y-37790000D01*
X144324819Y-37790000D02*
X144324819Y-37551905D01*
X143324819Y-38980476D02*
X143324819Y-38790000D01*
X143324819Y-38790000D02*
X143372438Y-38694762D01*
X143372438Y-38694762D02*
X143420057Y-38647143D01*
X143420057Y-38647143D02*
X143562914Y-38551905D01*
X143562914Y-38551905D02*
X143753390Y-38504286D01*
X143753390Y-38504286D02*
X144134342Y-38504286D01*
X144134342Y-38504286D02*
X144229580Y-38551905D01*
X144229580Y-38551905D02*
X144277200Y-38599524D01*
X144277200Y-38599524D02*
X144324819Y-38694762D01*
X144324819Y-38694762D02*
X144324819Y-38885238D01*
X144324819Y-38885238D02*
X144277200Y-38980476D01*
X144277200Y-38980476D02*
X144229580Y-39028095D01*
X144229580Y-39028095D02*
X144134342Y-39075714D01*
X144134342Y-39075714D02*
X143896247Y-39075714D01*
X143896247Y-39075714D02*
X143801009Y-39028095D01*
X143801009Y-39028095D02*
X143753390Y-38980476D01*
X143753390Y-38980476D02*
X143705771Y-38885238D01*
X143705771Y-38885238D02*
X143705771Y-38694762D01*
X143705771Y-38694762D02*
X143753390Y-38599524D01*
X143753390Y-38599524D02*
X143801009Y-38551905D01*
X143801009Y-38551905D02*
X143896247Y-38504286D01*
X144004819Y-41838095D02*
X143004819Y-41838095D01*
X144004819Y-42409523D02*
X143433390Y-41980952D01*
X143004819Y-42409523D02*
X143576247Y-41838095D01*
X196324819Y-75285714D02*
X195324819Y-75285714D01*
X195324819Y-75285714D02*
X195324819Y-75523809D01*
X195324819Y-75523809D02*
X195372438Y-75666666D01*
X195372438Y-75666666D02*
X195467676Y-75761904D01*
X195467676Y-75761904D02*
X195562914Y-75809523D01*
X195562914Y-75809523D02*
X195753390Y-75857142D01*
X195753390Y-75857142D02*
X195896247Y-75857142D01*
X195896247Y-75857142D02*
X196086723Y-75809523D01*
X196086723Y-75809523D02*
X196181961Y-75761904D01*
X196181961Y-75761904D02*
X196277200Y-75666666D01*
X196277200Y-75666666D02*
X196324819Y-75523809D01*
X196324819Y-75523809D02*
X196324819Y-75285714D01*
X195324819Y-76190476D02*
X195324819Y-76809523D01*
X195324819Y-76809523D02*
X195705771Y-76476190D01*
X195705771Y-76476190D02*
X195705771Y-76619047D01*
X195705771Y-76619047D02*
X195753390Y-76714285D01*
X195753390Y-76714285D02*
X195801009Y-76761904D01*
X195801009Y-76761904D02*
X195896247Y-76809523D01*
X195896247Y-76809523D02*
X196134342Y-76809523D01*
X196134342Y-76809523D02*
X196229580Y-76761904D01*
X196229580Y-76761904D02*
X196277200Y-76714285D01*
X196277200Y-76714285D02*
X196324819Y-76619047D01*
X196324819Y-76619047D02*
X196324819Y-76333333D01*
X196324819Y-76333333D02*
X196277200Y-76238095D01*
X196277200Y-76238095D02*
X196229580Y-76190476D01*
X195753390Y-77380952D02*
X195705771Y-77285714D01*
X195705771Y-77285714D02*
X195658152Y-77238095D01*
X195658152Y-77238095D02*
X195562914Y-77190476D01*
X195562914Y-77190476D02*
X195515295Y-77190476D01*
X195515295Y-77190476D02*
X195420057Y-77238095D01*
X195420057Y-77238095D02*
X195372438Y-77285714D01*
X195372438Y-77285714D02*
X195324819Y-77380952D01*
X195324819Y-77380952D02*
X195324819Y-77571428D01*
X195324819Y-77571428D02*
X195372438Y-77666666D01*
X195372438Y-77666666D02*
X195420057Y-77714285D01*
X195420057Y-77714285D02*
X195515295Y-77761904D01*
X195515295Y-77761904D02*
X195562914Y-77761904D01*
X195562914Y-77761904D02*
X195658152Y-77714285D01*
X195658152Y-77714285D02*
X195705771Y-77666666D01*
X195705771Y-77666666D02*
X195753390Y-77571428D01*
X195753390Y-77571428D02*
X195753390Y-77380952D01*
X195753390Y-77380952D02*
X195801009Y-77285714D01*
X195801009Y-77285714D02*
X195848628Y-77238095D01*
X195848628Y-77238095D02*
X195943866Y-77190476D01*
X195943866Y-77190476D02*
X196134342Y-77190476D01*
X196134342Y-77190476D02*
X196229580Y-77238095D01*
X196229580Y-77238095D02*
X196277200Y-77285714D01*
X196277200Y-77285714D02*
X196324819Y-77380952D01*
X196324819Y-77380952D02*
X196324819Y-77571428D01*
X196324819Y-77571428D02*
X196277200Y-77666666D01*
X196277200Y-77666666D02*
X196229580Y-77714285D01*
X196229580Y-77714285D02*
X196134342Y-77761904D01*
X196134342Y-77761904D02*
X195943866Y-77761904D01*
X195943866Y-77761904D02*
X195848628Y-77714285D01*
X195848628Y-77714285D02*
X195801009Y-77666666D01*
X195801009Y-77666666D02*
X195753390Y-77571428D01*
X196004819Y-80048095D02*
X195004819Y-80048095D01*
X196004819Y-80619523D02*
X195433390Y-80190952D01*
X195004819Y-80619523D02*
X195576247Y-80048095D01*
X134674819Y-56785714D02*
X133674819Y-56785714D01*
X133674819Y-56785714D02*
X133674819Y-57023809D01*
X133674819Y-57023809D02*
X133722438Y-57166666D01*
X133722438Y-57166666D02*
X133817676Y-57261904D01*
X133817676Y-57261904D02*
X133912914Y-57309523D01*
X133912914Y-57309523D02*
X134103390Y-57357142D01*
X134103390Y-57357142D02*
X134246247Y-57357142D01*
X134246247Y-57357142D02*
X134436723Y-57309523D01*
X134436723Y-57309523D02*
X134531961Y-57261904D01*
X134531961Y-57261904D02*
X134627200Y-57166666D01*
X134627200Y-57166666D02*
X134674819Y-57023809D01*
X134674819Y-57023809D02*
X134674819Y-56785714D01*
X133770057Y-57738095D02*
X133722438Y-57785714D01*
X133722438Y-57785714D02*
X133674819Y-57880952D01*
X133674819Y-57880952D02*
X133674819Y-58119047D01*
X133674819Y-58119047D02*
X133722438Y-58214285D01*
X133722438Y-58214285D02*
X133770057Y-58261904D01*
X133770057Y-58261904D02*
X133865295Y-58309523D01*
X133865295Y-58309523D02*
X133960533Y-58309523D01*
X133960533Y-58309523D02*
X134103390Y-58261904D01*
X134103390Y-58261904D02*
X134674819Y-57690476D01*
X134674819Y-57690476D02*
X134674819Y-58309523D01*
X133674819Y-58928571D02*
X133674819Y-59023809D01*
X133674819Y-59023809D02*
X133722438Y-59119047D01*
X133722438Y-59119047D02*
X133770057Y-59166666D01*
X133770057Y-59166666D02*
X133865295Y-59214285D01*
X133865295Y-59214285D02*
X134055771Y-59261904D01*
X134055771Y-59261904D02*
X134293866Y-59261904D01*
X134293866Y-59261904D02*
X134484342Y-59214285D01*
X134484342Y-59214285D02*
X134579580Y-59166666D01*
X134579580Y-59166666D02*
X134627200Y-59119047D01*
X134627200Y-59119047D02*
X134674819Y-59023809D01*
X134674819Y-59023809D02*
X134674819Y-58928571D01*
X134674819Y-58928571D02*
X134627200Y-58833333D01*
X134627200Y-58833333D02*
X134579580Y-58785714D01*
X134579580Y-58785714D02*
X134484342Y-58738095D01*
X134484342Y-58738095D02*
X134293866Y-58690476D01*
X134293866Y-58690476D02*
X134055771Y-58690476D01*
X134055771Y-58690476D02*
X133865295Y-58738095D01*
X133865295Y-58738095D02*
X133770057Y-58785714D01*
X133770057Y-58785714D02*
X133722438Y-58833333D01*
X133722438Y-58833333D02*
X133674819Y-58928571D01*
X134354819Y-61548095D02*
X133354819Y-61548095D01*
X134354819Y-62119523D02*
X133783390Y-61690952D01*
X133354819Y-62119523D02*
X133926247Y-61548095D01*
X91824819Y-94285714D02*
X90824819Y-94285714D01*
X90824819Y-94285714D02*
X90824819Y-94523809D01*
X90824819Y-94523809D02*
X90872438Y-94666666D01*
X90872438Y-94666666D02*
X90967676Y-94761904D01*
X90967676Y-94761904D02*
X91062914Y-94809523D01*
X91062914Y-94809523D02*
X91253390Y-94857142D01*
X91253390Y-94857142D02*
X91396247Y-94857142D01*
X91396247Y-94857142D02*
X91586723Y-94809523D01*
X91586723Y-94809523D02*
X91681961Y-94761904D01*
X91681961Y-94761904D02*
X91777200Y-94666666D01*
X91777200Y-94666666D02*
X91824819Y-94523809D01*
X91824819Y-94523809D02*
X91824819Y-94285714D01*
X91158152Y-95714285D02*
X91824819Y-95714285D01*
X90777200Y-95476190D02*
X91491485Y-95238095D01*
X91491485Y-95238095D02*
X91491485Y-95857142D01*
X90824819Y-96714285D02*
X90824819Y-96238095D01*
X90824819Y-96238095D02*
X91301009Y-96190476D01*
X91301009Y-96190476D02*
X91253390Y-96238095D01*
X91253390Y-96238095D02*
X91205771Y-96333333D01*
X91205771Y-96333333D02*
X91205771Y-96571428D01*
X91205771Y-96571428D02*
X91253390Y-96666666D01*
X91253390Y-96666666D02*
X91301009Y-96714285D01*
X91301009Y-96714285D02*
X91396247Y-96761904D01*
X91396247Y-96761904D02*
X91634342Y-96761904D01*
X91634342Y-96761904D02*
X91729580Y-96714285D01*
X91729580Y-96714285D02*
X91777200Y-96666666D01*
X91777200Y-96666666D02*
X91824819Y-96571428D01*
X91824819Y-96571428D02*
X91824819Y-96333333D01*
X91824819Y-96333333D02*
X91777200Y-96238095D01*
X91777200Y-96238095D02*
X91729580Y-96190476D01*
X91504819Y-99048095D02*
X90504819Y-99048095D01*
X91504819Y-99619523D02*
X90933390Y-99190952D01*
X90504819Y-99619523D02*
X91076247Y-99048095D01*
X236574819Y-112785714D02*
X235574819Y-112785714D01*
X235574819Y-112785714D02*
X235574819Y-113023809D01*
X235574819Y-113023809D02*
X235622438Y-113166666D01*
X235622438Y-113166666D02*
X235717676Y-113261904D01*
X235717676Y-113261904D02*
X235812914Y-113309523D01*
X235812914Y-113309523D02*
X236003390Y-113357142D01*
X236003390Y-113357142D02*
X236146247Y-113357142D01*
X236146247Y-113357142D02*
X236336723Y-113309523D01*
X236336723Y-113309523D02*
X236431961Y-113261904D01*
X236431961Y-113261904D02*
X236527200Y-113166666D01*
X236527200Y-113166666D02*
X236574819Y-113023809D01*
X236574819Y-113023809D02*
X236574819Y-112785714D01*
X235574819Y-114214285D02*
X235574819Y-114023809D01*
X235574819Y-114023809D02*
X235622438Y-113928571D01*
X235622438Y-113928571D02*
X235670057Y-113880952D01*
X235670057Y-113880952D02*
X235812914Y-113785714D01*
X235812914Y-113785714D02*
X236003390Y-113738095D01*
X236003390Y-113738095D02*
X236384342Y-113738095D01*
X236384342Y-113738095D02*
X236479580Y-113785714D01*
X236479580Y-113785714D02*
X236527200Y-113833333D01*
X236527200Y-113833333D02*
X236574819Y-113928571D01*
X236574819Y-113928571D02*
X236574819Y-114119047D01*
X236574819Y-114119047D02*
X236527200Y-114214285D01*
X236527200Y-114214285D02*
X236479580Y-114261904D01*
X236479580Y-114261904D02*
X236384342Y-114309523D01*
X236384342Y-114309523D02*
X236146247Y-114309523D01*
X236146247Y-114309523D02*
X236051009Y-114261904D01*
X236051009Y-114261904D02*
X236003390Y-114214285D01*
X236003390Y-114214285D02*
X235955771Y-114119047D01*
X235955771Y-114119047D02*
X235955771Y-113928571D01*
X235955771Y-113928571D02*
X236003390Y-113833333D01*
X236003390Y-113833333D02*
X236051009Y-113785714D01*
X236051009Y-113785714D02*
X236146247Y-113738095D01*
X235574819Y-114928571D02*
X235574819Y-115023809D01*
X235574819Y-115023809D02*
X235622438Y-115119047D01*
X235622438Y-115119047D02*
X235670057Y-115166666D01*
X235670057Y-115166666D02*
X235765295Y-115214285D01*
X235765295Y-115214285D02*
X235955771Y-115261904D01*
X235955771Y-115261904D02*
X236193866Y-115261904D01*
X236193866Y-115261904D02*
X236384342Y-115214285D01*
X236384342Y-115214285D02*
X236479580Y-115166666D01*
X236479580Y-115166666D02*
X236527200Y-115119047D01*
X236527200Y-115119047D02*
X236574819Y-115023809D01*
X236574819Y-115023809D02*
X236574819Y-114928571D01*
X236574819Y-114928571D02*
X236527200Y-114833333D01*
X236527200Y-114833333D02*
X236479580Y-114785714D01*
X236479580Y-114785714D02*
X236384342Y-114738095D01*
X236384342Y-114738095D02*
X236193866Y-114690476D01*
X236193866Y-114690476D02*
X235955771Y-114690476D01*
X235955771Y-114690476D02*
X235765295Y-114738095D01*
X235765295Y-114738095D02*
X235670057Y-114785714D01*
X235670057Y-114785714D02*
X235622438Y-114833333D01*
X235622438Y-114833333D02*
X235574819Y-114928571D01*
X236254819Y-117548095D02*
X235254819Y-117548095D01*
X236254819Y-118119523D02*
X235683390Y-117690952D01*
X235254819Y-118119523D02*
X235826247Y-117548095D01*
X206124819Y-94285714D02*
X205124819Y-94285714D01*
X205124819Y-94285714D02*
X205124819Y-94523809D01*
X205124819Y-94523809D02*
X205172438Y-94666666D01*
X205172438Y-94666666D02*
X205267676Y-94761904D01*
X205267676Y-94761904D02*
X205362914Y-94809523D01*
X205362914Y-94809523D02*
X205553390Y-94857142D01*
X205553390Y-94857142D02*
X205696247Y-94857142D01*
X205696247Y-94857142D02*
X205886723Y-94809523D01*
X205886723Y-94809523D02*
X205981961Y-94761904D01*
X205981961Y-94761904D02*
X206077200Y-94666666D01*
X206077200Y-94666666D02*
X206124819Y-94523809D01*
X206124819Y-94523809D02*
X206124819Y-94285714D01*
X205124819Y-95761904D02*
X205124819Y-95285714D01*
X205124819Y-95285714D02*
X205601009Y-95238095D01*
X205601009Y-95238095D02*
X205553390Y-95285714D01*
X205553390Y-95285714D02*
X205505771Y-95380952D01*
X205505771Y-95380952D02*
X205505771Y-95619047D01*
X205505771Y-95619047D02*
X205553390Y-95714285D01*
X205553390Y-95714285D02*
X205601009Y-95761904D01*
X205601009Y-95761904D02*
X205696247Y-95809523D01*
X205696247Y-95809523D02*
X205934342Y-95809523D01*
X205934342Y-95809523D02*
X206029580Y-95761904D01*
X206029580Y-95761904D02*
X206077200Y-95714285D01*
X206077200Y-95714285D02*
X206124819Y-95619047D01*
X206124819Y-95619047D02*
X206124819Y-95380952D01*
X206124819Y-95380952D02*
X206077200Y-95285714D01*
X206077200Y-95285714D02*
X206029580Y-95238095D01*
X206124819Y-96761904D02*
X206124819Y-96190476D01*
X206124819Y-96476190D02*
X205124819Y-96476190D01*
X205124819Y-96476190D02*
X205267676Y-96380952D01*
X205267676Y-96380952D02*
X205362914Y-96285714D01*
X205362914Y-96285714D02*
X205410533Y-96190476D01*
X205804819Y-99048095D02*
X204804819Y-99048095D01*
X205804819Y-99619523D02*
X205233390Y-99190952D01*
X204804819Y-99619523D02*
X205376247Y-99048095D01*
X153724819Y-56785714D02*
X152724819Y-56785714D01*
X152724819Y-56785714D02*
X152724819Y-57023809D01*
X152724819Y-57023809D02*
X152772438Y-57166666D01*
X152772438Y-57166666D02*
X152867676Y-57261904D01*
X152867676Y-57261904D02*
X152962914Y-57309523D01*
X152962914Y-57309523D02*
X153153390Y-57357142D01*
X153153390Y-57357142D02*
X153296247Y-57357142D01*
X153296247Y-57357142D02*
X153486723Y-57309523D01*
X153486723Y-57309523D02*
X153581961Y-57261904D01*
X153581961Y-57261904D02*
X153677200Y-57166666D01*
X153677200Y-57166666D02*
X153724819Y-57023809D01*
X153724819Y-57023809D02*
X153724819Y-56785714D01*
X152820057Y-57738095D02*
X152772438Y-57785714D01*
X152772438Y-57785714D02*
X152724819Y-57880952D01*
X152724819Y-57880952D02*
X152724819Y-58119047D01*
X152724819Y-58119047D02*
X152772438Y-58214285D01*
X152772438Y-58214285D02*
X152820057Y-58261904D01*
X152820057Y-58261904D02*
X152915295Y-58309523D01*
X152915295Y-58309523D02*
X153010533Y-58309523D01*
X153010533Y-58309523D02*
X153153390Y-58261904D01*
X153153390Y-58261904D02*
X153724819Y-57690476D01*
X153724819Y-57690476D02*
X153724819Y-58309523D01*
X153724819Y-59261904D02*
X153724819Y-58690476D01*
X153724819Y-58976190D02*
X152724819Y-58976190D01*
X152724819Y-58976190D02*
X152867676Y-58880952D01*
X152867676Y-58880952D02*
X152962914Y-58785714D01*
X152962914Y-58785714D02*
X153010533Y-58690476D01*
X153404819Y-61548095D02*
X152404819Y-61548095D01*
X153404819Y-62119523D02*
X152833390Y-61690952D01*
X152404819Y-62119523D02*
X152976247Y-61548095D01*
X87174819Y-37551905D02*
X86174819Y-37551905D01*
X86174819Y-37551905D02*
X86174819Y-37790000D01*
X86174819Y-37790000D02*
X86222438Y-37932857D01*
X86222438Y-37932857D02*
X86317676Y-38028095D01*
X86317676Y-38028095D02*
X86412914Y-38075714D01*
X86412914Y-38075714D02*
X86603390Y-38123333D01*
X86603390Y-38123333D02*
X86746247Y-38123333D01*
X86746247Y-38123333D02*
X86936723Y-38075714D01*
X86936723Y-38075714D02*
X87031961Y-38028095D01*
X87031961Y-38028095D02*
X87127200Y-37932857D01*
X87127200Y-37932857D02*
X87174819Y-37790000D01*
X87174819Y-37790000D02*
X87174819Y-37551905D01*
X86174819Y-38456667D02*
X86174819Y-39075714D01*
X86174819Y-39075714D02*
X86555771Y-38742381D01*
X86555771Y-38742381D02*
X86555771Y-38885238D01*
X86555771Y-38885238D02*
X86603390Y-38980476D01*
X86603390Y-38980476D02*
X86651009Y-39028095D01*
X86651009Y-39028095D02*
X86746247Y-39075714D01*
X86746247Y-39075714D02*
X86984342Y-39075714D01*
X86984342Y-39075714D02*
X87079580Y-39028095D01*
X87079580Y-39028095D02*
X87127200Y-38980476D01*
X87127200Y-38980476D02*
X87174819Y-38885238D01*
X87174819Y-38885238D02*
X87174819Y-38599524D01*
X87174819Y-38599524D02*
X87127200Y-38504286D01*
X87127200Y-38504286D02*
X87079580Y-38456667D01*
X86854819Y-41838095D02*
X85854819Y-41838095D01*
X86854819Y-42409523D02*
X86283390Y-41980952D01*
X85854819Y-42409523D02*
X86426247Y-41838095D01*
X120124819Y-75285714D02*
X119124819Y-75285714D01*
X119124819Y-75285714D02*
X119124819Y-75523809D01*
X119124819Y-75523809D02*
X119172438Y-75666666D01*
X119172438Y-75666666D02*
X119267676Y-75761904D01*
X119267676Y-75761904D02*
X119362914Y-75809523D01*
X119362914Y-75809523D02*
X119553390Y-75857142D01*
X119553390Y-75857142D02*
X119696247Y-75857142D01*
X119696247Y-75857142D02*
X119886723Y-75809523D01*
X119886723Y-75809523D02*
X119981961Y-75761904D01*
X119981961Y-75761904D02*
X120077200Y-75666666D01*
X120077200Y-75666666D02*
X120124819Y-75523809D01*
X120124819Y-75523809D02*
X120124819Y-75285714D01*
X119124819Y-76190476D02*
X119124819Y-76809523D01*
X119124819Y-76809523D02*
X119505771Y-76476190D01*
X119505771Y-76476190D02*
X119505771Y-76619047D01*
X119505771Y-76619047D02*
X119553390Y-76714285D01*
X119553390Y-76714285D02*
X119601009Y-76761904D01*
X119601009Y-76761904D02*
X119696247Y-76809523D01*
X119696247Y-76809523D02*
X119934342Y-76809523D01*
X119934342Y-76809523D02*
X120029580Y-76761904D01*
X120029580Y-76761904D02*
X120077200Y-76714285D01*
X120077200Y-76714285D02*
X120124819Y-76619047D01*
X120124819Y-76619047D02*
X120124819Y-76333333D01*
X120124819Y-76333333D02*
X120077200Y-76238095D01*
X120077200Y-76238095D02*
X120029580Y-76190476D01*
X119458152Y-77666666D02*
X120124819Y-77666666D01*
X119077200Y-77428571D02*
X119791485Y-77190476D01*
X119791485Y-77190476D02*
X119791485Y-77809523D01*
X119804819Y-80048095D02*
X118804819Y-80048095D01*
X119804819Y-80619523D02*
X119233390Y-80190952D01*
X118804819Y-80619523D02*
X119376247Y-80048095D01*
X101074819Y-75285714D02*
X100074819Y-75285714D01*
X100074819Y-75285714D02*
X100074819Y-75523809D01*
X100074819Y-75523809D02*
X100122438Y-75666666D01*
X100122438Y-75666666D02*
X100217676Y-75761904D01*
X100217676Y-75761904D02*
X100312914Y-75809523D01*
X100312914Y-75809523D02*
X100503390Y-75857142D01*
X100503390Y-75857142D02*
X100646247Y-75857142D01*
X100646247Y-75857142D02*
X100836723Y-75809523D01*
X100836723Y-75809523D02*
X100931961Y-75761904D01*
X100931961Y-75761904D02*
X101027200Y-75666666D01*
X101027200Y-75666666D02*
X101074819Y-75523809D01*
X101074819Y-75523809D02*
X101074819Y-75285714D01*
X100074819Y-76190476D02*
X100074819Y-76809523D01*
X100074819Y-76809523D02*
X100455771Y-76476190D01*
X100455771Y-76476190D02*
X100455771Y-76619047D01*
X100455771Y-76619047D02*
X100503390Y-76714285D01*
X100503390Y-76714285D02*
X100551009Y-76761904D01*
X100551009Y-76761904D02*
X100646247Y-76809523D01*
X100646247Y-76809523D02*
X100884342Y-76809523D01*
X100884342Y-76809523D02*
X100979580Y-76761904D01*
X100979580Y-76761904D02*
X101027200Y-76714285D01*
X101027200Y-76714285D02*
X101074819Y-76619047D01*
X101074819Y-76619047D02*
X101074819Y-76333333D01*
X101074819Y-76333333D02*
X101027200Y-76238095D01*
X101027200Y-76238095D02*
X100979580Y-76190476D01*
X100074819Y-77142857D02*
X100074819Y-77761904D01*
X100074819Y-77761904D02*
X100455771Y-77428571D01*
X100455771Y-77428571D02*
X100455771Y-77571428D01*
X100455771Y-77571428D02*
X100503390Y-77666666D01*
X100503390Y-77666666D02*
X100551009Y-77714285D01*
X100551009Y-77714285D02*
X100646247Y-77761904D01*
X100646247Y-77761904D02*
X100884342Y-77761904D01*
X100884342Y-77761904D02*
X100979580Y-77714285D01*
X100979580Y-77714285D02*
X101027200Y-77666666D01*
X101027200Y-77666666D02*
X101074819Y-77571428D01*
X101074819Y-77571428D02*
X101074819Y-77285714D01*
X101074819Y-77285714D02*
X101027200Y-77190476D01*
X101027200Y-77190476D02*
X100979580Y-77142857D01*
X100754819Y-80048095D02*
X99754819Y-80048095D01*
X100754819Y-80619523D02*
X100183390Y-80190952D01*
X99754819Y-80619523D02*
X100326247Y-80048095D01*
X225174819Y-94285714D02*
X224174819Y-94285714D01*
X224174819Y-94285714D02*
X224174819Y-94523809D01*
X224174819Y-94523809D02*
X224222438Y-94666666D01*
X224222438Y-94666666D02*
X224317676Y-94761904D01*
X224317676Y-94761904D02*
X224412914Y-94809523D01*
X224412914Y-94809523D02*
X224603390Y-94857142D01*
X224603390Y-94857142D02*
X224746247Y-94857142D01*
X224746247Y-94857142D02*
X224936723Y-94809523D01*
X224936723Y-94809523D02*
X225031961Y-94761904D01*
X225031961Y-94761904D02*
X225127200Y-94666666D01*
X225127200Y-94666666D02*
X225174819Y-94523809D01*
X225174819Y-94523809D02*
X225174819Y-94285714D01*
X224174819Y-95761904D02*
X224174819Y-95285714D01*
X224174819Y-95285714D02*
X224651009Y-95238095D01*
X224651009Y-95238095D02*
X224603390Y-95285714D01*
X224603390Y-95285714D02*
X224555771Y-95380952D01*
X224555771Y-95380952D02*
X224555771Y-95619047D01*
X224555771Y-95619047D02*
X224603390Y-95714285D01*
X224603390Y-95714285D02*
X224651009Y-95761904D01*
X224651009Y-95761904D02*
X224746247Y-95809523D01*
X224746247Y-95809523D02*
X224984342Y-95809523D01*
X224984342Y-95809523D02*
X225079580Y-95761904D01*
X225079580Y-95761904D02*
X225127200Y-95714285D01*
X225127200Y-95714285D02*
X225174819Y-95619047D01*
X225174819Y-95619047D02*
X225174819Y-95380952D01*
X225174819Y-95380952D02*
X225127200Y-95285714D01*
X225127200Y-95285714D02*
X225079580Y-95238095D01*
X224270057Y-96190476D02*
X224222438Y-96238095D01*
X224222438Y-96238095D02*
X224174819Y-96333333D01*
X224174819Y-96333333D02*
X224174819Y-96571428D01*
X224174819Y-96571428D02*
X224222438Y-96666666D01*
X224222438Y-96666666D02*
X224270057Y-96714285D01*
X224270057Y-96714285D02*
X224365295Y-96761904D01*
X224365295Y-96761904D02*
X224460533Y-96761904D01*
X224460533Y-96761904D02*
X224603390Y-96714285D01*
X224603390Y-96714285D02*
X225174819Y-96142857D01*
X225174819Y-96142857D02*
X225174819Y-96761904D01*
X224854819Y-99048095D02*
X223854819Y-99048095D01*
X224854819Y-99619523D02*
X224283390Y-99190952D01*
X223854819Y-99619523D02*
X224426247Y-99048095D01*
X110874819Y-94285714D02*
X109874819Y-94285714D01*
X109874819Y-94285714D02*
X109874819Y-94523809D01*
X109874819Y-94523809D02*
X109922438Y-94666666D01*
X109922438Y-94666666D02*
X110017676Y-94761904D01*
X110017676Y-94761904D02*
X110112914Y-94809523D01*
X110112914Y-94809523D02*
X110303390Y-94857142D01*
X110303390Y-94857142D02*
X110446247Y-94857142D01*
X110446247Y-94857142D02*
X110636723Y-94809523D01*
X110636723Y-94809523D02*
X110731961Y-94761904D01*
X110731961Y-94761904D02*
X110827200Y-94666666D01*
X110827200Y-94666666D02*
X110874819Y-94523809D01*
X110874819Y-94523809D02*
X110874819Y-94285714D01*
X110208152Y-95714285D02*
X110874819Y-95714285D01*
X109827200Y-95476190D02*
X110541485Y-95238095D01*
X110541485Y-95238095D02*
X110541485Y-95857142D01*
X109874819Y-96666666D02*
X109874819Y-96476190D01*
X109874819Y-96476190D02*
X109922438Y-96380952D01*
X109922438Y-96380952D02*
X109970057Y-96333333D01*
X109970057Y-96333333D02*
X110112914Y-96238095D01*
X110112914Y-96238095D02*
X110303390Y-96190476D01*
X110303390Y-96190476D02*
X110684342Y-96190476D01*
X110684342Y-96190476D02*
X110779580Y-96238095D01*
X110779580Y-96238095D02*
X110827200Y-96285714D01*
X110827200Y-96285714D02*
X110874819Y-96380952D01*
X110874819Y-96380952D02*
X110874819Y-96571428D01*
X110874819Y-96571428D02*
X110827200Y-96666666D01*
X110827200Y-96666666D02*
X110779580Y-96714285D01*
X110779580Y-96714285D02*
X110684342Y-96761904D01*
X110684342Y-96761904D02*
X110446247Y-96761904D01*
X110446247Y-96761904D02*
X110351009Y-96714285D01*
X110351009Y-96714285D02*
X110303390Y-96666666D01*
X110303390Y-96666666D02*
X110255771Y-96571428D01*
X110255771Y-96571428D02*
X110255771Y-96380952D01*
X110255771Y-96380952D02*
X110303390Y-96285714D01*
X110303390Y-96285714D02*
X110351009Y-96238095D01*
X110351009Y-96238095D02*
X110446247Y-96190476D01*
X110554819Y-99048095D02*
X109554819Y-99048095D01*
X110554819Y-99619523D02*
X109983390Y-99190952D01*
X109554819Y-99619523D02*
X110126247Y-99048095D01*
X177274819Y-75285714D02*
X176274819Y-75285714D01*
X176274819Y-75285714D02*
X176274819Y-75523809D01*
X176274819Y-75523809D02*
X176322438Y-75666666D01*
X176322438Y-75666666D02*
X176417676Y-75761904D01*
X176417676Y-75761904D02*
X176512914Y-75809523D01*
X176512914Y-75809523D02*
X176703390Y-75857142D01*
X176703390Y-75857142D02*
X176846247Y-75857142D01*
X176846247Y-75857142D02*
X177036723Y-75809523D01*
X177036723Y-75809523D02*
X177131961Y-75761904D01*
X177131961Y-75761904D02*
X177227200Y-75666666D01*
X177227200Y-75666666D02*
X177274819Y-75523809D01*
X177274819Y-75523809D02*
X177274819Y-75285714D01*
X176274819Y-76190476D02*
X176274819Y-76809523D01*
X176274819Y-76809523D02*
X176655771Y-76476190D01*
X176655771Y-76476190D02*
X176655771Y-76619047D01*
X176655771Y-76619047D02*
X176703390Y-76714285D01*
X176703390Y-76714285D02*
X176751009Y-76761904D01*
X176751009Y-76761904D02*
X176846247Y-76809523D01*
X176846247Y-76809523D02*
X177084342Y-76809523D01*
X177084342Y-76809523D02*
X177179580Y-76761904D01*
X177179580Y-76761904D02*
X177227200Y-76714285D01*
X177227200Y-76714285D02*
X177274819Y-76619047D01*
X177274819Y-76619047D02*
X177274819Y-76333333D01*
X177274819Y-76333333D02*
X177227200Y-76238095D01*
X177227200Y-76238095D02*
X177179580Y-76190476D01*
X176274819Y-77142857D02*
X176274819Y-77809523D01*
X176274819Y-77809523D02*
X177274819Y-77380952D01*
X176954819Y-80048095D02*
X175954819Y-80048095D01*
X176954819Y-80619523D02*
X176383390Y-80190952D01*
X175954819Y-80619523D02*
X176526247Y-80048095D01*
X239574819Y-37075714D02*
X238574819Y-37075714D01*
X238574819Y-37075714D02*
X238574819Y-37313809D01*
X238574819Y-37313809D02*
X238622438Y-37456666D01*
X238622438Y-37456666D02*
X238717676Y-37551904D01*
X238717676Y-37551904D02*
X238812914Y-37599523D01*
X238812914Y-37599523D02*
X239003390Y-37647142D01*
X239003390Y-37647142D02*
X239146247Y-37647142D01*
X239146247Y-37647142D02*
X239336723Y-37599523D01*
X239336723Y-37599523D02*
X239431961Y-37551904D01*
X239431961Y-37551904D02*
X239527200Y-37456666D01*
X239527200Y-37456666D02*
X239574819Y-37313809D01*
X239574819Y-37313809D02*
X239574819Y-37075714D01*
X239574819Y-38599523D02*
X239574819Y-38028095D01*
X239574819Y-38313809D02*
X238574819Y-38313809D01*
X238574819Y-38313809D02*
X238717676Y-38218571D01*
X238717676Y-38218571D02*
X238812914Y-38123333D01*
X238812914Y-38123333D02*
X238860533Y-38028095D01*
X239574819Y-39551904D02*
X239574819Y-38980476D01*
X239574819Y-39266190D02*
X238574819Y-39266190D01*
X238574819Y-39266190D02*
X238717676Y-39170952D01*
X238717676Y-39170952D02*
X238812914Y-39075714D01*
X238812914Y-39075714D02*
X238860533Y-38980476D01*
X239254819Y-41838095D02*
X238254819Y-41838095D01*
X239254819Y-42409523D02*
X238683390Y-41980952D01*
X238254819Y-42409523D02*
X238826247Y-41838095D01*
X182424819Y-37551905D02*
X181424819Y-37551905D01*
X181424819Y-37551905D02*
X181424819Y-37790000D01*
X181424819Y-37790000D02*
X181472438Y-37932857D01*
X181472438Y-37932857D02*
X181567676Y-38028095D01*
X181567676Y-38028095D02*
X181662914Y-38075714D01*
X181662914Y-38075714D02*
X181853390Y-38123333D01*
X181853390Y-38123333D02*
X181996247Y-38123333D01*
X181996247Y-38123333D02*
X182186723Y-38075714D01*
X182186723Y-38075714D02*
X182281961Y-38028095D01*
X182281961Y-38028095D02*
X182377200Y-37932857D01*
X182377200Y-37932857D02*
X182424819Y-37790000D01*
X182424819Y-37790000D02*
X182424819Y-37551905D01*
X181853390Y-38694762D02*
X181805771Y-38599524D01*
X181805771Y-38599524D02*
X181758152Y-38551905D01*
X181758152Y-38551905D02*
X181662914Y-38504286D01*
X181662914Y-38504286D02*
X181615295Y-38504286D01*
X181615295Y-38504286D02*
X181520057Y-38551905D01*
X181520057Y-38551905D02*
X181472438Y-38599524D01*
X181472438Y-38599524D02*
X181424819Y-38694762D01*
X181424819Y-38694762D02*
X181424819Y-38885238D01*
X181424819Y-38885238D02*
X181472438Y-38980476D01*
X181472438Y-38980476D02*
X181520057Y-39028095D01*
X181520057Y-39028095D02*
X181615295Y-39075714D01*
X181615295Y-39075714D02*
X181662914Y-39075714D01*
X181662914Y-39075714D02*
X181758152Y-39028095D01*
X181758152Y-39028095D02*
X181805771Y-38980476D01*
X181805771Y-38980476D02*
X181853390Y-38885238D01*
X181853390Y-38885238D02*
X181853390Y-38694762D01*
X181853390Y-38694762D02*
X181901009Y-38599524D01*
X181901009Y-38599524D02*
X181948628Y-38551905D01*
X181948628Y-38551905D02*
X182043866Y-38504286D01*
X182043866Y-38504286D02*
X182234342Y-38504286D01*
X182234342Y-38504286D02*
X182329580Y-38551905D01*
X182329580Y-38551905D02*
X182377200Y-38599524D01*
X182377200Y-38599524D02*
X182424819Y-38694762D01*
X182424819Y-38694762D02*
X182424819Y-38885238D01*
X182424819Y-38885238D02*
X182377200Y-38980476D01*
X182377200Y-38980476D02*
X182329580Y-39028095D01*
X182329580Y-39028095D02*
X182234342Y-39075714D01*
X182234342Y-39075714D02*
X182043866Y-39075714D01*
X182043866Y-39075714D02*
X181948628Y-39028095D01*
X181948628Y-39028095D02*
X181901009Y-38980476D01*
X181901009Y-38980476D02*
X181853390Y-38885238D01*
X182104819Y-41838095D02*
X181104819Y-41838095D01*
X182104819Y-42409523D02*
X181533390Y-41980952D01*
X181104819Y-42409523D02*
X181676247Y-41838095D01*
X359074819Y-49785714D02*
X358074819Y-49785714D01*
X358074819Y-49785714D02*
X358074819Y-50023809D01*
X358074819Y-50023809D02*
X358122438Y-50166666D01*
X358122438Y-50166666D02*
X358217676Y-50261904D01*
X358217676Y-50261904D02*
X358312914Y-50309523D01*
X358312914Y-50309523D02*
X358503390Y-50357142D01*
X358503390Y-50357142D02*
X358646247Y-50357142D01*
X358646247Y-50357142D02*
X358836723Y-50309523D01*
X358836723Y-50309523D02*
X358931961Y-50261904D01*
X358931961Y-50261904D02*
X359027200Y-50166666D01*
X359027200Y-50166666D02*
X359074819Y-50023809D01*
X359074819Y-50023809D02*
X359074819Y-49785714D01*
X358074819Y-50690476D02*
X358074819Y-51309523D01*
X358074819Y-51309523D02*
X358455771Y-50976190D01*
X358455771Y-50976190D02*
X358455771Y-51119047D01*
X358455771Y-51119047D02*
X358503390Y-51214285D01*
X358503390Y-51214285D02*
X358551009Y-51261904D01*
X358551009Y-51261904D02*
X358646247Y-51309523D01*
X358646247Y-51309523D02*
X358884342Y-51309523D01*
X358884342Y-51309523D02*
X358979580Y-51261904D01*
X358979580Y-51261904D02*
X359027200Y-51214285D01*
X359027200Y-51214285D02*
X359074819Y-51119047D01*
X359074819Y-51119047D02*
X359074819Y-50833333D01*
X359074819Y-50833333D02*
X359027200Y-50738095D01*
X359027200Y-50738095D02*
X358979580Y-50690476D01*
X358074819Y-51928571D02*
X358074819Y-52023809D01*
X358074819Y-52023809D02*
X358122438Y-52119047D01*
X358122438Y-52119047D02*
X358170057Y-52166666D01*
X358170057Y-52166666D02*
X358265295Y-52214285D01*
X358265295Y-52214285D02*
X358455771Y-52261904D01*
X358455771Y-52261904D02*
X358693866Y-52261904D01*
X358693866Y-52261904D02*
X358884342Y-52214285D01*
X358884342Y-52214285D02*
X358979580Y-52166666D01*
X358979580Y-52166666D02*
X359027200Y-52119047D01*
X359027200Y-52119047D02*
X359074819Y-52023809D01*
X359074819Y-52023809D02*
X359074819Y-51928571D01*
X359074819Y-51928571D02*
X359027200Y-51833333D01*
X359027200Y-51833333D02*
X358979580Y-51785714D01*
X358979580Y-51785714D02*
X358884342Y-51738095D01*
X358884342Y-51738095D02*
X358693866Y-51690476D01*
X358693866Y-51690476D02*
X358455771Y-51690476D01*
X358455771Y-51690476D02*
X358265295Y-51738095D01*
X358265295Y-51738095D02*
X358170057Y-51785714D01*
X358170057Y-51785714D02*
X358122438Y-51833333D01*
X358122438Y-51833333D02*
X358074819Y-51928571D01*
X358754819Y-54548095D02*
X357754819Y-54548095D01*
X358754819Y-55119523D02*
X358183390Y-54690952D01*
X357754819Y-55119523D02*
X358326247Y-54548095D01*
X325074819Y-93785714D02*
X324074819Y-93785714D01*
X324074819Y-93785714D02*
X324074819Y-94023809D01*
X324074819Y-94023809D02*
X324122438Y-94166666D01*
X324122438Y-94166666D02*
X324217676Y-94261904D01*
X324217676Y-94261904D02*
X324312914Y-94309523D01*
X324312914Y-94309523D02*
X324503390Y-94357142D01*
X324503390Y-94357142D02*
X324646247Y-94357142D01*
X324646247Y-94357142D02*
X324836723Y-94309523D01*
X324836723Y-94309523D02*
X324931961Y-94261904D01*
X324931961Y-94261904D02*
X325027200Y-94166666D01*
X325027200Y-94166666D02*
X325074819Y-94023809D01*
X325074819Y-94023809D02*
X325074819Y-93785714D01*
X324074819Y-95261904D02*
X324074819Y-94785714D01*
X324074819Y-94785714D02*
X324551009Y-94738095D01*
X324551009Y-94738095D02*
X324503390Y-94785714D01*
X324503390Y-94785714D02*
X324455771Y-94880952D01*
X324455771Y-94880952D02*
X324455771Y-95119047D01*
X324455771Y-95119047D02*
X324503390Y-95214285D01*
X324503390Y-95214285D02*
X324551009Y-95261904D01*
X324551009Y-95261904D02*
X324646247Y-95309523D01*
X324646247Y-95309523D02*
X324884342Y-95309523D01*
X324884342Y-95309523D02*
X324979580Y-95261904D01*
X324979580Y-95261904D02*
X325027200Y-95214285D01*
X325027200Y-95214285D02*
X325074819Y-95119047D01*
X325074819Y-95119047D02*
X325074819Y-94880952D01*
X325074819Y-94880952D02*
X325027200Y-94785714D01*
X325027200Y-94785714D02*
X324979580Y-94738095D01*
X324074819Y-96214285D02*
X324074819Y-95738095D01*
X324074819Y-95738095D02*
X324551009Y-95690476D01*
X324551009Y-95690476D02*
X324503390Y-95738095D01*
X324503390Y-95738095D02*
X324455771Y-95833333D01*
X324455771Y-95833333D02*
X324455771Y-96071428D01*
X324455771Y-96071428D02*
X324503390Y-96166666D01*
X324503390Y-96166666D02*
X324551009Y-96214285D01*
X324551009Y-96214285D02*
X324646247Y-96261904D01*
X324646247Y-96261904D02*
X324884342Y-96261904D01*
X324884342Y-96261904D02*
X324979580Y-96214285D01*
X324979580Y-96214285D02*
X325027200Y-96166666D01*
X325027200Y-96166666D02*
X325074819Y-96071428D01*
X325074819Y-96071428D02*
X325074819Y-95833333D01*
X325074819Y-95833333D02*
X325027200Y-95738095D01*
X325027200Y-95738095D02*
X324979580Y-95690476D01*
X324754819Y-98548095D02*
X323754819Y-98548095D01*
X324754819Y-99119523D02*
X324183390Y-98690952D01*
X323754819Y-99119523D02*
X324326247Y-98548095D01*
X139174819Y-75285714D02*
X138174819Y-75285714D01*
X138174819Y-75285714D02*
X138174819Y-75523809D01*
X138174819Y-75523809D02*
X138222438Y-75666666D01*
X138222438Y-75666666D02*
X138317676Y-75761904D01*
X138317676Y-75761904D02*
X138412914Y-75809523D01*
X138412914Y-75809523D02*
X138603390Y-75857142D01*
X138603390Y-75857142D02*
X138746247Y-75857142D01*
X138746247Y-75857142D02*
X138936723Y-75809523D01*
X138936723Y-75809523D02*
X139031961Y-75761904D01*
X139031961Y-75761904D02*
X139127200Y-75666666D01*
X139127200Y-75666666D02*
X139174819Y-75523809D01*
X139174819Y-75523809D02*
X139174819Y-75285714D01*
X138174819Y-76190476D02*
X138174819Y-76809523D01*
X138174819Y-76809523D02*
X138555771Y-76476190D01*
X138555771Y-76476190D02*
X138555771Y-76619047D01*
X138555771Y-76619047D02*
X138603390Y-76714285D01*
X138603390Y-76714285D02*
X138651009Y-76761904D01*
X138651009Y-76761904D02*
X138746247Y-76809523D01*
X138746247Y-76809523D02*
X138984342Y-76809523D01*
X138984342Y-76809523D02*
X139079580Y-76761904D01*
X139079580Y-76761904D02*
X139127200Y-76714285D01*
X139127200Y-76714285D02*
X139174819Y-76619047D01*
X139174819Y-76619047D02*
X139174819Y-76333333D01*
X139174819Y-76333333D02*
X139127200Y-76238095D01*
X139127200Y-76238095D02*
X139079580Y-76190476D01*
X138174819Y-77714285D02*
X138174819Y-77238095D01*
X138174819Y-77238095D02*
X138651009Y-77190476D01*
X138651009Y-77190476D02*
X138603390Y-77238095D01*
X138603390Y-77238095D02*
X138555771Y-77333333D01*
X138555771Y-77333333D02*
X138555771Y-77571428D01*
X138555771Y-77571428D02*
X138603390Y-77666666D01*
X138603390Y-77666666D02*
X138651009Y-77714285D01*
X138651009Y-77714285D02*
X138746247Y-77761904D01*
X138746247Y-77761904D02*
X138984342Y-77761904D01*
X138984342Y-77761904D02*
X139079580Y-77714285D01*
X139079580Y-77714285D02*
X139127200Y-77666666D01*
X139127200Y-77666666D02*
X139174819Y-77571428D01*
X139174819Y-77571428D02*
X139174819Y-77333333D01*
X139174819Y-77333333D02*
X139127200Y-77238095D01*
X139127200Y-77238095D02*
X139079580Y-77190476D01*
X138854819Y-80048095D02*
X137854819Y-80048095D01*
X138854819Y-80619523D02*
X138283390Y-80190952D01*
X137854819Y-80619523D02*
X138426247Y-80048095D01*
X172774819Y-56785714D02*
X171774819Y-56785714D01*
X171774819Y-56785714D02*
X171774819Y-57023809D01*
X171774819Y-57023809D02*
X171822438Y-57166666D01*
X171822438Y-57166666D02*
X171917676Y-57261904D01*
X171917676Y-57261904D02*
X172012914Y-57309523D01*
X172012914Y-57309523D02*
X172203390Y-57357142D01*
X172203390Y-57357142D02*
X172346247Y-57357142D01*
X172346247Y-57357142D02*
X172536723Y-57309523D01*
X172536723Y-57309523D02*
X172631961Y-57261904D01*
X172631961Y-57261904D02*
X172727200Y-57166666D01*
X172727200Y-57166666D02*
X172774819Y-57023809D01*
X172774819Y-57023809D02*
X172774819Y-56785714D01*
X171870057Y-57738095D02*
X171822438Y-57785714D01*
X171822438Y-57785714D02*
X171774819Y-57880952D01*
X171774819Y-57880952D02*
X171774819Y-58119047D01*
X171774819Y-58119047D02*
X171822438Y-58214285D01*
X171822438Y-58214285D02*
X171870057Y-58261904D01*
X171870057Y-58261904D02*
X171965295Y-58309523D01*
X171965295Y-58309523D02*
X172060533Y-58309523D01*
X172060533Y-58309523D02*
X172203390Y-58261904D01*
X172203390Y-58261904D02*
X172774819Y-57690476D01*
X172774819Y-57690476D02*
X172774819Y-58309523D01*
X171870057Y-58690476D02*
X171822438Y-58738095D01*
X171822438Y-58738095D02*
X171774819Y-58833333D01*
X171774819Y-58833333D02*
X171774819Y-59071428D01*
X171774819Y-59071428D02*
X171822438Y-59166666D01*
X171822438Y-59166666D02*
X171870057Y-59214285D01*
X171870057Y-59214285D02*
X171965295Y-59261904D01*
X171965295Y-59261904D02*
X172060533Y-59261904D01*
X172060533Y-59261904D02*
X172203390Y-59214285D01*
X172203390Y-59214285D02*
X172774819Y-58642857D01*
X172774819Y-58642857D02*
X172774819Y-59261904D01*
X172454819Y-61548095D02*
X171454819Y-61548095D01*
X172454819Y-62119523D02*
X171883390Y-61690952D01*
X171454819Y-62119523D02*
X172026247Y-61548095D01*
X77524819Y-56785714D02*
X76524819Y-56785714D01*
X76524819Y-56785714D02*
X76524819Y-57023809D01*
X76524819Y-57023809D02*
X76572438Y-57166666D01*
X76572438Y-57166666D02*
X76667676Y-57261904D01*
X76667676Y-57261904D02*
X76762914Y-57309523D01*
X76762914Y-57309523D02*
X76953390Y-57357142D01*
X76953390Y-57357142D02*
X77096247Y-57357142D01*
X77096247Y-57357142D02*
X77286723Y-57309523D01*
X77286723Y-57309523D02*
X77381961Y-57261904D01*
X77381961Y-57261904D02*
X77477200Y-57166666D01*
X77477200Y-57166666D02*
X77524819Y-57023809D01*
X77524819Y-57023809D02*
X77524819Y-56785714D01*
X77524819Y-58309523D02*
X77524819Y-57738095D01*
X77524819Y-58023809D02*
X76524819Y-58023809D01*
X76524819Y-58023809D02*
X76667676Y-57928571D01*
X76667676Y-57928571D02*
X76762914Y-57833333D01*
X76762914Y-57833333D02*
X76810533Y-57738095D01*
X76524819Y-58642857D02*
X76524819Y-59309523D01*
X76524819Y-59309523D02*
X77524819Y-58880952D01*
X77204819Y-61548095D02*
X76204819Y-61548095D01*
X77204819Y-62119523D02*
X76633390Y-61690952D01*
X76204819Y-62119523D02*
X76776247Y-61548095D01*
X115624819Y-56785714D02*
X114624819Y-56785714D01*
X114624819Y-56785714D02*
X114624819Y-57023809D01*
X114624819Y-57023809D02*
X114672438Y-57166666D01*
X114672438Y-57166666D02*
X114767676Y-57261904D01*
X114767676Y-57261904D02*
X114862914Y-57309523D01*
X114862914Y-57309523D02*
X115053390Y-57357142D01*
X115053390Y-57357142D02*
X115196247Y-57357142D01*
X115196247Y-57357142D02*
X115386723Y-57309523D01*
X115386723Y-57309523D02*
X115481961Y-57261904D01*
X115481961Y-57261904D02*
X115577200Y-57166666D01*
X115577200Y-57166666D02*
X115624819Y-57023809D01*
X115624819Y-57023809D02*
X115624819Y-56785714D01*
X115624819Y-58309523D02*
X115624819Y-57738095D01*
X115624819Y-58023809D02*
X114624819Y-58023809D01*
X114624819Y-58023809D02*
X114767676Y-57928571D01*
X114767676Y-57928571D02*
X114862914Y-57833333D01*
X114862914Y-57833333D02*
X114910533Y-57738095D01*
X115624819Y-58785714D02*
X115624819Y-58976190D01*
X115624819Y-58976190D02*
X115577200Y-59071428D01*
X115577200Y-59071428D02*
X115529580Y-59119047D01*
X115529580Y-59119047D02*
X115386723Y-59214285D01*
X115386723Y-59214285D02*
X115196247Y-59261904D01*
X115196247Y-59261904D02*
X114815295Y-59261904D01*
X114815295Y-59261904D02*
X114720057Y-59214285D01*
X114720057Y-59214285D02*
X114672438Y-59166666D01*
X114672438Y-59166666D02*
X114624819Y-59071428D01*
X114624819Y-59071428D02*
X114624819Y-58880952D01*
X114624819Y-58880952D02*
X114672438Y-58785714D01*
X114672438Y-58785714D02*
X114720057Y-58738095D01*
X114720057Y-58738095D02*
X114815295Y-58690476D01*
X114815295Y-58690476D02*
X115053390Y-58690476D01*
X115053390Y-58690476D02*
X115148628Y-58738095D01*
X115148628Y-58738095D02*
X115196247Y-58785714D01*
X115196247Y-58785714D02*
X115243866Y-58880952D01*
X115243866Y-58880952D02*
X115243866Y-59071428D01*
X115243866Y-59071428D02*
X115196247Y-59166666D01*
X115196247Y-59166666D02*
X115148628Y-59214285D01*
X115148628Y-59214285D02*
X115053390Y-59261904D01*
X115304819Y-61548095D02*
X114304819Y-61548095D01*
X115304819Y-62119523D02*
X114733390Y-61690952D01*
X114304819Y-62119523D02*
X114876247Y-61548095D01*
X68124819Y-37551905D02*
X67124819Y-37551905D01*
X67124819Y-37551905D02*
X67124819Y-37790000D01*
X67124819Y-37790000D02*
X67172438Y-37932857D01*
X67172438Y-37932857D02*
X67267676Y-38028095D01*
X67267676Y-38028095D02*
X67362914Y-38075714D01*
X67362914Y-38075714D02*
X67553390Y-38123333D01*
X67553390Y-38123333D02*
X67696247Y-38123333D01*
X67696247Y-38123333D02*
X67886723Y-38075714D01*
X67886723Y-38075714D02*
X67981961Y-38028095D01*
X67981961Y-38028095D02*
X68077200Y-37932857D01*
X68077200Y-37932857D02*
X68124819Y-37790000D01*
X68124819Y-37790000D02*
X68124819Y-37551905D01*
X67220057Y-38504286D02*
X67172438Y-38551905D01*
X67172438Y-38551905D02*
X67124819Y-38647143D01*
X67124819Y-38647143D02*
X67124819Y-38885238D01*
X67124819Y-38885238D02*
X67172438Y-38980476D01*
X67172438Y-38980476D02*
X67220057Y-39028095D01*
X67220057Y-39028095D02*
X67315295Y-39075714D01*
X67315295Y-39075714D02*
X67410533Y-39075714D01*
X67410533Y-39075714D02*
X67553390Y-39028095D01*
X67553390Y-39028095D02*
X68124819Y-38456667D01*
X68124819Y-38456667D02*
X68124819Y-39075714D01*
X67804819Y-41838095D02*
X66804819Y-41838095D01*
X67804819Y-42409523D02*
X67233390Y-41980952D01*
X66804819Y-42409523D02*
X67376247Y-41838095D01*
X258624819Y-37075714D02*
X257624819Y-37075714D01*
X257624819Y-37075714D02*
X257624819Y-37313809D01*
X257624819Y-37313809D02*
X257672438Y-37456666D01*
X257672438Y-37456666D02*
X257767676Y-37551904D01*
X257767676Y-37551904D02*
X257862914Y-37599523D01*
X257862914Y-37599523D02*
X258053390Y-37647142D01*
X258053390Y-37647142D02*
X258196247Y-37647142D01*
X258196247Y-37647142D02*
X258386723Y-37599523D01*
X258386723Y-37599523D02*
X258481961Y-37551904D01*
X258481961Y-37551904D02*
X258577200Y-37456666D01*
X258577200Y-37456666D02*
X258624819Y-37313809D01*
X258624819Y-37313809D02*
X258624819Y-37075714D01*
X258624819Y-38599523D02*
X258624819Y-38028095D01*
X258624819Y-38313809D02*
X257624819Y-38313809D01*
X257624819Y-38313809D02*
X257767676Y-38218571D01*
X257767676Y-38218571D02*
X257862914Y-38123333D01*
X257862914Y-38123333D02*
X257910533Y-38028095D01*
X257720057Y-38980476D02*
X257672438Y-39028095D01*
X257672438Y-39028095D02*
X257624819Y-39123333D01*
X257624819Y-39123333D02*
X257624819Y-39361428D01*
X257624819Y-39361428D02*
X257672438Y-39456666D01*
X257672438Y-39456666D02*
X257720057Y-39504285D01*
X257720057Y-39504285D02*
X257815295Y-39551904D01*
X257815295Y-39551904D02*
X257910533Y-39551904D01*
X257910533Y-39551904D02*
X258053390Y-39504285D01*
X258053390Y-39504285D02*
X258624819Y-38932857D01*
X258624819Y-38932857D02*
X258624819Y-39551904D01*
X258304819Y-41838095D02*
X257304819Y-41838095D01*
X258304819Y-42409523D02*
X257733390Y-41980952D01*
X257304819Y-42409523D02*
X257876247Y-41838095D01*
X166074819Y-112785714D02*
X165074819Y-112785714D01*
X165074819Y-112785714D02*
X165074819Y-113023809D01*
X165074819Y-113023809D02*
X165122438Y-113166666D01*
X165122438Y-113166666D02*
X165217676Y-113261904D01*
X165217676Y-113261904D02*
X165312914Y-113309523D01*
X165312914Y-113309523D02*
X165503390Y-113357142D01*
X165503390Y-113357142D02*
X165646247Y-113357142D01*
X165646247Y-113357142D02*
X165836723Y-113309523D01*
X165836723Y-113309523D02*
X165931961Y-113261904D01*
X165931961Y-113261904D02*
X166027200Y-113166666D01*
X166027200Y-113166666D02*
X166074819Y-113023809D01*
X166074819Y-113023809D02*
X166074819Y-112785714D01*
X165074819Y-114261904D02*
X165074819Y-113785714D01*
X165074819Y-113785714D02*
X165551009Y-113738095D01*
X165551009Y-113738095D02*
X165503390Y-113785714D01*
X165503390Y-113785714D02*
X165455771Y-113880952D01*
X165455771Y-113880952D02*
X165455771Y-114119047D01*
X165455771Y-114119047D02*
X165503390Y-114214285D01*
X165503390Y-114214285D02*
X165551009Y-114261904D01*
X165551009Y-114261904D02*
X165646247Y-114309523D01*
X165646247Y-114309523D02*
X165884342Y-114309523D01*
X165884342Y-114309523D02*
X165979580Y-114261904D01*
X165979580Y-114261904D02*
X166027200Y-114214285D01*
X166027200Y-114214285D02*
X166074819Y-114119047D01*
X166074819Y-114119047D02*
X166074819Y-113880952D01*
X166074819Y-113880952D02*
X166027200Y-113785714D01*
X166027200Y-113785714D02*
X165979580Y-113738095D01*
X166074819Y-114785714D02*
X166074819Y-114976190D01*
X166074819Y-114976190D02*
X166027200Y-115071428D01*
X166027200Y-115071428D02*
X165979580Y-115119047D01*
X165979580Y-115119047D02*
X165836723Y-115214285D01*
X165836723Y-115214285D02*
X165646247Y-115261904D01*
X165646247Y-115261904D02*
X165265295Y-115261904D01*
X165265295Y-115261904D02*
X165170057Y-115214285D01*
X165170057Y-115214285D02*
X165122438Y-115166666D01*
X165122438Y-115166666D02*
X165074819Y-115071428D01*
X165074819Y-115071428D02*
X165074819Y-114880952D01*
X165074819Y-114880952D02*
X165122438Y-114785714D01*
X165122438Y-114785714D02*
X165170057Y-114738095D01*
X165170057Y-114738095D02*
X165265295Y-114690476D01*
X165265295Y-114690476D02*
X165503390Y-114690476D01*
X165503390Y-114690476D02*
X165598628Y-114738095D01*
X165598628Y-114738095D02*
X165646247Y-114785714D01*
X165646247Y-114785714D02*
X165693866Y-114880952D01*
X165693866Y-114880952D02*
X165693866Y-115071428D01*
X165693866Y-115071428D02*
X165646247Y-115166666D01*
X165646247Y-115166666D02*
X165598628Y-115214285D01*
X165598628Y-115214285D02*
X165503390Y-115261904D01*
X165754819Y-117548095D02*
X164754819Y-117548095D01*
X165754819Y-118119523D02*
X165183390Y-117690952D01*
X164754819Y-118119523D02*
X165326247Y-117548095D01*
X272524819Y-75285714D02*
X271524819Y-75285714D01*
X271524819Y-75285714D02*
X271524819Y-75523809D01*
X271524819Y-75523809D02*
X271572438Y-75666666D01*
X271572438Y-75666666D02*
X271667676Y-75761904D01*
X271667676Y-75761904D02*
X271762914Y-75809523D01*
X271762914Y-75809523D02*
X271953390Y-75857142D01*
X271953390Y-75857142D02*
X272096247Y-75857142D01*
X272096247Y-75857142D02*
X272286723Y-75809523D01*
X272286723Y-75809523D02*
X272381961Y-75761904D01*
X272381961Y-75761904D02*
X272477200Y-75666666D01*
X272477200Y-75666666D02*
X272524819Y-75523809D01*
X272524819Y-75523809D02*
X272524819Y-75285714D01*
X271858152Y-76714285D02*
X272524819Y-76714285D01*
X271477200Y-76476190D02*
X272191485Y-76238095D01*
X272191485Y-76238095D02*
X272191485Y-76857142D01*
X271620057Y-77190476D02*
X271572438Y-77238095D01*
X271572438Y-77238095D02*
X271524819Y-77333333D01*
X271524819Y-77333333D02*
X271524819Y-77571428D01*
X271524819Y-77571428D02*
X271572438Y-77666666D01*
X271572438Y-77666666D02*
X271620057Y-77714285D01*
X271620057Y-77714285D02*
X271715295Y-77761904D01*
X271715295Y-77761904D02*
X271810533Y-77761904D01*
X271810533Y-77761904D02*
X271953390Y-77714285D01*
X271953390Y-77714285D02*
X272524819Y-77142857D01*
X272524819Y-77142857D02*
X272524819Y-77761904D01*
X272204819Y-80048095D02*
X271204819Y-80048095D01*
X272204819Y-80619523D02*
X271633390Y-80190952D01*
X271204819Y-80619523D02*
X271776247Y-80048095D01*
X148974819Y-94285714D02*
X147974819Y-94285714D01*
X147974819Y-94285714D02*
X147974819Y-94523809D01*
X147974819Y-94523809D02*
X148022438Y-94666666D01*
X148022438Y-94666666D02*
X148117676Y-94761904D01*
X148117676Y-94761904D02*
X148212914Y-94809523D01*
X148212914Y-94809523D02*
X148403390Y-94857142D01*
X148403390Y-94857142D02*
X148546247Y-94857142D01*
X148546247Y-94857142D02*
X148736723Y-94809523D01*
X148736723Y-94809523D02*
X148831961Y-94761904D01*
X148831961Y-94761904D02*
X148927200Y-94666666D01*
X148927200Y-94666666D02*
X148974819Y-94523809D01*
X148974819Y-94523809D02*
X148974819Y-94285714D01*
X148308152Y-95714285D02*
X148974819Y-95714285D01*
X147927200Y-95476190D02*
X148641485Y-95238095D01*
X148641485Y-95238095D02*
X148641485Y-95857142D01*
X148403390Y-96380952D02*
X148355771Y-96285714D01*
X148355771Y-96285714D02*
X148308152Y-96238095D01*
X148308152Y-96238095D02*
X148212914Y-96190476D01*
X148212914Y-96190476D02*
X148165295Y-96190476D01*
X148165295Y-96190476D02*
X148070057Y-96238095D01*
X148070057Y-96238095D02*
X148022438Y-96285714D01*
X148022438Y-96285714D02*
X147974819Y-96380952D01*
X147974819Y-96380952D02*
X147974819Y-96571428D01*
X147974819Y-96571428D02*
X148022438Y-96666666D01*
X148022438Y-96666666D02*
X148070057Y-96714285D01*
X148070057Y-96714285D02*
X148165295Y-96761904D01*
X148165295Y-96761904D02*
X148212914Y-96761904D01*
X148212914Y-96761904D02*
X148308152Y-96714285D01*
X148308152Y-96714285D02*
X148355771Y-96666666D01*
X148355771Y-96666666D02*
X148403390Y-96571428D01*
X148403390Y-96571428D02*
X148403390Y-96380952D01*
X148403390Y-96380952D02*
X148451009Y-96285714D01*
X148451009Y-96285714D02*
X148498628Y-96238095D01*
X148498628Y-96238095D02*
X148593866Y-96190476D01*
X148593866Y-96190476D02*
X148784342Y-96190476D01*
X148784342Y-96190476D02*
X148879580Y-96238095D01*
X148879580Y-96238095D02*
X148927200Y-96285714D01*
X148927200Y-96285714D02*
X148974819Y-96380952D01*
X148974819Y-96380952D02*
X148974819Y-96571428D01*
X148974819Y-96571428D02*
X148927200Y-96666666D01*
X148927200Y-96666666D02*
X148879580Y-96714285D01*
X148879580Y-96714285D02*
X148784342Y-96761904D01*
X148784342Y-96761904D02*
X148593866Y-96761904D01*
X148593866Y-96761904D02*
X148498628Y-96714285D01*
X148498628Y-96714285D02*
X148451009Y-96666666D01*
X148451009Y-96666666D02*
X148403390Y-96571428D01*
X148654819Y-99048095D02*
X147654819Y-99048095D01*
X148654819Y-99619523D02*
X148083390Y-99190952D01*
X147654819Y-99619523D02*
X148226247Y-99048095D01*
X53712319Y-56785714D02*
X52712319Y-56785714D01*
X52712319Y-56785714D02*
X52712319Y-57023809D01*
X52712319Y-57023809D02*
X52759938Y-57166666D01*
X52759938Y-57166666D02*
X52855176Y-57261904D01*
X52855176Y-57261904D02*
X52950414Y-57309523D01*
X52950414Y-57309523D02*
X53140890Y-57357142D01*
X53140890Y-57357142D02*
X53283747Y-57357142D01*
X53283747Y-57357142D02*
X53474223Y-57309523D01*
X53474223Y-57309523D02*
X53569461Y-57261904D01*
X53569461Y-57261904D02*
X53664700Y-57166666D01*
X53664700Y-57166666D02*
X53712319Y-57023809D01*
X53712319Y-57023809D02*
X53712319Y-56785714D01*
X53712319Y-58309523D02*
X53712319Y-57738095D01*
X53712319Y-58023809D02*
X52712319Y-58023809D01*
X52712319Y-58023809D02*
X52855176Y-57928571D01*
X52855176Y-57928571D02*
X52950414Y-57833333D01*
X52950414Y-57833333D02*
X52998033Y-57738095D01*
X52712319Y-59166666D02*
X52712319Y-58976190D01*
X52712319Y-58976190D02*
X52759938Y-58880952D01*
X52759938Y-58880952D02*
X52807557Y-58833333D01*
X52807557Y-58833333D02*
X52950414Y-58738095D01*
X52950414Y-58738095D02*
X53140890Y-58690476D01*
X53140890Y-58690476D02*
X53521842Y-58690476D01*
X53521842Y-58690476D02*
X53617080Y-58738095D01*
X53617080Y-58738095D02*
X53664700Y-58785714D01*
X53664700Y-58785714D02*
X53712319Y-58880952D01*
X53712319Y-58880952D02*
X53712319Y-59071428D01*
X53712319Y-59071428D02*
X53664700Y-59166666D01*
X53664700Y-59166666D02*
X53617080Y-59214285D01*
X53617080Y-59214285D02*
X53521842Y-59261904D01*
X53521842Y-59261904D02*
X53283747Y-59261904D01*
X53283747Y-59261904D02*
X53188509Y-59214285D01*
X53188509Y-59214285D02*
X53140890Y-59166666D01*
X53140890Y-59166666D02*
X53093271Y-59071428D01*
X53093271Y-59071428D02*
X53093271Y-58880952D01*
X53093271Y-58880952D02*
X53140890Y-58785714D01*
X53140890Y-58785714D02*
X53188509Y-58738095D01*
X53188509Y-58738095D02*
X53283747Y-58690476D01*
X53392319Y-61548095D02*
X52392319Y-61548095D01*
X53392319Y-62119523D02*
X52820890Y-61690952D01*
X52392319Y-62119523D02*
X52963747Y-61548095D01*
X304074819Y-74785714D02*
X303074819Y-74785714D01*
X303074819Y-74785714D02*
X303074819Y-75023809D01*
X303074819Y-75023809D02*
X303122438Y-75166666D01*
X303122438Y-75166666D02*
X303217676Y-75261904D01*
X303217676Y-75261904D02*
X303312914Y-75309523D01*
X303312914Y-75309523D02*
X303503390Y-75357142D01*
X303503390Y-75357142D02*
X303646247Y-75357142D01*
X303646247Y-75357142D02*
X303836723Y-75309523D01*
X303836723Y-75309523D02*
X303931961Y-75261904D01*
X303931961Y-75261904D02*
X304027200Y-75166666D01*
X304027200Y-75166666D02*
X304074819Y-75023809D01*
X304074819Y-75023809D02*
X304074819Y-74785714D01*
X303408152Y-76214285D02*
X304074819Y-76214285D01*
X303027200Y-75976190D02*
X303741485Y-75738095D01*
X303741485Y-75738095D02*
X303741485Y-76357142D01*
X303074819Y-76642857D02*
X303074819Y-77261904D01*
X303074819Y-77261904D02*
X303455771Y-76928571D01*
X303455771Y-76928571D02*
X303455771Y-77071428D01*
X303455771Y-77071428D02*
X303503390Y-77166666D01*
X303503390Y-77166666D02*
X303551009Y-77214285D01*
X303551009Y-77214285D02*
X303646247Y-77261904D01*
X303646247Y-77261904D02*
X303884342Y-77261904D01*
X303884342Y-77261904D02*
X303979580Y-77214285D01*
X303979580Y-77214285D02*
X304027200Y-77166666D01*
X304027200Y-77166666D02*
X304074819Y-77071428D01*
X304074819Y-77071428D02*
X304074819Y-76785714D01*
X304074819Y-76785714D02*
X304027200Y-76690476D01*
X304027200Y-76690476D02*
X303979580Y-76642857D01*
X303754819Y-79548095D02*
X302754819Y-79548095D01*
X303754819Y-80119523D02*
X303183390Y-79690952D01*
X302754819Y-80119523D02*
X303326247Y-79548095D01*
X71574819Y-112285714D02*
X70574819Y-112285714D01*
X70574819Y-112285714D02*
X70574819Y-112523809D01*
X70574819Y-112523809D02*
X70622438Y-112666666D01*
X70622438Y-112666666D02*
X70717676Y-112761904D01*
X70717676Y-112761904D02*
X70812914Y-112809523D01*
X70812914Y-112809523D02*
X71003390Y-112857142D01*
X71003390Y-112857142D02*
X71146247Y-112857142D01*
X71146247Y-112857142D02*
X71336723Y-112809523D01*
X71336723Y-112809523D02*
X71431961Y-112761904D01*
X71431961Y-112761904D02*
X71527200Y-112666666D01*
X71527200Y-112666666D02*
X71574819Y-112523809D01*
X71574819Y-112523809D02*
X71574819Y-112285714D01*
X70574819Y-113761904D02*
X70574819Y-113285714D01*
X70574819Y-113285714D02*
X71051009Y-113238095D01*
X71051009Y-113238095D02*
X71003390Y-113285714D01*
X71003390Y-113285714D02*
X70955771Y-113380952D01*
X70955771Y-113380952D02*
X70955771Y-113619047D01*
X70955771Y-113619047D02*
X71003390Y-113714285D01*
X71003390Y-113714285D02*
X71051009Y-113761904D01*
X71051009Y-113761904D02*
X71146247Y-113809523D01*
X71146247Y-113809523D02*
X71384342Y-113809523D01*
X71384342Y-113809523D02*
X71479580Y-113761904D01*
X71479580Y-113761904D02*
X71527200Y-113714285D01*
X71527200Y-113714285D02*
X71574819Y-113619047D01*
X71574819Y-113619047D02*
X71574819Y-113380952D01*
X71574819Y-113380952D02*
X71527200Y-113285714D01*
X71527200Y-113285714D02*
X71479580Y-113238095D01*
X70574819Y-114142857D02*
X70574819Y-114809523D01*
X70574819Y-114809523D02*
X71574819Y-114380952D01*
X71254819Y-117048095D02*
X70254819Y-117048095D01*
X71254819Y-117619523D02*
X70683390Y-117190952D01*
X70254819Y-117619523D02*
X70826247Y-117048095D01*
X244224819Y-94285714D02*
X243224819Y-94285714D01*
X243224819Y-94285714D02*
X243224819Y-94523809D01*
X243224819Y-94523809D02*
X243272438Y-94666666D01*
X243272438Y-94666666D02*
X243367676Y-94761904D01*
X243367676Y-94761904D02*
X243462914Y-94809523D01*
X243462914Y-94809523D02*
X243653390Y-94857142D01*
X243653390Y-94857142D02*
X243796247Y-94857142D01*
X243796247Y-94857142D02*
X243986723Y-94809523D01*
X243986723Y-94809523D02*
X244081961Y-94761904D01*
X244081961Y-94761904D02*
X244177200Y-94666666D01*
X244177200Y-94666666D02*
X244224819Y-94523809D01*
X244224819Y-94523809D02*
X244224819Y-94285714D01*
X243224819Y-95761904D02*
X243224819Y-95285714D01*
X243224819Y-95285714D02*
X243701009Y-95238095D01*
X243701009Y-95238095D02*
X243653390Y-95285714D01*
X243653390Y-95285714D02*
X243605771Y-95380952D01*
X243605771Y-95380952D02*
X243605771Y-95619047D01*
X243605771Y-95619047D02*
X243653390Y-95714285D01*
X243653390Y-95714285D02*
X243701009Y-95761904D01*
X243701009Y-95761904D02*
X243796247Y-95809523D01*
X243796247Y-95809523D02*
X244034342Y-95809523D01*
X244034342Y-95809523D02*
X244129580Y-95761904D01*
X244129580Y-95761904D02*
X244177200Y-95714285D01*
X244177200Y-95714285D02*
X244224819Y-95619047D01*
X244224819Y-95619047D02*
X244224819Y-95380952D01*
X244224819Y-95380952D02*
X244177200Y-95285714D01*
X244177200Y-95285714D02*
X244129580Y-95238095D01*
X243224819Y-96142857D02*
X243224819Y-96761904D01*
X243224819Y-96761904D02*
X243605771Y-96428571D01*
X243605771Y-96428571D02*
X243605771Y-96571428D01*
X243605771Y-96571428D02*
X243653390Y-96666666D01*
X243653390Y-96666666D02*
X243701009Y-96714285D01*
X243701009Y-96714285D02*
X243796247Y-96761904D01*
X243796247Y-96761904D02*
X244034342Y-96761904D01*
X244034342Y-96761904D02*
X244129580Y-96714285D01*
X244129580Y-96714285D02*
X244177200Y-96666666D01*
X244177200Y-96666666D02*
X244224819Y-96571428D01*
X244224819Y-96571428D02*
X244224819Y-96285714D01*
X244224819Y-96285714D02*
X244177200Y-96190476D01*
X244177200Y-96190476D02*
X244129580Y-96142857D01*
X243904819Y-99048095D02*
X242904819Y-99048095D01*
X243904819Y-99619523D02*
X243333390Y-99190952D01*
X242904819Y-99619523D02*
X243476247Y-99048095D01*
X210874819Y-56785714D02*
X209874819Y-56785714D01*
X209874819Y-56785714D02*
X209874819Y-57023809D01*
X209874819Y-57023809D02*
X209922438Y-57166666D01*
X209922438Y-57166666D02*
X210017676Y-57261904D01*
X210017676Y-57261904D02*
X210112914Y-57309523D01*
X210112914Y-57309523D02*
X210303390Y-57357142D01*
X210303390Y-57357142D02*
X210446247Y-57357142D01*
X210446247Y-57357142D02*
X210636723Y-57309523D01*
X210636723Y-57309523D02*
X210731961Y-57261904D01*
X210731961Y-57261904D02*
X210827200Y-57166666D01*
X210827200Y-57166666D02*
X210874819Y-57023809D01*
X210874819Y-57023809D02*
X210874819Y-56785714D01*
X209970057Y-57738095D02*
X209922438Y-57785714D01*
X209922438Y-57785714D02*
X209874819Y-57880952D01*
X209874819Y-57880952D02*
X209874819Y-58119047D01*
X209874819Y-58119047D02*
X209922438Y-58214285D01*
X209922438Y-58214285D02*
X209970057Y-58261904D01*
X209970057Y-58261904D02*
X210065295Y-58309523D01*
X210065295Y-58309523D02*
X210160533Y-58309523D01*
X210160533Y-58309523D02*
X210303390Y-58261904D01*
X210303390Y-58261904D02*
X210874819Y-57690476D01*
X210874819Y-57690476D02*
X210874819Y-58309523D01*
X210208152Y-59166666D02*
X210874819Y-59166666D01*
X209827200Y-58928571D02*
X210541485Y-58690476D01*
X210541485Y-58690476D02*
X210541485Y-59309523D01*
X210554819Y-61548095D02*
X209554819Y-61548095D01*
X210554819Y-62119523D02*
X209983390Y-61690952D01*
X209554819Y-62119523D02*
X210126247Y-61548095D01*
X187074819Y-94285714D02*
X186074819Y-94285714D01*
X186074819Y-94285714D02*
X186074819Y-94523809D01*
X186074819Y-94523809D02*
X186122438Y-94666666D01*
X186122438Y-94666666D02*
X186217676Y-94761904D01*
X186217676Y-94761904D02*
X186312914Y-94809523D01*
X186312914Y-94809523D02*
X186503390Y-94857142D01*
X186503390Y-94857142D02*
X186646247Y-94857142D01*
X186646247Y-94857142D02*
X186836723Y-94809523D01*
X186836723Y-94809523D02*
X186931961Y-94761904D01*
X186931961Y-94761904D02*
X187027200Y-94666666D01*
X187027200Y-94666666D02*
X187074819Y-94523809D01*
X187074819Y-94523809D02*
X187074819Y-94285714D01*
X186074819Y-95761904D02*
X186074819Y-95285714D01*
X186074819Y-95285714D02*
X186551009Y-95238095D01*
X186551009Y-95238095D02*
X186503390Y-95285714D01*
X186503390Y-95285714D02*
X186455771Y-95380952D01*
X186455771Y-95380952D02*
X186455771Y-95619047D01*
X186455771Y-95619047D02*
X186503390Y-95714285D01*
X186503390Y-95714285D02*
X186551009Y-95761904D01*
X186551009Y-95761904D02*
X186646247Y-95809523D01*
X186646247Y-95809523D02*
X186884342Y-95809523D01*
X186884342Y-95809523D02*
X186979580Y-95761904D01*
X186979580Y-95761904D02*
X187027200Y-95714285D01*
X187027200Y-95714285D02*
X187074819Y-95619047D01*
X187074819Y-95619047D02*
X187074819Y-95380952D01*
X187074819Y-95380952D02*
X187027200Y-95285714D01*
X187027200Y-95285714D02*
X186979580Y-95238095D01*
X186074819Y-96428571D02*
X186074819Y-96523809D01*
X186074819Y-96523809D02*
X186122438Y-96619047D01*
X186122438Y-96619047D02*
X186170057Y-96666666D01*
X186170057Y-96666666D02*
X186265295Y-96714285D01*
X186265295Y-96714285D02*
X186455771Y-96761904D01*
X186455771Y-96761904D02*
X186693866Y-96761904D01*
X186693866Y-96761904D02*
X186884342Y-96714285D01*
X186884342Y-96714285D02*
X186979580Y-96666666D01*
X186979580Y-96666666D02*
X187027200Y-96619047D01*
X187027200Y-96619047D02*
X187074819Y-96523809D01*
X187074819Y-96523809D02*
X187074819Y-96428571D01*
X187074819Y-96428571D02*
X187027200Y-96333333D01*
X187027200Y-96333333D02*
X186979580Y-96285714D01*
X186979580Y-96285714D02*
X186884342Y-96238095D01*
X186884342Y-96238095D02*
X186693866Y-96190476D01*
X186693866Y-96190476D02*
X186455771Y-96190476D01*
X186455771Y-96190476D02*
X186265295Y-96238095D01*
X186265295Y-96238095D02*
X186170057Y-96285714D01*
X186170057Y-96285714D02*
X186122438Y-96333333D01*
X186122438Y-96333333D02*
X186074819Y-96428571D01*
X186754819Y-99048095D02*
X185754819Y-99048095D01*
X186754819Y-99619523D02*
X186183390Y-99190952D01*
X185754819Y-99619523D02*
X186326247Y-99048095D01*
X306074819Y-113785714D02*
X305074819Y-113785714D01*
X305074819Y-113785714D02*
X305074819Y-114023809D01*
X305074819Y-114023809D02*
X305122438Y-114166666D01*
X305122438Y-114166666D02*
X305217676Y-114261904D01*
X305217676Y-114261904D02*
X305312914Y-114309523D01*
X305312914Y-114309523D02*
X305503390Y-114357142D01*
X305503390Y-114357142D02*
X305646247Y-114357142D01*
X305646247Y-114357142D02*
X305836723Y-114309523D01*
X305836723Y-114309523D02*
X305931961Y-114261904D01*
X305931961Y-114261904D02*
X306027200Y-114166666D01*
X306027200Y-114166666D02*
X306074819Y-114023809D01*
X306074819Y-114023809D02*
X306074819Y-113785714D01*
X305074819Y-115214285D02*
X305074819Y-115023809D01*
X305074819Y-115023809D02*
X305122438Y-114928571D01*
X305122438Y-114928571D02*
X305170057Y-114880952D01*
X305170057Y-114880952D02*
X305312914Y-114785714D01*
X305312914Y-114785714D02*
X305503390Y-114738095D01*
X305503390Y-114738095D02*
X305884342Y-114738095D01*
X305884342Y-114738095D02*
X305979580Y-114785714D01*
X305979580Y-114785714D02*
X306027200Y-114833333D01*
X306027200Y-114833333D02*
X306074819Y-114928571D01*
X306074819Y-114928571D02*
X306074819Y-115119047D01*
X306074819Y-115119047D02*
X306027200Y-115214285D01*
X306027200Y-115214285D02*
X305979580Y-115261904D01*
X305979580Y-115261904D02*
X305884342Y-115309523D01*
X305884342Y-115309523D02*
X305646247Y-115309523D01*
X305646247Y-115309523D02*
X305551009Y-115261904D01*
X305551009Y-115261904D02*
X305503390Y-115214285D01*
X305503390Y-115214285D02*
X305455771Y-115119047D01*
X305455771Y-115119047D02*
X305455771Y-114928571D01*
X305455771Y-114928571D02*
X305503390Y-114833333D01*
X305503390Y-114833333D02*
X305551009Y-114785714D01*
X305551009Y-114785714D02*
X305646247Y-114738095D01*
X305074819Y-115642857D02*
X305074819Y-116261904D01*
X305074819Y-116261904D02*
X305455771Y-115928571D01*
X305455771Y-115928571D02*
X305455771Y-116071428D01*
X305455771Y-116071428D02*
X305503390Y-116166666D01*
X305503390Y-116166666D02*
X305551009Y-116214285D01*
X305551009Y-116214285D02*
X305646247Y-116261904D01*
X305646247Y-116261904D02*
X305884342Y-116261904D01*
X305884342Y-116261904D02*
X305979580Y-116214285D01*
X305979580Y-116214285D02*
X306027200Y-116166666D01*
X306027200Y-116166666D02*
X306074819Y-116071428D01*
X306074819Y-116071428D02*
X306074819Y-115785714D01*
X306074819Y-115785714D02*
X306027200Y-115690476D01*
X306027200Y-115690476D02*
X305979580Y-115642857D01*
X305754819Y-118548095D02*
X304754819Y-118548095D01*
X305754819Y-119119523D02*
X305183390Y-118690952D01*
X304754819Y-119119523D02*
X305326247Y-118548095D01*
X168024819Y-94285714D02*
X167024819Y-94285714D01*
X167024819Y-94285714D02*
X167024819Y-94523809D01*
X167024819Y-94523809D02*
X167072438Y-94666666D01*
X167072438Y-94666666D02*
X167167676Y-94761904D01*
X167167676Y-94761904D02*
X167262914Y-94809523D01*
X167262914Y-94809523D02*
X167453390Y-94857142D01*
X167453390Y-94857142D02*
X167596247Y-94857142D01*
X167596247Y-94857142D02*
X167786723Y-94809523D01*
X167786723Y-94809523D02*
X167881961Y-94761904D01*
X167881961Y-94761904D02*
X167977200Y-94666666D01*
X167977200Y-94666666D02*
X168024819Y-94523809D01*
X168024819Y-94523809D02*
X168024819Y-94285714D01*
X167358152Y-95714285D02*
X168024819Y-95714285D01*
X166977200Y-95476190D02*
X167691485Y-95238095D01*
X167691485Y-95238095D02*
X167691485Y-95857142D01*
X168024819Y-96285714D02*
X168024819Y-96476190D01*
X168024819Y-96476190D02*
X167977200Y-96571428D01*
X167977200Y-96571428D02*
X167929580Y-96619047D01*
X167929580Y-96619047D02*
X167786723Y-96714285D01*
X167786723Y-96714285D02*
X167596247Y-96761904D01*
X167596247Y-96761904D02*
X167215295Y-96761904D01*
X167215295Y-96761904D02*
X167120057Y-96714285D01*
X167120057Y-96714285D02*
X167072438Y-96666666D01*
X167072438Y-96666666D02*
X167024819Y-96571428D01*
X167024819Y-96571428D02*
X167024819Y-96380952D01*
X167024819Y-96380952D02*
X167072438Y-96285714D01*
X167072438Y-96285714D02*
X167120057Y-96238095D01*
X167120057Y-96238095D02*
X167215295Y-96190476D01*
X167215295Y-96190476D02*
X167453390Y-96190476D01*
X167453390Y-96190476D02*
X167548628Y-96238095D01*
X167548628Y-96238095D02*
X167596247Y-96285714D01*
X167596247Y-96285714D02*
X167643866Y-96380952D01*
X167643866Y-96380952D02*
X167643866Y-96571428D01*
X167643866Y-96571428D02*
X167596247Y-96666666D01*
X167596247Y-96666666D02*
X167548628Y-96714285D01*
X167548628Y-96714285D02*
X167453390Y-96761904D01*
X167704819Y-99048095D02*
X166704819Y-99048095D01*
X167704819Y-99619523D02*
X167133390Y-99190952D01*
X166704819Y-99619523D02*
X167276247Y-99048095D01*
X287074819Y-56785714D02*
X286074819Y-56785714D01*
X286074819Y-56785714D02*
X286074819Y-57023809D01*
X286074819Y-57023809D02*
X286122438Y-57166666D01*
X286122438Y-57166666D02*
X286217676Y-57261904D01*
X286217676Y-57261904D02*
X286312914Y-57309523D01*
X286312914Y-57309523D02*
X286503390Y-57357142D01*
X286503390Y-57357142D02*
X286646247Y-57357142D01*
X286646247Y-57357142D02*
X286836723Y-57309523D01*
X286836723Y-57309523D02*
X286931961Y-57261904D01*
X286931961Y-57261904D02*
X287027200Y-57166666D01*
X287027200Y-57166666D02*
X287074819Y-57023809D01*
X287074819Y-57023809D02*
X287074819Y-56785714D01*
X286170057Y-57738095D02*
X286122438Y-57785714D01*
X286122438Y-57785714D02*
X286074819Y-57880952D01*
X286074819Y-57880952D02*
X286074819Y-58119047D01*
X286074819Y-58119047D02*
X286122438Y-58214285D01*
X286122438Y-58214285D02*
X286170057Y-58261904D01*
X286170057Y-58261904D02*
X286265295Y-58309523D01*
X286265295Y-58309523D02*
X286360533Y-58309523D01*
X286360533Y-58309523D02*
X286503390Y-58261904D01*
X286503390Y-58261904D02*
X287074819Y-57690476D01*
X287074819Y-57690476D02*
X287074819Y-58309523D01*
X286503390Y-58880952D02*
X286455771Y-58785714D01*
X286455771Y-58785714D02*
X286408152Y-58738095D01*
X286408152Y-58738095D02*
X286312914Y-58690476D01*
X286312914Y-58690476D02*
X286265295Y-58690476D01*
X286265295Y-58690476D02*
X286170057Y-58738095D01*
X286170057Y-58738095D02*
X286122438Y-58785714D01*
X286122438Y-58785714D02*
X286074819Y-58880952D01*
X286074819Y-58880952D02*
X286074819Y-59071428D01*
X286074819Y-59071428D02*
X286122438Y-59166666D01*
X286122438Y-59166666D02*
X286170057Y-59214285D01*
X286170057Y-59214285D02*
X286265295Y-59261904D01*
X286265295Y-59261904D02*
X286312914Y-59261904D01*
X286312914Y-59261904D02*
X286408152Y-59214285D01*
X286408152Y-59214285D02*
X286455771Y-59166666D01*
X286455771Y-59166666D02*
X286503390Y-59071428D01*
X286503390Y-59071428D02*
X286503390Y-58880952D01*
X286503390Y-58880952D02*
X286551009Y-58785714D01*
X286551009Y-58785714D02*
X286598628Y-58738095D01*
X286598628Y-58738095D02*
X286693866Y-58690476D01*
X286693866Y-58690476D02*
X286884342Y-58690476D01*
X286884342Y-58690476D02*
X286979580Y-58738095D01*
X286979580Y-58738095D02*
X287027200Y-58785714D01*
X287027200Y-58785714D02*
X287074819Y-58880952D01*
X287074819Y-58880952D02*
X287074819Y-59071428D01*
X287074819Y-59071428D02*
X287027200Y-59166666D01*
X287027200Y-59166666D02*
X286979580Y-59214285D01*
X286979580Y-59214285D02*
X286884342Y-59261904D01*
X286884342Y-59261904D02*
X286693866Y-59261904D01*
X286693866Y-59261904D02*
X286598628Y-59214285D01*
X286598628Y-59214285D02*
X286551009Y-59166666D01*
X286551009Y-59166666D02*
X286503390Y-59071428D01*
X286754819Y-61548095D02*
X285754819Y-61548095D01*
X286754819Y-62119523D02*
X286183390Y-61690952D01*
X285754819Y-62119523D02*
X286326247Y-61548095D01*
X257599819Y-113275714D02*
X256599819Y-113275714D01*
X256599819Y-113275714D02*
X256599819Y-113513809D01*
X256599819Y-113513809D02*
X256647438Y-113656666D01*
X256647438Y-113656666D02*
X256742676Y-113751904D01*
X256742676Y-113751904D02*
X256837914Y-113799523D01*
X256837914Y-113799523D02*
X257028390Y-113847142D01*
X257028390Y-113847142D02*
X257171247Y-113847142D01*
X257171247Y-113847142D02*
X257361723Y-113799523D01*
X257361723Y-113799523D02*
X257456961Y-113751904D01*
X257456961Y-113751904D02*
X257552200Y-113656666D01*
X257552200Y-113656666D02*
X257599819Y-113513809D01*
X257599819Y-113513809D02*
X257599819Y-113275714D01*
X256599819Y-114704285D02*
X256599819Y-114513809D01*
X256599819Y-114513809D02*
X256647438Y-114418571D01*
X256647438Y-114418571D02*
X256695057Y-114370952D01*
X256695057Y-114370952D02*
X256837914Y-114275714D01*
X256837914Y-114275714D02*
X257028390Y-114228095D01*
X257028390Y-114228095D02*
X257409342Y-114228095D01*
X257409342Y-114228095D02*
X257504580Y-114275714D01*
X257504580Y-114275714D02*
X257552200Y-114323333D01*
X257552200Y-114323333D02*
X257599819Y-114418571D01*
X257599819Y-114418571D02*
X257599819Y-114609047D01*
X257599819Y-114609047D02*
X257552200Y-114704285D01*
X257552200Y-114704285D02*
X257504580Y-114751904D01*
X257504580Y-114751904D02*
X257409342Y-114799523D01*
X257409342Y-114799523D02*
X257171247Y-114799523D01*
X257171247Y-114799523D02*
X257076009Y-114751904D01*
X257076009Y-114751904D02*
X257028390Y-114704285D01*
X257028390Y-114704285D02*
X256980771Y-114609047D01*
X256980771Y-114609047D02*
X256980771Y-114418571D01*
X256980771Y-114418571D02*
X257028390Y-114323333D01*
X257028390Y-114323333D02*
X257076009Y-114275714D01*
X257076009Y-114275714D02*
X257171247Y-114228095D01*
X257599819Y-115751904D02*
X257599819Y-115180476D01*
X257599819Y-115466190D02*
X256599819Y-115466190D01*
X256599819Y-115466190D02*
X256742676Y-115370952D01*
X256742676Y-115370952D02*
X256837914Y-115275714D01*
X256837914Y-115275714D02*
X256885533Y-115180476D01*
X257279819Y-118038095D02*
X256279819Y-118038095D01*
X257279819Y-118609523D02*
X256708390Y-118180952D01*
X256279819Y-118609523D02*
X256851247Y-118038095D01*
X325574819Y-111975714D02*
X324574819Y-111975714D01*
X324574819Y-111975714D02*
X324574819Y-112213809D01*
X324574819Y-112213809D02*
X324622438Y-112356666D01*
X324622438Y-112356666D02*
X324717676Y-112451904D01*
X324717676Y-112451904D02*
X324812914Y-112499523D01*
X324812914Y-112499523D02*
X325003390Y-112547142D01*
X325003390Y-112547142D02*
X325146247Y-112547142D01*
X325146247Y-112547142D02*
X325336723Y-112499523D01*
X325336723Y-112499523D02*
X325431961Y-112451904D01*
X325431961Y-112451904D02*
X325527200Y-112356666D01*
X325527200Y-112356666D02*
X325574819Y-112213809D01*
X325574819Y-112213809D02*
X325574819Y-111975714D01*
X324574819Y-113404285D02*
X324574819Y-113213809D01*
X324574819Y-113213809D02*
X324622438Y-113118571D01*
X324622438Y-113118571D02*
X324670057Y-113070952D01*
X324670057Y-113070952D02*
X324812914Y-112975714D01*
X324812914Y-112975714D02*
X325003390Y-112928095D01*
X325003390Y-112928095D02*
X325384342Y-112928095D01*
X325384342Y-112928095D02*
X325479580Y-112975714D01*
X325479580Y-112975714D02*
X325527200Y-113023333D01*
X325527200Y-113023333D02*
X325574819Y-113118571D01*
X325574819Y-113118571D02*
X325574819Y-113309047D01*
X325574819Y-113309047D02*
X325527200Y-113404285D01*
X325527200Y-113404285D02*
X325479580Y-113451904D01*
X325479580Y-113451904D02*
X325384342Y-113499523D01*
X325384342Y-113499523D02*
X325146247Y-113499523D01*
X325146247Y-113499523D02*
X325051009Y-113451904D01*
X325051009Y-113451904D02*
X325003390Y-113404285D01*
X325003390Y-113404285D02*
X324955771Y-113309047D01*
X324955771Y-113309047D02*
X324955771Y-113118571D01*
X324955771Y-113118571D02*
X325003390Y-113023333D01*
X325003390Y-113023333D02*
X325051009Y-112975714D01*
X325051009Y-112975714D02*
X325146247Y-112928095D01*
X324908152Y-114356666D02*
X325574819Y-114356666D01*
X324527200Y-114118571D02*
X325241485Y-113880476D01*
X325241485Y-113880476D02*
X325241485Y-114499523D01*
X325254819Y-116738095D02*
X324254819Y-116738095D01*
X325254819Y-117309523D02*
X324683390Y-116880952D01*
X324254819Y-117309523D02*
X324826247Y-116738095D01*
X96574819Y-56785714D02*
X95574819Y-56785714D01*
X95574819Y-56785714D02*
X95574819Y-57023809D01*
X95574819Y-57023809D02*
X95622438Y-57166666D01*
X95622438Y-57166666D02*
X95717676Y-57261904D01*
X95717676Y-57261904D02*
X95812914Y-57309523D01*
X95812914Y-57309523D02*
X96003390Y-57357142D01*
X96003390Y-57357142D02*
X96146247Y-57357142D01*
X96146247Y-57357142D02*
X96336723Y-57309523D01*
X96336723Y-57309523D02*
X96431961Y-57261904D01*
X96431961Y-57261904D02*
X96527200Y-57166666D01*
X96527200Y-57166666D02*
X96574819Y-57023809D01*
X96574819Y-57023809D02*
X96574819Y-56785714D01*
X96574819Y-58309523D02*
X96574819Y-57738095D01*
X96574819Y-58023809D02*
X95574819Y-58023809D01*
X95574819Y-58023809D02*
X95717676Y-57928571D01*
X95717676Y-57928571D02*
X95812914Y-57833333D01*
X95812914Y-57833333D02*
X95860533Y-57738095D01*
X96003390Y-58880952D02*
X95955771Y-58785714D01*
X95955771Y-58785714D02*
X95908152Y-58738095D01*
X95908152Y-58738095D02*
X95812914Y-58690476D01*
X95812914Y-58690476D02*
X95765295Y-58690476D01*
X95765295Y-58690476D02*
X95670057Y-58738095D01*
X95670057Y-58738095D02*
X95622438Y-58785714D01*
X95622438Y-58785714D02*
X95574819Y-58880952D01*
X95574819Y-58880952D02*
X95574819Y-59071428D01*
X95574819Y-59071428D02*
X95622438Y-59166666D01*
X95622438Y-59166666D02*
X95670057Y-59214285D01*
X95670057Y-59214285D02*
X95765295Y-59261904D01*
X95765295Y-59261904D02*
X95812914Y-59261904D01*
X95812914Y-59261904D02*
X95908152Y-59214285D01*
X95908152Y-59214285D02*
X95955771Y-59166666D01*
X95955771Y-59166666D02*
X96003390Y-59071428D01*
X96003390Y-59071428D02*
X96003390Y-58880952D01*
X96003390Y-58880952D02*
X96051009Y-58785714D01*
X96051009Y-58785714D02*
X96098628Y-58738095D01*
X96098628Y-58738095D02*
X96193866Y-58690476D01*
X96193866Y-58690476D02*
X96384342Y-58690476D01*
X96384342Y-58690476D02*
X96479580Y-58738095D01*
X96479580Y-58738095D02*
X96527200Y-58785714D01*
X96527200Y-58785714D02*
X96574819Y-58880952D01*
X96574819Y-58880952D02*
X96574819Y-59071428D01*
X96574819Y-59071428D02*
X96527200Y-59166666D01*
X96527200Y-59166666D02*
X96479580Y-59214285D01*
X96479580Y-59214285D02*
X96384342Y-59261904D01*
X96384342Y-59261904D02*
X96193866Y-59261904D01*
X96193866Y-59261904D02*
X96098628Y-59214285D01*
X96098628Y-59214285D02*
X96051009Y-59166666D01*
X96051009Y-59166666D02*
X96003390Y-59071428D01*
X96254819Y-61548095D02*
X95254819Y-61548095D01*
X96254819Y-62119523D02*
X95683390Y-61690952D01*
X95254819Y-62119523D02*
X95826247Y-61548095D01*
X129924819Y-94285714D02*
X128924819Y-94285714D01*
X128924819Y-94285714D02*
X128924819Y-94523809D01*
X128924819Y-94523809D02*
X128972438Y-94666666D01*
X128972438Y-94666666D02*
X129067676Y-94761904D01*
X129067676Y-94761904D02*
X129162914Y-94809523D01*
X129162914Y-94809523D02*
X129353390Y-94857142D01*
X129353390Y-94857142D02*
X129496247Y-94857142D01*
X129496247Y-94857142D02*
X129686723Y-94809523D01*
X129686723Y-94809523D02*
X129781961Y-94761904D01*
X129781961Y-94761904D02*
X129877200Y-94666666D01*
X129877200Y-94666666D02*
X129924819Y-94523809D01*
X129924819Y-94523809D02*
X129924819Y-94285714D01*
X129258152Y-95714285D02*
X129924819Y-95714285D01*
X128877200Y-95476190D02*
X129591485Y-95238095D01*
X129591485Y-95238095D02*
X129591485Y-95857142D01*
X128924819Y-96142857D02*
X128924819Y-96809523D01*
X128924819Y-96809523D02*
X129924819Y-96380952D01*
X129604819Y-99048095D02*
X128604819Y-99048095D01*
X129604819Y-99619523D02*
X129033390Y-99190952D01*
X128604819Y-99619523D02*
X129176247Y-99048095D01*
X94074819Y-113285714D02*
X93074819Y-113285714D01*
X93074819Y-113285714D02*
X93074819Y-113523809D01*
X93074819Y-113523809D02*
X93122438Y-113666666D01*
X93122438Y-113666666D02*
X93217676Y-113761904D01*
X93217676Y-113761904D02*
X93312914Y-113809523D01*
X93312914Y-113809523D02*
X93503390Y-113857142D01*
X93503390Y-113857142D02*
X93646247Y-113857142D01*
X93646247Y-113857142D02*
X93836723Y-113809523D01*
X93836723Y-113809523D02*
X93931961Y-113761904D01*
X93931961Y-113761904D02*
X94027200Y-113666666D01*
X94027200Y-113666666D02*
X94074819Y-113523809D01*
X94074819Y-113523809D02*
X94074819Y-113285714D01*
X93074819Y-114761904D02*
X93074819Y-114285714D01*
X93074819Y-114285714D02*
X93551009Y-114238095D01*
X93551009Y-114238095D02*
X93503390Y-114285714D01*
X93503390Y-114285714D02*
X93455771Y-114380952D01*
X93455771Y-114380952D02*
X93455771Y-114619047D01*
X93455771Y-114619047D02*
X93503390Y-114714285D01*
X93503390Y-114714285D02*
X93551009Y-114761904D01*
X93551009Y-114761904D02*
X93646247Y-114809523D01*
X93646247Y-114809523D02*
X93884342Y-114809523D01*
X93884342Y-114809523D02*
X93979580Y-114761904D01*
X93979580Y-114761904D02*
X94027200Y-114714285D01*
X94027200Y-114714285D02*
X94074819Y-114619047D01*
X94074819Y-114619047D02*
X94074819Y-114380952D01*
X94074819Y-114380952D02*
X94027200Y-114285714D01*
X94027200Y-114285714D02*
X93979580Y-114238095D01*
X93503390Y-115380952D02*
X93455771Y-115285714D01*
X93455771Y-115285714D02*
X93408152Y-115238095D01*
X93408152Y-115238095D02*
X93312914Y-115190476D01*
X93312914Y-115190476D02*
X93265295Y-115190476D01*
X93265295Y-115190476D02*
X93170057Y-115238095D01*
X93170057Y-115238095D02*
X93122438Y-115285714D01*
X93122438Y-115285714D02*
X93074819Y-115380952D01*
X93074819Y-115380952D02*
X93074819Y-115571428D01*
X93074819Y-115571428D02*
X93122438Y-115666666D01*
X93122438Y-115666666D02*
X93170057Y-115714285D01*
X93170057Y-115714285D02*
X93265295Y-115761904D01*
X93265295Y-115761904D02*
X93312914Y-115761904D01*
X93312914Y-115761904D02*
X93408152Y-115714285D01*
X93408152Y-115714285D02*
X93455771Y-115666666D01*
X93455771Y-115666666D02*
X93503390Y-115571428D01*
X93503390Y-115571428D02*
X93503390Y-115380952D01*
X93503390Y-115380952D02*
X93551009Y-115285714D01*
X93551009Y-115285714D02*
X93598628Y-115238095D01*
X93598628Y-115238095D02*
X93693866Y-115190476D01*
X93693866Y-115190476D02*
X93884342Y-115190476D01*
X93884342Y-115190476D02*
X93979580Y-115238095D01*
X93979580Y-115238095D02*
X94027200Y-115285714D01*
X94027200Y-115285714D02*
X94074819Y-115380952D01*
X94074819Y-115380952D02*
X94074819Y-115571428D01*
X94074819Y-115571428D02*
X94027200Y-115666666D01*
X94027200Y-115666666D02*
X93979580Y-115714285D01*
X93979580Y-115714285D02*
X93884342Y-115761904D01*
X93884342Y-115761904D02*
X93693866Y-115761904D01*
X93693866Y-115761904D02*
X93598628Y-115714285D01*
X93598628Y-115714285D02*
X93551009Y-115666666D01*
X93551009Y-115666666D02*
X93503390Y-115571428D01*
X93754819Y-118048095D02*
X92754819Y-118048095D01*
X93754819Y-118619523D02*
X93183390Y-118190952D01*
X92754819Y-118619523D02*
X93326247Y-118048095D01*
X248974819Y-56785714D02*
X247974819Y-56785714D01*
X247974819Y-56785714D02*
X247974819Y-57023809D01*
X247974819Y-57023809D02*
X248022438Y-57166666D01*
X248022438Y-57166666D02*
X248117676Y-57261904D01*
X248117676Y-57261904D02*
X248212914Y-57309523D01*
X248212914Y-57309523D02*
X248403390Y-57357142D01*
X248403390Y-57357142D02*
X248546247Y-57357142D01*
X248546247Y-57357142D02*
X248736723Y-57309523D01*
X248736723Y-57309523D02*
X248831961Y-57261904D01*
X248831961Y-57261904D02*
X248927200Y-57166666D01*
X248927200Y-57166666D02*
X248974819Y-57023809D01*
X248974819Y-57023809D02*
X248974819Y-56785714D01*
X248070057Y-57738095D02*
X248022438Y-57785714D01*
X248022438Y-57785714D02*
X247974819Y-57880952D01*
X247974819Y-57880952D02*
X247974819Y-58119047D01*
X247974819Y-58119047D02*
X248022438Y-58214285D01*
X248022438Y-58214285D02*
X248070057Y-58261904D01*
X248070057Y-58261904D02*
X248165295Y-58309523D01*
X248165295Y-58309523D02*
X248260533Y-58309523D01*
X248260533Y-58309523D02*
X248403390Y-58261904D01*
X248403390Y-58261904D02*
X248974819Y-57690476D01*
X248974819Y-57690476D02*
X248974819Y-58309523D01*
X247974819Y-59166666D02*
X247974819Y-58976190D01*
X247974819Y-58976190D02*
X248022438Y-58880952D01*
X248022438Y-58880952D02*
X248070057Y-58833333D01*
X248070057Y-58833333D02*
X248212914Y-58738095D01*
X248212914Y-58738095D02*
X248403390Y-58690476D01*
X248403390Y-58690476D02*
X248784342Y-58690476D01*
X248784342Y-58690476D02*
X248879580Y-58738095D01*
X248879580Y-58738095D02*
X248927200Y-58785714D01*
X248927200Y-58785714D02*
X248974819Y-58880952D01*
X248974819Y-58880952D02*
X248974819Y-59071428D01*
X248974819Y-59071428D02*
X248927200Y-59166666D01*
X248927200Y-59166666D02*
X248879580Y-59214285D01*
X248879580Y-59214285D02*
X248784342Y-59261904D01*
X248784342Y-59261904D02*
X248546247Y-59261904D01*
X248546247Y-59261904D02*
X248451009Y-59214285D01*
X248451009Y-59214285D02*
X248403390Y-59166666D01*
X248403390Y-59166666D02*
X248355771Y-59071428D01*
X248355771Y-59071428D02*
X248355771Y-58880952D01*
X248355771Y-58880952D02*
X248403390Y-58785714D01*
X248403390Y-58785714D02*
X248451009Y-58738095D01*
X248451009Y-58738095D02*
X248546247Y-58690476D01*
X248654819Y-61548095D02*
X247654819Y-61548095D01*
X248654819Y-62119523D02*
X248083390Y-61690952D01*
X247654819Y-62119523D02*
X248226247Y-61548095D01*
X253474819Y-75285714D02*
X252474819Y-75285714D01*
X252474819Y-75285714D02*
X252474819Y-75523809D01*
X252474819Y-75523809D02*
X252522438Y-75666666D01*
X252522438Y-75666666D02*
X252617676Y-75761904D01*
X252617676Y-75761904D02*
X252712914Y-75809523D01*
X252712914Y-75809523D02*
X252903390Y-75857142D01*
X252903390Y-75857142D02*
X253046247Y-75857142D01*
X253046247Y-75857142D02*
X253236723Y-75809523D01*
X253236723Y-75809523D02*
X253331961Y-75761904D01*
X253331961Y-75761904D02*
X253427200Y-75666666D01*
X253427200Y-75666666D02*
X253474819Y-75523809D01*
X253474819Y-75523809D02*
X253474819Y-75285714D01*
X252808152Y-76714285D02*
X253474819Y-76714285D01*
X252427200Y-76476190D02*
X253141485Y-76238095D01*
X253141485Y-76238095D02*
X253141485Y-76857142D01*
X253474819Y-77761904D02*
X253474819Y-77190476D01*
X253474819Y-77476190D02*
X252474819Y-77476190D01*
X252474819Y-77476190D02*
X252617676Y-77380952D01*
X252617676Y-77380952D02*
X252712914Y-77285714D01*
X252712914Y-77285714D02*
X252760533Y-77190476D01*
X253154819Y-80048095D02*
X252154819Y-80048095D01*
X253154819Y-80619523D02*
X252583390Y-80190952D01*
X252154819Y-80619523D02*
X252726247Y-80048095D01*
X282074819Y-93285714D02*
X281074819Y-93285714D01*
X281074819Y-93285714D02*
X281074819Y-93523809D01*
X281074819Y-93523809D02*
X281122438Y-93666666D01*
X281122438Y-93666666D02*
X281217676Y-93761904D01*
X281217676Y-93761904D02*
X281312914Y-93809523D01*
X281312914Y-93809523D02*
X281503390Y-93857142D01*
X281503390Y-93857142D02*
X281646247Y-93857142D01*
X281646247Y-93857142D02*
X281836723Y-93809523D01*
X281836723Y-93809523D02*
X281931961Y-93761904D01*
X281931961Y-93761904D02*
X282027200Y-93666666D01*
X282027200Y-93666666D02*
X282074819Y-93523809D01*
X282074819Y-93523809D02*
X282074819Y-93285714D01*
X281074819Y-94761904D02*
X281074819Y-94285714D01*
X281074819Y-94285714D02*
X281551009Y-94238095D01*
X281551009Y-94238095D02*
X281503390Y-94285714D01*
X281503390Y-94285714D02*
X281455771Y-94380952D01*
X281455771Y-94380952D02*
X281455771Y-94619047D01*
X281455771Y-94619047D02*
X281503390Y-94714285D01*
X281503390Y-94714285D02*
X281551009Y-94761904D01*
X281551009Y-94761904D02*
X281646247Y-94809523D01*
X281646247Y-94809523D02*
X281884342Y-94809523D01*
X281884342Y-94809523D02*
X281979580Y-94761904D01*
X281979580Y-94761904D02*
X282027200Y-94714285D01*
X282027200Y-94714285D02*
X282074819Y-94619047D01*
X282074819Y-94619047D02*
X282074819Y-94380952D01*
X282074819Y-94380952D02*
X282027200Y-94285714D01*
X282027200Y-94285714D02*
X281979580Y-94238095D01*
X281408152Y-95666666D02*
X282074819Y-95666666D01*
X281027200Y-95428571D02*
X281741485Y-95190476D01*
X281741485Y-95190476D02*
X281741485Y-95809523D01*
X281754819Y-98048095D02*
X280754819Y-98048095D01*
X281754819Y-98619523D02*
X281183390Y-98190952D01*
X280754819Y-98619523D02*
X281326247Y-98048095D01*
X48574819Y-37261905D02*
X47574819Y-37261905D01*
X47574819Y-37261905D02*
X47574819Y-37500000D01*
X47574819Y-37500000D02*
X47622438Y-37642857D01*
X47622438Y-37642857D02*
X47717676Y-37738095D01*
X47717676Y-37738095D02*
X47812914Y-37785714D01*
X47812914Y-37785714D02*
X48003390Y-37833333D01*
X48003390Y-37833333D02*
X48146247Y-37833333D01*
X48146247Y-37833333D02*
X48336723Y-37785714D01*
X48336723Y-37785714D02*
X48431961Y-37738095D01*
X48431961Y-37738095D02*
X48527200Y-37642857D01*
X48527200Y-37642857D02*
X48574819Y-37500000D01*
X48574819Y-37500000D02*
X48574819Y-37261905D01*
X48574819Y-38785714D02*
X48574819Y-38214286D01*
X48574819Y-38500000D02*
X47574819Y-38500000D01*
X47574819Y-38500000D02*
X47717676Y-38404762D01*
X47717676Y-38404762D02*
X47812914Y-38309524D01*
X47812914Y-38309524D02*
X47860533Y-38214286D01*
X48254819Y-41548095D02*
X47254819Y-41548095D01*
X48254819Y-42119523D02*
X47683390Y-41690952D01*
X47254819Y-42119523D02*
X47826247Y-41548095D01*
X310887319Y-56785714D02*
X309887319Y-56785714D01*
X309887319Y-56785714D02*
X309887319Y-57023809D01*
X309887319Y-57023809D02*
X309934938Y-57166666D01*
X309934938Y-57166666D02*
X310030176Y-57261904D01*
X310030176Y-57261904D02*
X310125414Y-57309523D01*
X310125414Y-57309523D02*
X310315890Y-57357142D01*
X310315890Y-57357142D02*
X310458747Y-57357142D01*
X310458747Y-57357142D02*
X310649223Y-57309523D01*
X310649223Y-57309523D02*
X310744461Y-57261904D01*
X310744461Y-57261904D02*
X310839700Y-57166666D01*
X310839700Y-57166666D02*
X310887319Y-57023809D01*
X310887319Y-57023809D02*
X310887319Y-56785714D01*
X309982557Y-57738095D02*
X309934938Y-57785714D01*
X309934938Y-57785714D02*
X309887319Y-57880952D01*
X309887319Y-57880952D02*
X309887319Y-58119047D01*
X309887319Y-58119047D02*
X309934938Y-58214285D01*
X309934938Y-58214285D02*
X309982557Y-58261904D01*
X309982557Y-58261904D02*
X310077795Y-58309523D01*
X310077795Y-58309523D02*
X310173033Y-58309523D01*
X310173033Y-58309523D02*
X310315890Y-58261904D01*
X310315890Y-58261904D02*
X310887319Y-57690476D01*
X310887319Y-57690476D02*
X310887319Y-58309523D01*
X310887319Y-58785714D02*
X310887319Y-58976190D01*
X310887319Y-58976190D02*
X310839700Y-59071428D01*
X310839700Y-59071428D02*
X310792080Y-59119047D01*
X310792080Y-59119047D02*
X310649223Y-59214285D01*
X310649223Y-59214285D02*
X310458747Y-59261904D01*
X310458747Y-59261904D02*
X310077795Y-59261904D01*
X310077795Y-59261904D02*
X309982557Y-59214285D01*
X309982557Y-59214285D02*
X309934938Y-59166666D01*
X309934938Y-59166666D02*
X309887319Y-59071428D01*
X309887319Y-59071428D02*
X309887319Y-58880952D01*
X309887319Y-58880952D02*
X309934938Y-58785714D01*
X309934938Y-58785714D02*
X309982557Y-58738095D01*
X309982557Y-58738095D02*
X310077795Y-58690476D01*
X310077795Y-58690476D02*
X310315890Y-58690476D01*
X310315890Y-58690476D02*
X310411128Y-58738095D01*
X310411128Y-58738095D02*
X310458747Y-58785714D01*
X310458747Y-58785714D02*
X310506366Y-58880952D01*
X310506366Y-58880952D02*
X310506366Y-59071428D01*
X310506366Y-59071428D02*
X310458747Y-59166666D01*
X310458747Y-59166666D02*
X310411128Y-59214285D01*
X310411128Y-59214285D02*
X310315890Y-59261904D01*
X310567319Y-61548095D02*
X309567319Y-61548095D01*
X310567319Y-62119523D02*
X309995890Y-61690952D01*
X309567319Y-62119523D02*
X310138747Y-61548095D01*
X201474819Y-37551905D02*
X200474819Y-37551905D01*
X200474819Y-37551905D02*
X200474819Y-37790000D01*
X200474819Y-37790000D02*
X200522438Y-37932857D01*
X200522438Y-37932857D02*
X200617676Y-38028095D01*
X200617676Y-38028095D02*
X200712914Y-38075714D01*
X200712914Y-38075714D02*
X200903390Y-38123333D01*
X200903390Y-38123333D02*
X201046247Y-38123333D01*
X201046247Y-38123333D02*
X201236723Y-38075714D01*
X201236723Y-38075714D02*
X201331961Y-38028095D01*
X201331961Y-38028095D02*
X201427200Y-37932857D01*
X201427200Y-37932857D02*
X201474819Y-37790000D01*
X201474819Y-37790000D02*
X201474819Y-37551905D01*
X201474819Y-38599524D02*
X201474819Y-38790000D01*
X201474819Y-38790000D02*
X201427200Y-38885238D01*
X201427200Y-38885238D02*
X201379580Y-38932857D01*
X201379580Y-38932857D02*
X201236723Y-39028095D01*
X201236723Y-39028095D02*
X201046247Y-39075714D01*
X201046247Y-39075714D02*
X200665295Y-39075714D01*
X200665295Y-39075714D02*
X200570057Y-39028095D01*
X200570057Y-39028095D02*
X200522438Y-38980476D01*
X200522438Y-38980476D02*
X200474819Y-38885238D01*
X200474819Y-38885238D02*
X200474819Y-38694762D01*
X200474819Y-38694762D02*
X200522438Y-38599524D01*
X200522438Y-38599524D02*
X200570057Y-38551905D01*
X200570057Y-38551905D02*
X200665295Y-38504286D01*
X200665295Y-38504286D02*
X200903390Y-38504286D01*
X200903390Y-38504286D02*
X200998628Y-38551905D01*
X200998628Y-38551905D02*
X201046247Y-38599524D01*
X201046247Y-38599524D02*
X201093866Y-38694762D01*
X201093866Y-38694762D02*
X201093866Y-38885238D01*
X201093866Y-38885238D02*
X201046247Y-38980476D01*
X201046247Y-38980476D02*
X200998628Y-39028095D01*
X200998628Y-39028095D02*
X200903390Y-39075714D01*
X201154819Y-41838095D02*
X200154819Y-41838095D01*
X201154819Y-42409523D02*
X200583390Y-41980952D01*
X200154819Y-42409523D02*
X200726247Y-41838095D01*
X51574819Y-113475714D02*
X50574819Y-113475714D01*
X50574819Y-113475714D02*
X50574819Y-113713809D01*
X50574819Y-113713809D02*
X50622438Y-113856666D01*
X50622438Y-113856666D02*
X50717676Y-113951904D01*
X50717676Y-113951904D02*
X50812914Y-113999523D01*
X50812914Y-113999523D02*
X51003390Y-114047142D01*
X51003390Y-114047142D02*
X51146247Y-114047142D01*
X51146247Y-114047142D02*
X51336723Y-113999523D01*
X51336723Y-113999523D02*
X51431961Y-113951904D01*
X51431961Y-113951904D02*
X51527200Y-113856666D01*
X51527200Y-113856666D02*
X51574819Y-113713809D01*
X51574819Y-113713809D02*
X51574819Y-113475714D01*
X50574819Y-114951904D02*
X50574819Y-114475714D01*
X50574819Y-114475714D02*
X51051009Y-114428095D01*
X51051009Y-114428095D02*
X51003390Y-114475714D01*
X51003390Y-114475714D02*
X50955771Y-114570952D01*
X50955771Y-114570952D02*
X50955771Y-114809047D01*
X50955771Y-114809047D02*
X51003390Y-114904285D01*
X51003390Y-114904285D02*
X51051009Y-114951904D01*
X51051009Y-114951904D02*
X51146247Y-114999523D01*
X51146247Y-114999523D02*
X51384342Y-114999523D01*
X51384342Y-114999523D02*
X51479580Y-114951904D01*
X51479580Y-114951904D02*
X51527200Y-114904285D01*
X51527200Y-114904285D02*
X51574819Y-114809047D01*
X51574819Y-114809047D02*
X51574819Y-114570952D01*
X51574819Y-114570952D02*
X51527200Y-114475714D01*
X51527200Y-114475714D02*
X51479580Y-114428095D01*
X50574819Y-115856666D02*
X50574819Y-115666190D01*
X50574819Y-115666190D02*
X50622438Y-115570952D01*
X50622438Y-115570952D02*
X50670057Y-115523333D01*
X50670057Y-115523333D02*
X50812914Y-115428095D01*
X50812914Y-115428095D02*
X51003390Y-115380476D01*
X51003390Y-115380476D02*
X51384342Y-115380476D01*
X51384342Y-115380476D02*
X51479580Y-115428095D01*
X51479580Y-115428095D02*
X51527200Y-115475714D01*
X51527200Y-115475714D02*
X51574819Y-115570952D01*
X51574819Y-115570952D02*
X51574819Y-115761428D01*
X51574819Y-115761428D02*
X51527200Y-115856666D01*
X51527200Y-115856666D02*
X51479580Y-115904285D01*
X51479580Y-115904285D02*
X51384342Y-115951904D01*
X51384342Y-115951904D02*
X51146247Y-115951904D01*
X51146247Y-115951904D02*
X51051009Y-115904285D01*
X51051009Y-115904285D02*
X51003390Y-115856666D01*
X51003390Y-115856666D02*
X50955771Y-115761428D01*
X50955771Y-115761428D02*
X50955771Y-115570952D01*
X50955771Y-115570952D02*
X51003390Y-115475714D01*
X51003390Y-115475714D02*
X51051009Y-115428095D01*
X51051009Y-115428095D02*
X51146247Y-115380476D01*
X51254819Y-118238095D02*
X50254819Y-118238095D01*
X51254819Y-118809523D02*
X50683390Y-118380952D01*
X50254819Y-118809523D02*
X50826247Y-118238095D01*
X215374819Y-75285714D02*
X214374819Y-75285714D01*
X214374819Y-75285714D02*
X214374819Y-75523809D01*
X214374819Y-75523809D02*
X214422438Y-75666666D01*
X214422438Y-75666666D02*
X214517676Y-75761904D01*
X214517676Y-75761904D02*
X214612914Y-75809523D01*
X214612914Y-75809523D02*
X214803390Y-75857142D01*
X214803390Y-75857142D02*
X214946247Y-75857142D01*
X214946247Y-75857142D02*
X215136723Y-75809523D01*
X215136723Y-75809523D02*
X215231961Y-75761904D01*
X215231961Y-75761904D02*
X215327200Y-75666666D01*
X215327200Y-75666666D02*
X215374819Y-75523809D01*
X215374819Y-75523809D02*
X215374819Y-75285714D01*
X214374819Y-76190476D02*
X214374819Y-76809523D01*
X214374819Y-76809523D02*
X214755771Y-76476190D01*
X214755771Y-76476190D02*
X214755771Y-76619047D01*
X214755771Y-76619047D02*
X214803390Y-76714285D01*
X214803390Y-76714285D02*
X214851009Y-76761904D01*
X214851009Y-76761904D02*
X214946247Y-76809523D01*
X214946247Y-76809523D02*
X215184342Y-76809523D01*
X215184342Y-76809523D02*
X215279580Y-76761904D01*
X215279580Y-76761904D02*
X215327200Y-76714285D01*
X215327200Y-76714285D02*
X215374819Y-76619047D01*
X215374819Y-76619047D02*
X215374819Y-76333333D01*
X215374819Y-76333333D02*
X215327200Y-76238095D01*
X215327200Y-76238095D02*
X215279580Y-76190476D01*
X215374819Y-77285714D02*
X215374819Y-77476190D01*
X215374819Y-77476190D02*
X215327200Y-77571428D01*
X215327200Y-77571428D02*
X215279580Y-77619047D01*
X215279580Y-77619047D02*
X215136723Y-77714285D01*
X215136723Y-77714285D02*
X214946247Y-77761904D01*
X214946247Y-77761904D02*
X214565295Y-77761904D01*
X214565295Y-77761904D02*
X214470057Y-77714285D01*
X214470057Y-77714285D02*
X214422438Y-77666666D01*
X214422438Y-77666666D02*
X214374819Y-77571428D01*
X214374819Y-77571428D02*
X214374819Y-77380952D01*
X214374819Y-77380952D02*
X214422438Y-77285714D01*
X214422438Y-77285714D02*
X214470057Y-77238095D01*
X214470057Y-77238095D02*
X214565295Y-77190476D01*
X214565295Y-77190476D02*
X214803390Y-77190476D01*
X214803390Y-77190476D02*
X214898628Y-77238095D01*
X214898628Y-77238095D02*
X214946247Y-77285714D01*
X214946247Y-77285714D02*
X214993866Y-77380952D01*
X214993866Y-77380952D02*
X214993866Y-77571428D01*
X214993866Y-77571428D02*
X214946247Y-77666666D01*
X214946247Y-77666666D02*
X214898628Y-77714285D01*
X214898628Y-77714285D02*
X214803390Y-77761904D01*
X215054819Y-80048095D02*
X214054819Y-80048095D01*
X215054819Y-80619523D02*
X214483390Y-80190952D01*
X214054819Y-80619523D02*
X214626247Y-80048095D01*
X158224819Y-75285714D02*
X157224819Y-75285714D01*
X157224819Y-75285714D02*
X157224819Y-75523809D01*
X157224819Y-75523809D02*
X157272438Y-75666666D01*
X157272438Y-75666666D02*
X157367676Y-75761904D01*
X157367676Y-75761904D02*
X157462914Y-75809523D01*
X157462914Y-75809523D02*
X157653390Y-75857142D01*
X157653390Y-75857142D02*
X157796247Y-75857142D01*
X157796247Y-75857142D02*
X157986723Y-75809523D01*
X157986723Y-75809523D02*
X158081961Y-75761904D01*
X158081961Y-75761904D02*
X158177200Y-75666666D01*
X158177200Y-75666666D02*
X158224819Y-75523809D01*
X158224819Y-75523809D02*
X158224819Y-75285714D01*
X157224819Y-76190476D02*
X157224819Y-76809523D01*
X157224819Y-76809523D02*
X157605771Y-76476190D01*
X157605771Y-76476190D02*
X157605771Y-76619047D01*
X157605771Y-76619047D02*
X157653390Y-76714285D01*
X157653390Y-76714285D02*
X157701009Y-76761904D01*
X157701009Y-76761904D02*
X157796247Y-76809523D01*
X157796247Y-76809523D02*
X158034342Y-76809523D01*
X158034342Y-76809523D02*
X158129580Y-76761904D01*
X158129580Y-76761904D02*
X158177200Y-76714285D01*
X158177200Y-76714285D02*
X158224819Y-76619047D01*
X158224819Y-76619047D02*
X158224819Y-76333333D01*
X158224819Y-76333333D02*
X158177200Y-76238095D01*
X158177200Y-76238095D02*
X158129580Y-76190476D01*
X157224819Y-77666666D02*
X157224819Y-77476190D01*
X157224819Y-77476190D02*
X157272438Y-77380952D01*
X157272438Y-77380952D02*
X157320057Y-77333333D01*
X157320057Y-77333333D02*
X157462914Y-77238095D01*
X157462914Y-77238095D02*
X157653390Y-77190476D01*
X157653390Y-77190476D02*
X158034342Y-77190476D01*
X158034342Y-77190476D02*
X158129580Y-77238095D01*
X158129580Y-77238095D02*
X158177200Y-77285714D01*
X158177200Y-77285714D02*
X158224819Y-77380952D01*
X158224819Y-77380952D02*
X158224819Y-77571428D01*
X158224819Y-77571428D02*
X158177200Y-77666666D01*
X158177200Y-77666666D02*
X158129580Y-77714285D01*
X158129580Y-77714285D02*
X158034342Y-77761904D01*
X158034342Y-77761904D02*
X157796247Y-77761904D01*
X157796247Y-77761904D02*
X157701009Y-77714285D01*
X157701009Y-77714285D02*
X157653390Y-77666666D01*
X157653390Y-77666666D02*
X157605771Y-77571428D01*
X157605771Y-77571428D02*
X157605771Y-77380952D01*
X157605771Y-77380952D02*
X157653390Y-77285714D01*
X157653390Y-77285714D02*
X157701009Y-77238095D01*
X157701009Y-77238095D02*
X157796247Y-77190476D01*
X157904819Y-80048095D02*
X156904819Y-80048095D01*
X157904819Y-80619523D02*
X157333390Y-80190952D01*
X156904819Y-80619523D02*
X157476247Y-80048095D01*
X359074819Y-31285714D02*
X358074819Y-31285714D01*
X358074819Y-31285714D02*
X358074819Y-31523809D01*
X358074819Y-31523809D02*
X358122438Y-31666666D01*
X358122438Y-31666666D02*
X358217676Y-31761904D01*
X358217676Y-31761904D02*
X358312914Y-31809523D01*
X358312914Y-31809523D02*
X358503390Y-31857142D01*
X358503390Y-31857142D02*
X358646247Y-31857142D01*
X358646247Y-31857142D02*
X358836723Y-31809523D01*
X358836723Y-31809523D02*
X358931961Y-31761904D01*
X358931961Y-31761904D02*
X359027200Y-31666666D01*
X359027200Y-31666666D02*
X359074819Y-31523809D01*
X359074819Y-31523809D02*
X359074819Y-31285714D01*
X359074819Y-32809523D02*
X359074819Y-32238095D01*
X359074819Y-32523809D02*
X358074819Y-32523809D01*
X358074819Y-32523809D02*
X358217676Y-32428571D01*
X358217676Y-32428571D02*
X358312914Y-32333333D01*
X358312914Y-32333333D02*
X358360533Y-32238095D01*
X358074819Y-33714285D02*
X358074819Y-33238095D01*
X358074819Y-33238095D02*
X358551009Y-33190476D01*
X358551009Y-33190476D02*
X358503390Y-33238095D01*
X358503390Y-33238095D02*
X358455771Y-33333333D01*
X358455771Y-33333333D02*
X358455771Y-33571428D01*
X358455771Y-33571428D02*
X358503390Y-33666666D01*
X358503390Y-33666666D02*
X358551009Y-33714285D01*
X358551009Y-33714285D02*
X358646247Y-33761904D01*
X358646247Y-33761904D02*
X358884342Y-33761904D01*
X358884342Y-33761904D02*
X358979580Y-33714285D01*
X358979580Y-33714285D02*
X359027200Y-33666666D01*
X359027200Y-33666666D02*
X359074819Y-33571428D01*
X359074819Y-33571428D02*
X359074819Y-33333333D01*
X359074819Y-33333333D02*
X359027200Y-33238095D01*
X359027200Y-33238095D02*
X358979580Y-33190476D01*
X358754819Y-36048095D02*
X357754819Y-36048095D01*
X358754819Y-36619523D02*
X358183390Y-36190952D01*
X357754819Y-36619523D02*
X358326247Y-36048095D01*
X268024819Y-56785714D02*
X267024819Y-56785714D01*
X267024819Y-56785714D02*
X267024819Y-57023809D01*
X267024819Y-57023809D02*
X267072438Y-57166666D01*
X267072438Y-57166666D02*
X267167676Y-57261904D01*
X267167676Y-57261904D02*
X267262914Y-57309523D01*
X267262914Y-57309523D02*
X267453390Y-57357142D01*
X267453390Y-57357142D02*
X267596247Y-57357142D01*
X267596247Y-57357142D02*
X267786723Y-57309523D01*
X267786723Y-57309523D02*
X267881961Y-57261904D01*
X267881961Y-57261904D02*
X267977200Y-57166666D01*
X267977200Y-57166666D02*
X268024819Y-57023809D01*
X268024819Y-57023809D02*
X268024819Y-56785714D01*
X267120057Y-57738095D02*
X267072438Y-57785714D01*
X267072438Y-57785714D02*
X267024819Y-57880952D01*
X267024819Y-57880952D02*
X267024819Y-58119047D01*
X267024819Y-58119047D02*
X267072438Y-58214285D01*
X267072438Y-58214285D02*
X267120057Y-58261904D01*
X267120057Y-58261904D02*
X267215295Y-58309523D01*
X267215295Y-58309523D02*
X267310533Y-58309523D01*
X267310533Y-58309523D02*
X267453390Y-58261904D01*
X267453390Y-58261904D02*
X268024819Y-57690476D01*
X268024819Y-57690476D02*
X268024819Y-58309523D01*
X267024819Y-58642857D02*
X267024819Y-59309523D01*
X267024819Y-59309523D02*
X268024819Y-58880952D01*
X267704819Y-61548095D02*
X266704819Y-61548095D01*
X267704819Y-62119523D02*
X267133390Y-61690952D01*
X266704819Y-62119523D02*
X267276247Y-61548095D01*
X191824819Y-56785714D02*
X190824819Y-56785714D01*
X190824819Y-56785714D02*
X190824819Y-57023809D01*
X190824819Y-57023809D02*
X190872438Y-57166666D01*
X190872438Y-57166666D02*
X190967676Y-57261904D01*
X190967676Y-57261904D02*
X191062914Y-57309523D01*
X191062914Y-57309523D02*
X191253390Y-57357142D01*
X191253390Y-57357142D02*
X191396247Y-57357142D01*
X191396247Y-57357142D02*
X191586723Y-57309523D01*
X191586723Y-57309523D02*
X191681961Y-57261904D01*
X191681961Y-57261904D02*
X191777200Y-57166666D01*
X191777200Y-57166666D02*
X191824819Y-57023809D01*
X191824819Y-57023809D02*
X191824819Y-56785714D01*
X190920057Y-57738095D02*
X190872438Y-57785714D01*
X190872438Y-57785714D02*
X190824819Y-57880952D01*
X190824819Y-57880952D02*
X190824819Y-58119047D01*
X190824819Y-58119047D02*
X190872438Y-58214285D01*
X190872438Y-58214285D02*
X190920057Y-58261904D01*
X190920057Y-58261904D02*
X191015295Y-58309523D01*
X191015295Y-58309523D02*
X191110533Y-58309523D01*
X191110533Y-58309523D02*
X191253390Y-58261904D01*
X191253390Y-58261904D02*
X191824819Y-57690476D01*
X191824819Y-57690476D02*
X191824819Y-58309523D01*
X190824819Y-58642857D02*
X190824819Y-59261904D01*
X190824819Y-59261904D02*
X191205771Y-58928571D01*
X191205771Y-58928571D02*
X191205771Y-59071428D01*
X191205771Y-59071428D02*
X191253390Y-59166666D01*
X191253390Y-59166666D02*
X191301009Y-59214285D01*
X191301009Y-59214285D02*
X191396247Y-59261904D01*
X191396247Y-59261904D02*
X191634342Y-59261904D01*
X191634342Y-59261904D02*
X191729580Y-59214285D01*
X191729580Y-59214285D02*
X191777200Y-59166666D01*
X191777200Y-59166666D02*
X191824819Y-59071428D01*
X191824819Y-59071428D02*
X191824819Y-58785714D01*
X191824819Y-58785714D02*
X191777200Y-58690476D01*
X191777200Y-58690476D02*
X191729580Y-58642857D01*
X191504819Y-61548095D02*
X190504819Y-61548095D01*
X191504819Y-62119523D02*
X190933390Y-61690952D01*
X190504819Y-62119523D02*
X191076247Y-61548095D01*
X82074819Y-74785714D02*
X81074819Y-74785714D01*
X81074819Y-74785714D02*
X81074819Y-75023809D01*
X81074819Y-75023809D02*
X81122438Y-75166666D01*
X81122438Y-75166666D02*
X81217676Y-75261904D01*
X81217676Y-75261904D02*
X81312914Y-75309523D01*
X81312914Y-75309523D02*
X81503390Y-75357142D01*
X81503390Y-75357142D02*
X81646247Y-75357142D01*
X81646247Y-75357142D02*
X81836723Y-75309523D01*
X81836723Y-75309523D02*
X81931961Y-75261904D01*
X81931961Y-75261904D02*
X82027200Y-75166666D01*
X82027200Y-75166666D02*
X82074819Y-75023809D01*
X82074819Y-75023809D02*
X82074819Y-74785714D01*
X81074819Y-75690476D02*
X81074819Y-76309523D01*
X81074819Y-76309523D02*
X81455771Y-75976190D01*
X81455771Y-75976190D02*
X81455771Y-76119047D01*
X81455771Y-76119047D02*
X81503390Y-76214285D01*
X81503390Y-76214285D02*
X81551009Y-76261904D01*
X81551009Y-76261904D02*
X81646247Y-76309523D01*
X81646247Y-76309523D02*
X81884342Y-76309523D01*
X81884342Y-76309523D02*
X81979580Y-76261904D01*
X81979580Y-76261904D02*
X82027200Y-76214285D01*
X82027200Y-76214285D02*
X82074819Y-76119047D01*
X82074819Y-76119047D02*
X82074819Y-75833333D01*
X82074819Y-75833333D02*
X82027200Y-75738095D01*
X82027200Y-75738095D02*
X81979580Y-75690476D01*
X81170057Y-76690476D02*
X81122438Y-76738095D01*
X81122438Y-76738095D02*
X81074819Y-76833333D01*
X81074819Y-76833333D02*
X81074819Y-77071428D01*
X81074819Y-77071428D02*
X81122438Y-77166666D01*
X81122438Y-77166666D02*
X81170057Y-77214285D01*
X81170057Y-77214285D02*
X81265295Y-77261904D01*
X81265295Y-77261904D02*
X81360533Y-77261904D01*
X81360533Y-77261904D02*
X81503390Y-77214285D01*
X81503390Y-77214285D02*
X82074819Y-76642857D01*
X82074819Y-76642857D02*
X82074819Y-77261904D01*
X81754819Y-79548095D02*
X80754819Y-79548095D01*
X81754819Y-80119523D02*
X81183390Y-79690952D01*
X80754819Y-80119523D02*
X81326247Y-79548095D01*
X61074819Y-94225714D02*
X60074819Y-94225714D01*
X60074819Y-94225714D02*
X60074819Y-94463809D01*
X60074819Y-94463809D02*
X60122438Y-94606666D01*
X60122438Y-94606666D02*
X60217676Y-94701904D01*
X60217676Y-94701904D02*
X60312914Y-94749523D01*
X60312914Y-94749523D02*
X60503390Y-94797142D01*
X60503390Y-94797142D02*
X60646247Y-94797142D01*
X60646247Y-94797142D02*
X60836723Y-94749523D01*
X60836723Y-94749523D02*
X60931961Y-94701904D01*
X60931961Y-94701904D02*
X61027200Y-94606666D01*
X61027200Y-94606666D02*
X61074819Y-94463809D01*
X61074819Y-94463809D02*
X61074819Y-94225714D01*
X60408152Y-95654285D02*
X61074819Y-95654285D01*
X60027200Y-95416190D02*
X60741485Y-95178095D01*
X60741485Y-95178095D02*
X60741485Y-95797142D01*
X60408152Y-96606666D02*
X61074819Y-96606666D01*
X60027200Y-96368571D02*
X60741485Y-96130476D01*
X60741485Y-96130476D02*
X60741485Y-96749523D01*
X60754819Y-98988095D02*
X59754819Y-98988095D01*
X60754819Y-99559523D02*
X60183390Y-99130952D01*
X59754819Y-99559523D02*
X60326247Y-98988095D01*
X234424819Y-75285714D02*
X233424819Y-75285714D01*
X233424819Y-75285714D02*
X233424819Y-75523809D01*
X233424819Y-75523809D02*
X233472438Y-75666666D01*
X233472438Y-75666666D02*
X233567676Y-75761904D01*
X233567676Y-75761904D02*
X233662914Y-75809523D01*
X233662914Y-75809523D02*
X233853390Y-75857142D01*
X233853390Y-75857142D02*
X233996247Y-75857142D01*
X233996247Y-75857142D02*
X234186723Y-75809523D01*
X234186723Y-75809523D02*
X234281961Y-75761904D01*
X234281961Y-75761904D02*
X234377200Y-75666666D01*
X234377200Y-75666666D02*
X234424819Y-75523809D01*
X234424819Y-75523809D02*
X234424819Y-75285714D01*
X233758152Y-76714285D02*
X234424819Y-76714285D01*
X233377200Y-76476190D02*
X234091485Y-76238095D01*
X234091485Y-76238095D02*
X234091485Y-76857142D01*
X233424819Y-77428571D02*
X233424819Y-77523809D01*
X233424819Y-77523809D02*
X233472438Y-77619047D01*
X233472438Y-77619047D02*
X233520057Y-77666666D01*
X233520057Y-77666666D02*
X233615295Y-77714285D01*
X233615295Y-77714285D02*
X233805771Y-77761904D01*
X233805771Y-77761904D02*
X234043866Y-77761904D01*
X234043866Y-77761904D02*
X234234342Y-77714285D01*
X234234342Y-77714285D02*
X234329580Y-77666666D01*
X234329580Y-77666666D02*
X234377200Y-77619047D01*
X234377200Y-77619047D02*
X234424819Y-77523809D01*
X234424819Y-77523809D02*
X234424819Y-77428571D01*
X234424819Y-77428571D02*
X234377200Y-77333333D01*
X234377200Y-77333333D02*
X234329580Y-77285714D01*
X234329580Y-77285714D02*
X234234342Y-77238095D01*
X234234342Y-77238095D02*
X234043866Y-77190476D01*
X234043866Y-77190476D02*
X233805771Y-77190476D01*
X233805771Y-77190476D02*
X233615295Y-77238095D01*
X233615295Y-77238095D02*
X233520057Y-77285714D01*
X233520057Y-77285714D02*
X233472438Y-77333333D01*
X233472438Y-77333333D02*
X233424819Y-77428571D01*
X234104819Y-80048095D02*
X233104819Y-80048095D01*
X234104819Y-80619523D02*
X233533390Y-80190952D01*
X233104819Y-80619523D02*
X233676247Y-80048095D01*
X163374819Y-37551905D02*
X162374819Y-37551905D01*
X162374819Y-37551905D02*
X162374819Y-37790000D01*
X162374819Y-37790000D02*
X162422438Y-37932857D01*
X162422438Y-37932857D02*
X162517676Y-38028095D01*
X162517676Y-38028095D02*
X162612914Y-38075714D01*
X162612914Y-38075714D02*
X162803390Y-38123333D01*
X162803390Y-38123333D02*
X162946247Y-38123333D01*
X162946247Y-38123333D02*
X163136723Y-38075714D01*
X163136723Y-38075714D02*
X163231961Y-38028095D01*
X163231961Y-38028095D02*
X163327200Y-37932857D01*
X163327200Y-37932857D02*
X163374819Y-37790000D01*
X163374819Y-37790000D02*
X163374819Y-37551905D01*
X162374819Y-38456667D02*
X162374819Y-39123333D01*
X162374819Y-39123333D02*
X163374819Y-38694762D01*
X163054819Y-41838095D02*
X162054819Y-41838095D01*
X163054819Y-42409523D02*
X162483390Y-41980952D01*
X162054819Y-42409523D02*
X162626247Y-41838095D01*
X51954819Y-77285714D02*
X50954819Y-77285714D01*
X50954819Y-77285714D02*
X50954819Y-77523809D01*
X50954819Y-77523809D02*
X51002438Y-77666666D01*
X51002438Y-77666666D02*
X51097676Y-77761904D01*
X51097676Y-77761904D02*
X51192914Y-77809523D01*
X51192914Y-77809523D02*
X51383390Y-77857142D01*
X51383390Y-77857142D02*
X51526247Y-77857142D01*
X51526247Y-77857142D02*
X51716723Y-77809523D01*
X51716723Y-77809523D02*
X51811961Y-77761904D01*
X51811961Y-77761904D02*
X51907200Y-77666666D01*
X51907200Y-77666666D02*
X51954819Y-77523809D01*
X51954819Y-77523809D02*
X51954819Y-77285714D01*
X50954819Y-78190476D02*
X50954819Y-78809523D01*
X50954819Y-78809523D02*
X51335771Y-78476190D01*
X51335771Y-78476190D02*
X51335771Y-78619047D01*
X51335771Y-78619047D02*
X51383390Y-78714285D01*
X51383390Y-78714285D02*
X51431009Y-78761904D01*
X51431009Y-78761904D02*
X51526247Y-78809523D01*
X51526247Y-78809523D02*
X51764342Y-78809523D01*
X51764342Y-78809523D02*
X51859580Y-78761904D01*
X51859580Y-78761904D02*
X51907200Y-78714285D01*
X51907200Y-78714285D02*
X51954819Y-78619047D01*
X51954819Y-78619047D02*
X51954819Y-78333333D01*
X51954819Y-78333333D02*
X51907200Y-78238095D01*
X51907200Y-78238095D02*
X51859580Y-78190476D01*
X51954819Y-79761904D02*
X51954819Y-79190476D01*
X51954819Y-79476190D02*
X50954819Y-79476190D01*
X50954819Y-79476190D02*
X51097676Y-79380952D01*
X51097676Y-79380952D02*
X51192914Y-79285714D01*
X51192914Y-79285714D02*
X51240533Y-79190476D01*
X55754819Y-79938095D02*
X54754819Y-79938095D01*
X55754819Y-80509523D02*
X55183390Y-80080952D01*
X54754819Y-80509523D02*
X55326247Y-79938095D01*
X229924819Y-56785714D02*
X228924819Y-56785714D01*
X228924819Y-56785714D02*
X228924819Y-57023809D01*
X228924819Y-57023809D02*
X228972438Y-57166666D01*
X228972438Y-57166666D02*
X229067676Y-57261904D01*
X229067676Y-57261904D02*
X229162914Y-57309523D01*
X229162914Y-57309523D02*
X229353390Y-57357142D01*
X229353390Y-57357142D02*
X229496247Y-57357142D01*
X229496247Y-57357142D02*
X229686723Y-57309523D01*
X229686723Y-57309523D02*
X229781961Y-57261904D01*
X229781961Y-57261904D02*
X229877200Y-57166666D01*
X229877200Y-57166666D02*
X229924819Y-57023809D01*
X229924819Y-57023809D02*
X229924819Y-56785714D01*
X229020057Y-57738095D02*
X228972438Y-57785714D01*
X228972438Y-57785714D02*
X228924819Y-57880952D01*
X228924819Y-57880952D02*
X228924819Y-58119047D01*
X228924819Y-58119047D02*
X228972438Y-58214285D01*
X228972438Y-58214285D02*
X229020057Y-58261904D01*
X229020057Y-58261904D02*
X229115295Y-58309523D01*
X229115295Y-58309523D02*
X229210533Y-58309523D01*
X229210533Y-58309523D02*
X229353390Y-58261904D01*
X229353390Y-58261904D02*
X229924819Y-57690476D01*
X229924819Y-57690476D02*
X229924819Y-58309523D01*
X228924819Y-59214285D02*
X228924819Y-58738095D01*
X228924819Y-58738095D02*
X229401009Y-58690476D01*
X229401009Y-58690476D02*
X229353390Y-58738095D01*
X229353390Y-58738095D02*
X229305771Y-58833333D01*
X229305771Y-58833333D02*
X229305771Y-59071428D01*
X229305771Y-59071428D02*
X229353390Y-59166666D01*
X229353390Y-59166666D02*
X229401009Y-59214285D01*
X229401009Y-59214285D02*
X229496247Y-59261904D01*
X229496247Y-59261904D02*
X229734342Y-59261904D01*
X229734342Y-59261904D02*
X229829580Y-59214285D01*
X229829580Y-59214285D02*
X229877200Y-59166666D01*
X229877200Y-59166666D02*
X229924819Y-59071428D01*
X229924819Y-59071428D02*
X229924819Y-58833333D01*
X229924819Y-58833333D02*
X229877200Y-58738095D01*
X229877200Y-58738095D02*
X229829580Y-58690476D01*
X229604819Y-61548095D02*
X228604819Y-61548095D01*
X229604819Y-62119523D02*
X229033390Y-61690952D01*
X228604819Y-62119523D02*
X229176247Y-61548095D01*
X284574819Y-112285714D02*
X283574819Y-112285714D01*
X283574819Y-112285714D02*
X283574819Y-112523809D01*
X283574819Y-112523809D02*
X283622438Y-112666666D01*
X283622438Y-112666666D02*
X283717676Y-112761904D01*
X283717676Y-112761904D02*
X283812914Y-112809523D01*
X283812914Y-112809523D02*
X284003390Y-112857142D01*
X284003390Y-112857142D02*
X284146247Y-112857142D01*
X284146247Y-112857142D02*
X284336723Y-112809523D01*
X284336723Y-112809523D02*
X284431961Y-112761904D01*
X284431961Y-112761904D02*
X284527200Y-112666666D01*
X284527200Y-112666666D02*
X284574819Y-112523809D01*
X284574819Y-112523809D02*
X284574819Y-112285714D01*
X283574819Y-113714285D02*
X283574819Y-113523809D01*
X283574819Y-113523809D02*
X283622438Y-113428571D01*
X283622438Y-113428571D02*
X283670057Y-113380952D01*
X283670057Y-113380952D02*
X283812914Y-113285714D01*
X283812914Y-113285714D02*
X284003390Y-113238095D01*
X284003390Y-113238095D02*
X284384342Y-113238095D01*
X284384342Y-113238095D02*
X284479580Y-113285714D01*
X284479580Y-113285714D02*
X284527200Y-113333333D01*
X284527200Y-113333333D02*
X284574819Y-113428571D01*
X284574819Y-113428571D02*
X284574819Y-113619047D01*
X284574819Y-113619047D02*
X284527200Y-113714285D01*
X284527200Y-113714285D02*
X284479580Y-113761904D01*
X284479580Y-113761904D02*
X284384342Y-113809523D01*
X284384342Y-113809523D02*
X284146247Y-113809523D01*
X284146247Y-113809523D02*
X284051009Y-113761904D01*
X284051009Y-113761904D02*
X284003390Y-113714285D01*
X284003390Y-113714285D02*
X283955771Y-113619047D01*
X283955771Y-113619047D02*
X283955771Y-113428571D01*
X283955771Y-113428571D02*
X284003390Y-113333333D01*
X284003390Y-113333333D02*
X284051009Y-113285714D01*
X284051009Y-113285714D02*
X284146247Y-113238095D01*
X283670057Y-114190476D02*
X283622438Y-114238095D01*
X283622438Y-114238095D02*
X283574819Y-114333333D01*
X283574819Y-114333333D02*
X283574819Y-114571428D01*
X283574819Y-114571428D02*
X283622438Y-114666666D01*
X283622438Y-114666666D02*
X283670057Y-114714285D01*
X283670057Y-114714285D02*
X283765295Y-114761904D01*
X283765295Y-114761904D02*
X283860533Y-114761904D01*
X283860533Y-114761904D02*
X284003390Y-114714285D01*
X284003390Y-114714285D02*
X284574819Y-114142857D01*
X284574819Y-114142857D02*
X284574819Y-114761904D01*
X284254819Y-117048095D02*
X283254819Y-117048095D01*
X284254819Y-117619523D02*
X283683390Y-117190952D01*
X283254819Y-117619523D02*
X283826247Y-117048095D01*
X106224819Y-37551905D02*
X105224819Y-37551905D01*
X105224819Y-37551905D02*
X105224819Y-37790000D01*
X105224819Y-37790000D02*
X105272438Y-37932857D01*
X105272438Y-37932857D02*
X105367676Y-38028095D01*
X105367676Y-38028095D02*
X105462914Y-38075714D01*
X105462914Y-38075714D02*
X105653390Y-38123333D01*
X105653390Y-38123333D02*
X105796247Y-38123333D01*
X105796247Y-38123333D02*
X105986723Y-38075714D01*
X105986723Y-38075714D02*
X106081961Y-38028095D01*
X106081961Y-38028095D02*
X106177200Y-37932857D01*
X106177200Y-37932857D02*
X106224819Y-37790000D01*
X106224819Y-37790000D02*
X106224819Y-37551905D01*
X105558152Y-38980476D02*
X106224819Y-38980476D01*
X105177200Y-38742381D02*
X105891485Y-38504286D01*
X105891485Y-38504286D02*
X105891485Y-39123333D01*
X105904819Y-41838095D02*
X104904819Y-41838095D01*
X105904819Y-42409523D02*
X105333390Y-41980952D01*
X104904819Y-42409523D02*
X105476247Y-41838095D01*
X220524819Y-37075714D02*
X219524819Y-37075714D01*
X219524819Y-37075714D02*
X219524819Y-37313809D01*
X219524819Y-37313809D02*
X219572438Y-37456666D01*
X219572438Y-37456666D02*
X219667676Y-37551904D01*
X219667676Y-37551904D02*
X219762914Y-37599523D01*
X219762914Y-37599523D02*
X219953390Y-37647142D01*
X219953390Y-37647142D02*
X220096247Y-37647142D01*
X220096247Y-37647142D02*
X220286723Y-37599523D01*
X220286723Y-37599523D02*
X220381961Y-37551904D01*
X220381961Y-37551904D02*
X220477200Y-37456666D01*
X220477200Y-37456666D02*
X220524819Y-37313809D01*
X220524819Y-37313809D02*
X220524819Y-37075714D01*
X220524819Y-38599523D02*
X220524819Y-38028095D01*
X220524819Y-38313809D02*
X219524819Y-38313809D01*
X219524819Y-38313809D02*
X219667676Y-38218571D01*
X219667676Y-38218571D02*
X219762914Y-38123333D01*
X219762914Y-38123333D02*
X219810533Y-38028095D01*
X219524819Y-39218571D02*
X219524819Y-39313809D01*
X219524819Y-39313809D02*
X219572438Y-39409047D01*
X219572438Y-39409047D02*
X219620057Y-39456666D01*
X219620057Y-39456666D02*
X219715295Y-39504285D01*
X219715295Y-39504285D02*
X219905771Y-39551904D01*
X219905771Y-39551904D02*
X220143866Y-39551904D01*
X220143866Y-39551904D02*
X220334342Y-39504285D01*
X220334342Y-39504285D02*
X220429580Y-39456666D01*
X220429580Y-39456666D02*
X220477200Y-39409047D01*
X220477200Y-39409047D02*
X220524819Y-39313809D01*
X220524819Y-39313809D02*
X220524819Y-39218571D01*
X220524819Y-39218571D02*
X220477200Y-39123333D01*
X220477200Y-39123333D02*
X220429580Y-39075714D01*
X220429580Y-39075714D02*
X220334342Y-39028095D01*
X220334342Y-39028095D02*
X220143866Y-38980476D01*
X220143866Y-38980476D02*
X219905771Y-38980476D01*
X219905771Y-38980476D02*
X219715295Y-39028095D01*
X219715295Y-39028095D02*
X219620057Y-39075714D01*
X219620057Y-39075714D02*
X219572438Y-39123333D01*
X219572438Y-39123333D02*
X219524819Y-39218571D01*
X220204819Y-41838095D02*
X219204819Y-41838095D01*
X220204819Y-42409523D02*
X219633390Y-41980952D01*
X219204819Y-42409523D02*
X219776247Y-41838095D01*
X344074819Y-113285714D02*
X343074819Y-113285714D01*
X343074819Y-113285714D02*
X343074819Y-113523809D01*
X343074819Y-113523809D02*
X343122438Y-113666666D01*
X343122438Y-113666666D02*
X343217676Y-113761904D01*
X343217676Y-113761904D02*
X343312914Y-113809523D01*
X343312914Y-113809523D02*
X343503390Y-113857142D01*
X343503390Y-113857142D02*
X343646247Y-113857142D01*
X343646247Y-113857142D02*
X343836723Y-113809523D01*
X343836723Y-113809523D02*
X343931961Y-113761904D01*
X343931961Y-113761904D02*
X344027200Y-113666666D01*
X344027200Y-113666666D02*
X344074819Y-113523809D01*
X344074819Y-113523809D02*
X344074819Y-113285714D01*
X343074819Y-114714285D02*
X343074819Y-114523809D01*
X343074819Y-114523809D02*
X343122438Y-114428571D01*
X343122438Y-114428571D02*
X343170057Y-114380952D01*
X343170057Y-114380952D02*
X343312914Y-114285714D01*
X343312914Y-114285714D02*
X343503390Y-114238095D01*
X343503390Y-114238095D02*
X343884342Y-114238095D01*
X343884342Y-114238095D02*
X343979580Y-114285714D01*
X343979580Y-114285714D02*
X344027200Y-114333333D01*
X344027200Y-114333333D02*
X344074819Y-114428571D01*
X344074819Y-114428571D02*
X344074819Y-114619047D01*
X344074819Y-114619047D02*
X344027200Y-114714285D01*
X344027200Y-114714285D02*
X343979580Y-114761904D01*
X343979580Y-114761904D02*
X343884342Y-114809523D01*
X343884342Y-114809523D02*
X343646247Y-114809523D01*
X343646247Y-114809523D02*
X343551009Y-114761904D01*
X343551009Y-114761904D02*
X343503390Y-114714285D01*
X343503390Y-114714285D02*
X343455771Y-114619047D01*
X343455771Y-114619047D02*
X343455771Y-114428571D01*
X343455771Y-114428571D02*
X343503390Y-114333333D01*
X343503390Y-114333333D02*
X343551009Y-114285714D01*
X343551009Y-114285714D02*
X343646247Y-114238095D01*
X343074819Y-115714285D02*
X343074819Y-115238095D01*
X343074819Y-115238095D02*
X343551009Y-115190476D01*
X343551009Y-115190476D02*
X343503390Y-115238095D01*
X343503390Y-115238095D02*
X343455771Y-115333333D01*
X343455771Y-115333333D02*
X343455771Y-115571428D01*
X343455771Y-115571428D02*
X343503390Y-115666666D01*
X343503390Y-115666666D02*
X343551009Y-115714285D01*
X343551009Y-115714285D02*
X343646247Y-115761904D01*
X343646247Y-115761904D02*
X343884342Y-115761904D01*
X343884342Y-115761904D02*
X343979580Y-115714285D01*
X343979580Y-115714285D02*
X344027200Y-115666666D01*
X344027200Y-115666666D02*
X344074819Y-115571428D01*
X344074819Y-115571428D02*
X344074819Y-115333333D01*
X344074819Y-115333333D02*
X344027200Y-115238095D01*
X344027200Y-115238095D02*
X343979580Y-115190476D01*
X343754819Y-118048095D02*
X342754819Y-118048095D01*
X343754819Y-118619523D02*
X343183390Y-118190952D01*
X342754819Y-118619523D02*
X343326247Y-118048095D01*
X308574819Y-36785714D02*
X307574819Y-36785714D01*
X307574819Y-36785714D02*
X307574819Y-37023809D01*
X307574819Y-37023809D02*
X307622438Y-37166666D01*
X307622438Y-37166666D02*
X307717676Y-37261904D01*
X307717676Y-37261904D02*
X307812914Y-37309523D01*
X307812914Y-37309523D02*
X308003390Y-37357142D01*
X308003390Y-37357142D02*
X308146247Y-37357142D01*
X308146247Y-37357142D02*
X308336723Y-37309523D01*
X308336723Y-37309523D02*
X308431961Y-37261904D01*
X308431961Y-37261904D02*
X308527200Y-37166666D01*
X308527200Y-37166666D02*
X308574819Y-37023809D01*
X308574819Y-37023809D02*
X308574819Y-36785714D01*
X308574819Y-38309523D02*
X308574819Y-37738095D01*
X308574819Y-38023809D02*
X307574819Y-38023809D01*
X307574819Y-38023809D02*
X307717676Y-37928571D01*
X307717676Y-37928571D02*
X307812914Y-37833333D01*
X307812914Y-37833333D02*
X307860533Y-37738095D01*
X307908152Y-39166666D02*
X308574819Y-39166666D01*
X307527200Y-38928571D02*
X308241485Y-38690476D01*
X308241485Y-38690476D02*
X308241485Y-39309523D01*
X308254819Y-41548095D02*
X307254819Y-41548095D01*
X308254819Y-42119523D02*
X307683390Y-41690952D01*
X307254819Y-42119523D02*
X307826247Y-41548095D01*
D11*
%TO.C,D13*%
X275000000Y-35730000D02*
X275000000Y-36380000D01*
X275000000Y-41270000D02*
X275000000Y-40620000D01*
X276120000Y-39780000D02*
X273880000Y-39780000D01*
X276120000Y-39900000D02*
X273880000Y-39900000D01*
X276120000Y-40020000D02*
X273880000Y-40020000D01*
X276120000Y-40620000D02*
X273880000Y-40620000D01*
X273880000Y-36380000D01*
X276120000Y-36380000D01*
X276120000Y-40620000D01*
%TO.C,D5*%
X122700000Y-35520000D02*
X122700000Y-36170000D01*
X122700000Y-41060000D02*
X122700000Y-40410000D01*
X123820000Y-39570000D02*
X121580000Y-39570000D01*
X123820000Y-39690000D02*
X121580000Y-39690000D01*
X123820000Y-39810000D02*
X121580000Y-39810000D01*
X123820000Y-40410000D02*
X121580000Y-40410000D01*
X121580000Y-36170000D01*
X123820000Y-36170000D01*
X123820000Y-40410000D01*
%TO.C,D6*%
X141750000Y-35520000D02*
X141750000Y-36170000D01*
X141750000Y-41060000D02*
X141750000Y-40410000D01*
X142870000Y-39570000D02*
X140630000Y-39570000D01*
X142870000Y-39690000D02*
X140630000Y-39690000D01*
X142870000Y-39810000D02*
X140630000Y-39810000D01*
X142870000Y-40410000D02*
X140630000Y-40410000D01*
X140630000Y-36170000D01*
X142870000Y-36170000D01*
X142870000Y-40410000D01*
%TO.C,D38*%
X193750000Y-73730000D02*
X193750000Y-74380000D01*
X193750000Y-79270000D02*
X193750000Y-78620000D01*
X194870000Y-77780000D02*
X192630000Y-77780000D01*
X194870000Y-77900000D02*
X192630000Y-77900000D01*
X194870000Y-78020000D02*
X192630000Y-78020000D01*
X194870000Y-78620000D02*
X192630000Y-78620000D01*
X192630000Y-74380000D01*
X194870000Y-74380000D01*
X194870000Y-78620000D01*
%TO.C,D20*%
X132100000Y-55230000D02*
X132100000Y-55880000D01*
X132100000Y-60770000D02*
X132100000Y-60120000D01*
X133220000Y-59280000D02*
X130980000Y-59280000D01*
X133220000Y-59400000D02*
X130980000Y-59400000D01*
X133220000Y-59520000D02*
X130980000Y-59520000D01*
X133220000Y-60120000D02*
X130980000Y-60120000D01*
X130980000Y-55880000D01*
X133220000Y-55880000D01*
X133220000Y-60120000D01*
%TO.C,D45*%
X89250000Y-92730000D02*
X89250000Y-93380000D01*
X89250000Y-98270000D02*
X89250000Y-97620000D01*
X90370000Y-96780000D02*
X88130000Y-96780000D01*
X90370000Y-96900000D02*
X88130000Y-96900000D01*
X90370000Y-97020000D02*
X88130000Y-97020000D01*
X90370000Y-97620000D02*
X88130000Y-97620000D01*
X88130000Y-93380000D01*
X90370000Y-93380000D01*
X90370000Y-97620000D01*
%TO.C,D60*%
X234000000Y-111230000D02*
X234000000Y-111880000D01*
X234000000Y-116770000D02*
X234000000Y-116120000D01*
X235120000Y-115280000D02*
X232880000Y-115280000D01*
X235120000Y-115400000D02*
X232880000Y-115400000D01*
X235120000Y-115520000D02*
X232880000Y-115520000D01*
X235120000Y-116120000D02*
X232880000Y-116120000D01*
X232880000Y-111880000D01*
X235120000Y-111880000D01*
X235120000Y-116120000D01*
%TO.C,D51*%
X203550000Y-92730000D02*
X203550000Y-93380000D01*
X203550000Y-98270000D02*
X203550000Y-97620000D01*
X204670000Y-96780000D02*
X202430000Y-96780000D01*
X204670000Y-96900000D02*
X202430000Y-96900000D01*
X204670000Y-97020000D02*
X202430000Y-97020000D01*
X204670000Y-97620000D02*
X202430000Y-97620000D01*
X202430000Y-93380000D01*
X204670000Y-93380000D01*
X204670000Y-97620000D01*
%TO.C,D21*%
X151150000Y-55230000D02*
X151150000Y-55880000D01*
X151150000Y-60770000D02*
X151150000Y-60120000D01*
X152270000Y-59280000D02*
X150030000Y-59280000D01*
X152270000Y-59400000D02*
X150030000Y-59400000D01*
X152270000Y-59520000D02*
X150030000Y-59520000D01*
X152270000Y-60120000D02*
X150030000Y-60120000D01*
X150030000Y-55880000D01*
X152270000Y-55880000D01*
X152270000Y-60120000D01*
%TO.C,D3*%
X84600000Y-35520000D02*
X84600000Y-36170000D01*
X84600000Y-41060000D02*
X84600000Y-40410000D01*
X85720000Y-39570000D02*
X83480000Y-39570000D01*
X85720000Y-39690000D02*
X83480000Y-39690000D01*
X85720000Y-39810000D02*
X83480000Y-39810000D01*
X85720000Y-40410000D02*
X83480000Y-40410000D01*
X83480000Y-36170000D01*
X85720000Y-36170000D01*
X85720000Y-40410000D01*
%TO.C,D34*%
X117550000Y-73730000D02*
X117550000Y-74380000D01*
X117550000Y-79270000D02*
X117550000Y-78620000D01*
X118670000Y-77780000D02*
X116430000Y-77780000D01*
X118670000Y-77900000D02*
X116430000Y-77900000D01*
X118670000Y-78020000D02*
X116430000Y-78020000D01*
X118670000Y-78620000D02*
X116430000Y-78620000D01*
X116430000Y-74380000D01*
X118670000Y-74380000D01*
X118670000Y-78620000D01*
%TO.C,D33*%
X98500000Y-73730000D02*
X98500000Y-74380000D01*
X98500000Y-79270000D02*
X98500000Y-78620000D01*
X99620000Y-77780000D02*
X97380000Y-77780000D01*
X99620000Y-77900000D02*
X97380000Y-77900000D01*
X99620000Y-78020000D02*
X97380000Y-78020000D01*
X99620000Y-78620000D02*
X97380000Y-78620000D01*
X97380000Y-74380000D01*
X99620000Y-74380000D01*
X99620000Y-78620000D01*
%TO.C,D52*%
X222600000Y-92730000D02*
X222600000Y-93380000D01*
X222600000Y-98270000D02*
X222600000Y-97620000D01*
X223720000Y-96780000D02*
X221480000Y-96780000D01*
X223720000Y-96900000D02*
X221480000Y-96900000D01*
X223720000Y-97020000D02*
X221480000Y-97020000D01*
X223720000Y-97620000D02*
X221480000Y-97620000D01*
X221480000Y-93380000D01*
X223720000Y-93380000D01*
X223720000Y-97620000D01*
%TO.C,D46*%
X108300000Y-92730000D02*
X108300000Y-93380000D01*
X108300000Y-98270000D02*
X108300000Y-97620000D01*
X109420000Y-96780000D02*
X107180000Y-96780000D01*
X109420000Y-96900000D02*
X107180000Y-96900000D01*
X109420000Y-97020000D02*
X107180000Y-97020000D01*
X109420000Y-97620000D02*
X107180000Y-97620000D01*
X107180000Y-93380000D01*
X109420000Y-93380000D01*
X109420000Y-97620000D01*
%TO.C,D37*%
X174700000Y-73730000D02*
X174700000Y-74380000D01*
X174700000Y-79270000D02*
X174700000Y-78620000D01*
X175820000Y-77780000D02*
X173580000Y-77780000D01*
X175820000Y-77900000D02*
X173580000Y-77900000D01*
X175820000Y-78020000D02*
X173580000Y-78020000D01*
X175820000Y-78620000D02*
X173580000Y-78620000D01*
X173580000Y-74380000D01*
X175820000Y-74380000D01*
X175820000Y-78620000D01*
%TO.C,D11*%
X237000000Y-35520000D02*
X237000000Y-36170000D01*
X237000000Y-41060000D02*
X237000000Y-40410000D01*
X238120000Y-39570000D02*
X235880000Y-39570000D01*
X238120000Y-39690000D02*
X235880000Y-39690000D01*
X238120000Y-39810000D02*
X235880000Y-39810000D01*
X238120000Y-40410000D02*
X235880000Y-40410000D01*
X235880000Y-36170000D01*
X238120000Y-36170000D01*
X238120000Y-40410000D01*
%TO.C,D8*%
X179850000Y-35520000D02*
X179850000Y-36170000D01*
X179850000Y-41060000D02*
X179850000Y-40410000D01*
X180970000Y-39570000D02*
X178730000Y-39570000D01*
X180970000Y-39690000D02*
X178730000Y-39690000D01*
X180970000Y-39810000D02*
X178730000Y-39810000D01*
X180970000Y-40410000D02*
X178730000Y-40410000D01*
X178730000Y-36170000D01*
X180970000Y-36170000D01*
X180970000Y-40410000D01*
%TO.C,D30*%
X356500000Y-48230000D02*
X356500000Y-48880000D01*
X356500000Y-53770000D02*
X356500000Y-53120000D01*
X357620000Y-52280000D02*
X355380000Y-52280000D01*
X357620000Y-52400000D02*
X355380000Y-52400000D01*
X357620000Y-52520000D02*
X355380000Y-52520000D01*
X357620000Y-53120000D02*
X355380000Y-53120000D01*
X355380000Y-48880000D01*
X357620000Y-48880000D01*
X357620000Y-53120000D01*
%TO.C,D55*%
X322500000Y-92230000D02*
X322500000Y-92880000D01*
X322500000Y-97770000D02*
X322500000Y-97120000D01*
X323620000Y-96280000D02*
X321380000Y-96280000D01*
X323620000Y-96400000D02*
X321380000Y-96400000D01*
X323620000Y-96520000D02*
X321380000Y-96520000D01*
X323620000Y-97120000D02*
X321380000Y-97120000D01*
X321380000Y-92880000D01*
X323620000Y-92880000D01*
X323620000Y-97120000D01*
%TO.C,D35*%
X136600000Y-73730000D02*
X136600000Y-74380000D01*
X136600000Y-79270000D02*
X136600000Y-78620000D01*
X137720000Y-77780000D02*
X135480000Y-77780000D01*
X137720000Y-77900000D02*
X135480000Y-77900000D01*
X137720000Y-78020000D02*
X135480000Y-78020000D01*
X137720000Y-78620000D02*
X135480000Y-78620000D01*
X135480000Y-74380000D01*
X137720000Y-74380000D01*
X137720000Y-78620000D01*
%TO.C,D22*%
X170200000Y-55230000D02*
X170200000Y-55880000D01*
X170200000Y-60770000D02*
X170200000Y-60120000D01*
X171320000Y-59280000D02*
X169080000Y-59280000D01*
X171320000Y-59400000D02*
X169080000Y-59400000D01*
X171320000Y-59520000D02*
X169080000Y-59520000D01*
X171320000Y-60120000D02*
X169080000Y-60120000D01*
X169080000Y-55880000D01*
X171320000Y-55880000D01*
X171320000Y-60120000D01*
%TO.C,D17*%
X74950000Y-55230000D02*
X74950000Y-55880000D01*
X74950000Y-60770000D02*
X74950000Y-60120000D01*
X76070000Y-59280000D02*
X73830000Y-59280000D01*
X76070000Y-59400000D02*
X73830000Y-59400000D01*
X76070000Y-59520000D02*
X73830000Y-59520000D01*
X76070000Y-60120000D02*
X73830000Y-60120000D01*
X73830000Y-55880000D01*
X76070000Y-55880000D01*
X76070000Y-60120000D01*
%TO.C,D19*%
X113050000Y-55230000D02*
X113050000Y-55880000D01*
X113050000Y-60770000D02*
X113050000Y-60120000D01*
X114170000Y-59280000D02*
X111930000Y-59280000D01*
X114170000Y-59400000D02*
X111930000Y-59400000D01*
X114170000Y-59520000D02*
X111930000Y-59520000D01*
X114170000Y-60120000D02*
X111930000Y-60120000D01*
X111930000Y-55880000D01*
X114170000Y-55880000D01*
X114170000Y-60120000D01*
%TO.C,D2*%
X65550000Y-35520000D02*
X65550000Y-36170000D01*
X65550000Y-41060000D02*
X65550000Y-40410000D01*
X66670000Y-39570000D02*
X64430000Y-39570000D01*
X66670000Y-39690000D02*
X64430000Y-39690000D01*
X66670000Y-39810000D02*
X64430000Y-39810000D01*
X66670000Y-40410000D02*
X64430000Y-40410000D01*
X64430000Y-36170000D01*
X66670000Y-36170000D01*
X66670000Y-40410000D01*
%TO.C,D12*%
X256050000Y-35520000D02*
X256050000Y-36170000D01*
X256050000Y-41060000D02*
X256050000Y-40410000D01*
X257170000Y-39570000D02*
X254930000Y-39570000D01*
X257170000Y-39690000D02*
X254930000Y-39690000D01*
X257170000Y-39810000D02*
X254930000Y-39810000D01*
X257170000Y-40410000D02*
X254930000Y-40410000D01*
X254930000Y-36170000D01*
X257170000Y-36170000D01*
X257170000Y-40410000D01*
%TO.C,D59*%
X163500000Y-111230000D02*
X163500000Y-111880000D01*
X163500000Y-116770000D02*
X163500000Y-116120000D01*
X164620000Y-115280000D02*
X162380000Y-115280000D01*
X164620000Y-115400000D02*
X162380000Y-115400000D01*
X164620000Y-115520000D02*
X162380000Y-115520000D01*
X164620000Y-116120000D02*
X162380000Y-116120000D01*
X162380000Y-111880000D01*
X164620000Y-111880000D01*
X164620000Y-116120000D01*
%TO.C,D42*%
X269950000Y-73730000D02*
X269950000Y-74380000D01*
X269950000Y-79270000D02*
X269950000Y-78620000D01*
X271070000Y-77780000D02*
X268830000Y-77780000D01*
X271070000Y-77900000D02*
X268830000Y-77900000D01*
X271070000Y-78020000D02*
X268830000Y-78020000D01*
X271070000Y-78620000D02*
X268830000Y-78620000D01*
X268830000Y-74380000D01*
X271070000Y-74380000D01*
X271070000Y-78620000D01*
%TO.C,D48*%
X146400000Y-92730000D02*
X146400000Y-93380000D01*
X146400000Y-98270000D02*
X146400000Y-97620000D01*
X147520000Y-96780000D02*
X145280000Y-96780000D01*
X147520000Y-96900000D02*
X145280000Y-96900000D01*
X147520000Y-97020000D02*
X145280000Y-97020000D01*
X147520000Y-97620000D02*
X145280000Y-97620000D01*
X145280000Y-93380000D01*
X147520000Y-93380000D01*
X147520000Y-97620000D01*
%TO.C,D16*%
X51137500Y-55230000D02*
X51137500Y-55880000D01*
X51137500Y-60770000D02*
X51137500Y-60120000D01*
X52257500Y-59280000D02*
X50017500Y-59280000D01*
X52257500Y-59400000D02*
X50017500Y-59400000D01*
X52257500Y-59520000D02*
X50017500Y-59520000D01*
X52257500Y-60120000D02*
X50017500Y-60120000D01*
X50017500Y-55880000D01*
X52257500Y-55880000D01*
X52257500Y-60120000D01*
%TO.C,D43*%
X301500000Y-73230000D02*
X301500000Y-73880000D01*
X301500000Y-78770000D02*
X301500000Y-78120000D01*
X302620000Y-77280000D02*
X300380000Y-77280000D01*
X302620000Y-77400000D02*
X300380000Y-77400000D01*
X302620000Y-77520000D02*
X300380000Y-77520000D01*
X302620000Y-78120000D02*
X300380000Y-78120000D01*
X300380000Y-73880000D01*
X302620000Y-73880000D01*
X302620000Y-78120000D01*
%TO.C,D57*%
X69000000Y-110730000D02*
X69000000Y-111380000D01*
X69000000Y-116270000D02*
X69000000Y-115620000D01*
X70120000Y-114780000D02*
X67880000Y-114780000D01*
X70120000Y-114900000D02*
X67880000Y-114900000D01*
X70120000Y-115020000D02*
X67880000Y-115020000D01*
X70120000Y-115620000D02*
X67880000Y-115620000D01*
X67880000Y-111380000D01*
X70120000Y-111380000D01*
X70120000Y-115620000D01*
%TO.C,D53*%
X241650000Y-92730000D02*
X241650000Y-93380000D01*
X241650000Y-98270000D02*
X241650000Y-97620000D01*
X242770000Y-96780000D02*
X240530000Y-96780000D01*
X242770000Y-96900000D02*
X240530000Y-96900000D01*
X242770000Y-97020000D02*
X240530000Y-97020000D01*
X242770000Y-97620000D02*
X240530000Y-97620000D01*
X240530000Y-93380000D01*
X242770000Y-93380000D01*
X242770000Y-97620000D01*
%TO.C,D24*%
X208300000Y-55230000D02*
X208300000Y-55880000D01*
X208300000Y-60770000D02*
X208300000Y-60120000D01*
X209420000Y-59280000D02*
X207180000Y-59280000D01*
X209420000Y-59400000D02*
X207180000Y-59400000D01*
X209420000Y-59520000D02*
X207180000Y-59520000D01*
X209420000Y-60120000D02*
X207180000Y-60120000D01*
X207180000Y-55880000D01*
X209420000Y-55880000D01*
X209420000Y-60120000D01*
%TO.C,D50*%
X184500000Y-92730000D02*
X184500000Y-93380000D01*
X184500000Y-98270000D02*
X184500000Y-97620000D01*
X185620000Y-96780000D02*
X183380000Y-96780000D01*
X185620000Y-96900000D02*
X183380000Y-96900000D01*
X185620000Y-97020000D02*
X183380000Y-97020000D01*
X185620000Y-97620000D02*
X183380000Y-97620000D01*
X183380000Y-93380000D01*
X185620000Y-93380000D01*
X185620000Y-97620000D01*
%TO.C,D63*%
X303500000Y-112230000D02*
X303500000Y-112880000D01*
X303500000Y-117770000D02*
X303500000Y-117120000D01*
X304620000Y-116280000D02*
X302380000Y-116280000D01*
X304620000Y-116400000D02*
X302380000Y-116400000D01*
X304620000Y-116520000D02*
X302380000Y-116520000D01*
X304620000Y-117120000D02*
X302380000Y-117120000D01*
X302380000Y-112880000D01*
X304620000Y-112880000D01*
X304620000Y-117120000D01*
%TO.C,D49*%
X165450000Y-92730000D02*
X165450000Y-93380000D01*
X165450000Y-98270000D02*
X165450000Y-97620000D01*
X166570000Y-96780000D02*
X164330000Y-96780000D01*
X166570000Y-96900000D02*
X164330000Y-96900000D01*
X166570000Y-97020000D02*
X164330000Y-97020000D01*
X166570000Y-97620000D02*
X164330000Y-97620000D01*
X164330000Y-93380000D01*
X166570000Y-93380000D01*
X166570000Y-97620000D01*
%TO.C,D28*%
X284500000Y-55230000D02*
X284500000Y-55880000D01*
X284500000Y-60770000D02*
X284500000Y-60120000D01*
X285620000Y-59280000D02*
X283380000Y-59280000D01*
X285620000Y-59400000D02*
X283380000Y-59400000D01*
X285620000Y-59520000D02*
X283380000Y-59520000D01*
X285620000Y-60120000D02*
X283380000Y-60120000D01*
X283380000Y-55880000D01*
X285620000Y-55880000D01*
X285620000Y-60120000D01*
%TO.C,D61*%
X255025000Y-111720000D02*
X255025000Y-112370000D01*
X255025000Y-117260000D02*
X255025000Y-116610000D01*
X256145000Y-115770000D02*
X253905000Y-115770000D01*
X256145000Y-115890000D02*
X253905000Y-115890000D01*
X256145000Y-116010000D02*
X253905000Y-116010000D01*
X256145000Y-116610000D02*
X253905000Y-116610000D01*
X253905000Y-112370000D01*
X256145000Y-112370000D01*
X256145000Y-116610000D01*
%TO.C,D64*%
X323000000Y-110420000D02*
X323000000Y-111070000D01*
X323000000Y-115960000D02*
X323000000Y-115310000D01*
X324120000Y-114470000D02*
X321880000Y-114470000D01*
X324120000Y-114590000D02*
X321880000Y-114590000D01*
X324120000Y-114710000D02*
X321880000Y-114710000D01*
X324120000Y-115310000D02*
X321880000Y-115310000D01*
X321880000Y-111070000D01*
X324120000Y-111070000D01*
X324120000Y-115310000D01*
%TO.C,D18*%
X94000000Y-55230000D02*
X94000000Y-55880000D01*
X94000000Y-60770000D02*
X94000000Y-60120000D01*
X95120000Y-59280000D02*
X92880000Y-59280000D01*
X95120000Y-59400000D02*
X92880000Y-59400000D01*
X95120000Y-59520000D02*
X92880000Y-59520000D01*
X95120000Y-60120000D02*
X92880000Y-60120000D01*
X92880000Y-55880000D01*
X95120000Y-55880000D01*
X95120000Y-60120000D01*
%TO.C,D47*%
X127350000Y-92730000D02*
X127350000Y-93380000D01*
X127350000Y-98270000D02*
X127350000Y-97620000D01*
X128470000Y-96780000D02*
X126230000Y-96780000D01*
X128470000Y-96900000D02*
X126230000Y-96900000D01*
X128470000Y-97020000D02*
X126230000Y-97020000D01*
X128470000Y-97620000D02*
X126230000Y-97620000D01*
X126230000Y-93380000D01*
X128470000Y-93380000D01*
X128470000Y-97620000D01*
%TO.C,D58*%
X91500000Y-111730000D02*
X91500000Y-112380000D01*
X91500000Y-117270000D02*
X91500000Y-116620000D01*
X92620000Y-115780000D02*
X90380000Y-115780000D01*
X92620000Y-115900000D02*
X90380000Y-115900000D01*
X92620000Y-116020000D02*
X90380000Y-116020000D01*
X92620000Y-116620000D02*
X90380000Y-116620000D01*
X90380000Y-112380000D01*
X92620000Y-112380000D01*
X92620000Y-116620000D01*
%TO.C,D26*%
X246400000Y-55230000D02*
X246400000Y-55880000D01*
X246400000Y-60770000D02*
X246400000Y-60120000D01*
X247520000Y-59280000D02*
X245280000Y-59280000D01*
X247520000Y-59400000D02*
X245280000Y-59400000D01*
X247520000Y-59520000D02*
X245280000Y-59520000D01*
X247520000Y-60120000D02*
X245280000Y-60120000D01*
X245280000Y-55880000D01*
X247520000Y-55880000D01*
X247520000Y-60120000D01*
%TO.C,D41*%
X250900000Y-73730000D02*
X250900000Y-74380000D01*
X250900000Y-79270000D02*
X250900000Y-78620000D01*
X252020000Y-77780000D02*
X249780000Y-77780000D01*
X252020000Y-77900000D02*
X249780000Y-77900000D01*
X252020000Y-78020000D02*
X249780000Y-78020000D01*
X252020000Y-78620000D02*
X249780000Y-78620000D01*
X249780000Y-74380000D01*
X252020000Y-74380000D01*
X252020000Y-78620000D01*
%TO.C,D54*%
X279500000Y-91730000D02*
X279500000Y-92380000D01*
X279500000Y-97270000D02*
X279500000Y-96620000D01*
X280620000Y-95780000D02*
X278380000Y-95780000D01*
X280620000Y-95900000D02*
X278380000Y-95900000D01*
X280620000Y-96020000D02*
X278380000Y-96020000D01*
X280620000Y-96620000D02*
X278380000Y-96620000D01*
X278380000Y-92380000D01*
X280620000Y-92380000D01*
X280620000Y-96620000D01*
%TO.C,D1*%
X46000000Y-35230000D02*
X46000000Y-35880000D01*
X46000000Y-40770000D02*
X46000000Y-40120000D01*
X47120000Y-39280000D02*
X44880000Y-39280000D01*
X47120000Y-39400000D02*
X44880000Y-39400000D01*
X47120000Y-39520000D02*
X44880000Y-39520000D01*
X47120000Y-40120000D02*
X44880000Y-40120000D01*
X44880000Y-35880000D01*
X47120000Y-35880000D01*
X47120000Y-40120000D01*
%TO.C,D29*%
X308312500Y-55230000D02*
X308312500Y-55880000D01*
X308312500Y-60770000D02*
X308312500Y-60120000D01*
X309432500Y-59280000D02*
X307192500Y-59280000D01*
X309432500Y-59400000D02*
X307192500Y-59400000D01*
X309432500Y-59520000D02*
X307192500Y-59520000D01*
X309432500Y-60120000D02*
X307192500Y-60120000D01*
X307192500Y-55880000D01*
X309432500Y-55880000D01*
X309432500Y-60120000D01*
%TO.C,D9*%
X198900000Y-35520000D02*
X198900000Y-36170000D01*
X198900000Y-41060000D02*
X198900000Y-40410000D01*
X200020000Y-39570000D02*
X197780000Y-39570000D01*
X200020000Y-39690000D02*
X197780000Y-39690000D01*
X200020000Y-39810000D02*
X197780000Y-39810000D01*
X200020000Y-40410000D02*
X197780000Y-40410000D01*
X197780000Y-36170000D01*
X200020000Y-36170000D01*
X200020000Y-40410000D01*
%TO.C,D56*%
X49000000Y-111920000D02*
X49000000Y-112570000D01*
X49000000Y-117460000D02*
X49000000Y-116810000D01*
X50120000Y-115970000D02*
X47880000Y-115970000D01*
X50120000Y-116090000D02*
X47880000Y-116090000D01*
X50120000Y-116210000D02*
X47880000Y-116210000D01*
X50120000Y-116810000D02*
X47880000Y-116810000D01*
X47880000Y-112570000D01*
X50120000Y-112570000D01*
X50120000Y-116810000D01*
%TO.C,D39*%
X212800000Y-73730000D02*
X212800000Y-74380000D01*
X212800000Y-79270000D02*
X212800000Y-78620000D01*
X213920000Y-77780000D02*
X211680000Y-77780000D01*
X213920000Y-77900000D02*
X211680000Y-77900000D01*
X213920000Y-78020000D02*
X211680000Y-78020000D01*
X213920000Y-78620000D02*
X211680000Y-78620000D01*
X211680000Y-74380000D01*
X213920000Y-74380000D01*
X213920000Y-78620000D01*
%TO.C,D36*%
X155650000Y-73730000D02*
X155650000Y-74380000D01*
X155650000Y-79270000D02*
X155650000Y-78620000D01*
X156770000Y-77780000D02*
X154530000Y-77780000D01*
X156770000Y-77900000D02*
X154530000Y-77900000D01*
X156770000Y-78020000D02*
X154530000Y-78020000D01*
X156770000Y-78620000D02*
X154530000Y-78620000D01*
X154530000Y-74380000D01*
X156770000Y-74380000D01*
X156770000Y-78620000D01*
%TO.C,D15*%
X356500000Y-29730000D02*
X356500000Y-30380000D01*
X356500000Y-35270000D02*
X356500000Y-34620000D01*
X357620000Y-33780000D02*
X355380000Y-33780000D01*
X357620000Y-33900000D02*
X355380000Y-33900000D01*
X357620000Y-34020000D02*
X355380000Y-34020000D01*
X357620000Y-34620000D02*
X355380000Y-34620000D01*
X355380000Y-30380000D01*
X357620000Y-30380000D01*
X357620000Y-34620000D01*
%TO.C,D27*%
X265450000Y-55230000D02*
X265450000Y-55880000D01*
X265450000Y-60770000D02*
X265450000Y-60120000D01*
X266570000Y-59280000D02*
X264330000Y-59280000D01*
X266570000Y-59400000D02*
X264330000Y-59400000D01*
X266570000Y-59520000D02*
X264330000Y-59520000D01*
X266570000Y-60120000D02*
X264330000Y-60120000D01*
X264330000Y-55880000D01*
X266570000Y-55880000D01*
X266570000Y-60120000D01*
%TO.C,D23*%
X189250000Y-55230000D02*
X189250000Y-55880000D01*
X189250000Y-60770000D02*
X189250000Y-60120000D01*
X190370000Y-59280000D02*
X188130000Y-59280000D01*
X190370000Y-59400000D02*
X188130000Y-59400000D01*
X190370000Y-59520000D02*
X188130000Y-59520000D01*
X190370000Y-60120000D02*
X188130000Y-60120000D01*
X188130000Y-55880000D01*
X190370000Y-55880000D01*
X190370000Y-60120000D01*
%TO.C,D32*%
X79500000Y-73230000D02*
X79500000Y-73880000D01*
X79500000Y-78770000D02*
X79500000Y-78120000D01*
X80620000Y-77280000D02*
X78380000Y-77280000D01*
X80620000Y-77400000D02*
X78380000Y-77400000D01*
X80620000Y-77520000D02*
X78380000Y-77520000D01*
X80620000Y-78120000D02*
X78380000Y-78120000D01*
X78380000Y-73880000D01*
X80620000Y-73880000D01*
X80620000Y-78120000D01*
%TO.C,D44*%
X58500000Y-92670000D02*
X58500000Y-93320000D01*
X58500000Y-98210000D02*
X58500000Y-97560000D01*
X59620000Y-96720000D02*
X57380000Y-96720000D01*
X59620000Y-96840000D02*
X57380000Y-96840000D01*
X59620000Y-96960000D02*
X57380000Y-96960000D01*
X59620000Y-97560000D02*
X57380000Y-97560000D01*
X57380000Y-93320000D01*
X59620000Y-93320000D01*
X59620000Y-97560000D01*
%TO.C,D40*%
X231850000Y-73730000D02*
X231850000Y-74380000D01*
X231850000Y-79270000D02*
X231850000Y-78620000D01*
X232970000Y-77780000D02*
X230730000Y-77780000D01*
X232970000Y-77900000D02*
X230730000Y-77900000D01*
X232970000Y-78020000D02*
X230730000Y-78020000D01*
X232970000Y-78620000D02*
X230730000Y-78620000D01*
X230730000Y-74380000D01*
X232970000Y-74380000D01*
X232970000Y-78620000D01*
%TO.C,D7*%
X160800000Y-35520000D02*
X160800000Y-36170000D01*
X160800000Y-41060000D02*
X160800000Y-40410000D01*
X161920000Y-39570000D02*
X159680000Y-39570000D01*
X161920000Y-39690000D02*
X159680000Y-39690000D01*
X161920000Y-39810000D02*
X159680000Y-39810000D01*
X161920000Y-40410000D02*
X159680000Y-40410000D01*
X159680000Y-36170000D01*
X161920000Y-36170000D01*
X161920000Y-40410000D01*
%TO.C,D31*%
X53500000Y-73620000D02*
X53500000Y-74270000D01*
X53500000Y-79160000D02*
X53500000Y-78510000D01*
X54620000Y-77670000D02*
X52380000Y-77670000D01*
X54620000Y-77790000D02*
X52380000Y-77790000D01*
X54620000Y-77910000D02*
X52380000Y-77910000D01*
X54620000Y-78510000D02*
X52380000Y-78510000D01*
X52380000Y-74270000D01*
X54620000Y-74270000D01*
X54620000Y-78510000D01*
%TO.C,D25*%
X227350000Y-55230000D02*
X227350000Y-55880000D01*
X227350000Y-60770000D02*
X227350000Y-60120000D01*
X228470000Y-59280000D02*
X226230000Y-59280000D01*
X228470000Y-59400000D02*
X226230000Y-59400000D01*
X228470000Y-59520000D02*
X226230000Y-59520000D01*
X228470000Y-60120000D02*
X226230000Y-60120000D01*
X226230000Y-55880000D01*
X228470000Y-55880000D01*
X228470000Y-60120000D01*
%TO.C,D62*%
X282000000Y-110730000D02*
X282000000Y-111380000D01*
X282000000Y-116270000D02*
X282000000Y-115620000D01*
X283120000Y-114780000D02*
X280880000Y-114780000D01*
X283120000Y-114900000D02*
X280880000Y-114900000D01*
X283120000Y-115020000D02*
X280880000Y-115020000D01*
X283120000Y-115620000D02*
X280880000Y-115620000D01*
X280880000Y-111380000D01*
X283120000Y-111380000D01*
X283120000Y-115620000D01*
%TO.C,D4*%
X103650000Y-35520000D02*
X103650000Y-36170000D01*
X103650000Y-41060000D02*
X103650000Y-40410000D01*
X104770000Y-39570000D02*
X102530000Y-39570000D01*
X104770000Y-39690000D02*
X102530000Y-39690000D01*
X104770000Y-39810000D02*
X102530000Y-39810000D01*
X104770000Y-40410000D02*
X102530000Y-40410000D01*
X102530000Y-36170000D01*
X104770000Y-36170000D01*
X104770000Y-40410000D01*
%TO.C,D10*%
X217950000Y-35520000D02*
X217950000Y-36170000D01*
X217950000Y-41060000D02*
X217950000Y-40410000D01*
X219070000Y-39570000D02*
X216830000Y-39570000D01*
X219070000Y-39690000D02*
X216830000Y-39690000D01*
X219070000Y-39810000D02*
X216830000Y-39810000D01*
X219070000Y-40410000D02*
X216830000Y-40410000D01*
X216830000Y-36170000D01*
X219070000Y-36170000D01*
X219070000Y-40410000D01*
%TO.C,D65*%
X341500000Y-111730000D02*
X341500000Y-112380000D01*
X341500000Y-117270000D02*
X341500000Y-116620000D01*
X342620000Y-115780000D02*
X340380000Y-115780000D01*
X342620000Y-115900000D02*
X340380000Y-115900000D01*
X342620000Y-116020000D02*
X340380000Y-116020000D01*
X342620000Y-116620000D02*
X340380000Y-116620000D01*
X340380000Y-112380000D01*
X342620000Y-112380000D01*
X342620000Y-116620000D01*
%TO.C,D14*%
X306000000Y-35230000D02*
X306000000Y-35880000D01*
X306000000Y-40770000D02*
X306000000Y-40120000D01*
X307120000Y-39280000D02*
X304880000Y-39280000D01*
X307120000Y-39400000D02*
X304880000Y-39400000D01*
X307120000Y-39520000D02*
X304880000Y-39520000D01*
X307120000Y-40120000D02*
X304880000Y-40120000D01*
X304880000Y-35880000D01*
X307120000Y-35880000D01*
X307120000Y-40120000D01*
%TD*%
M02*
